EncodeSansCondensed-Thin.ufo
<glyph name="quotesingle" format="2">
  <advance width="344.0"/>
  <unicode hex="0027"/>
  <outline>
    <contour>
      <point x="152.0" y="956.0" type="line"/>
      <point x="192.0" y="956.0" type="line"/>
      <point x="212.0" y="1616.0" type="line"/>
      <point x="132.0" y="1616.0" type="line"/>
    </contour>
  </outline>
</glyph>
<glyph name="parenleft" format="2">
  <advance width="546.0"/>
  <unicode hex="0028"/>
  <outline>
    <contour>
      <point x="418.0" y="-440.0" type="curve"/>
      <point x="488.0" y="-440.0" type="line"/>
      <point x="284.0" y="-130.0"/>
      <point x="190.0" y="218.0"/>
      <point x="190.0" y="588.0" type="curve" smooth="yes"/>
      <point x="190.0" y="958.0"/>
      <point x="284.0" y="1306.0"/>
      <point x="488.0" y="1616.0" type="curve"/>
      <point x="418.0" y="1616.0" type="line"/>
      <point x="210.0" y="1310.0"/>
      <point x="118.0" y="964.0"/>
      <point x="118.0" y="588.0" type="curve" smooth="yes"/>
      <point x="118.0" y="212.0"/>
      <point x="210.0" y="-134.0"/>
    </contour>
  </outline>
</glyph>
<glyph name="parenright" format="2">
  <advance width="546.0"/>
  <unicode hex="0029"/>
  <outline>
    <contour>
      <point x="58.0" y="-440.0" type="curve"/>
      <point x="128.0" y="-440.0" type="line"/>
      <point x="336.0" y="-134.0"/>
      <point x="428.0" y="212.0"/>
      <point x="428.0" y="588.0" type="curve" smooth="yes"/>
      <point x="428.0" y="964.0"/>
      <point x="336.0" y="1310.0"/>
      <point x="128.0" y="1616.0" type="curve"/>
      <point x="58.0" y="1616.0" type="line"/>
      <point x="262.0" y="1306.0"/>
      <point x="356.0" y="958.0"/>
      <point x="356.0" y="588.0" type="curve" smooth="yes"/>
      <point x="356.0" y="218.0"/>
      <point x="262.0" y="-130.0"/>
    </contour>
  </outline>
</glyph>
<glyph name="zero" format="2">
  <advance width="1036.0"/>
  <unicode hex="0030"/>
  <note>
600
</note>
  <outline>
    <contour>
      <point x="518.0" y="-18.0" type="curve" smooth="yes"/>
      <point x="768.0" y="-18.0"/>
      <point x="928.0" y="174.0"/>
      <point x="928.0" y="740.0" type="curve" smooth="yes"/>
      <point x="928.0" y="1306.0"/>
      <point x="770.0" y="1498.0"/>
      <point x="518.0" y="1498.0" type="curve" smooth="yes"/>
      <point x="266.0" y="1498.0"/>
      <point x="108.0" y="1306.0"/>
      <point x="108.0" y="740.0" type="curve" smooth="yes"/>
      <point x="108.0" y="174.0"/>
      <point x="268.0" y="-18.0"/>
    </contour>
    <contour>
      <point x="518.0" y="48.0" type="curve" smooth="yes"/>
      <point x="314.0" y="48.0"/>
      <point x="180.0" y="206.0"/>
      <point x="180.0" y="744.0" type="curve" smooth="yes"/>
      <point x="180.0" y="1274.0"/>
      <point x="314.0" y="1432.0"/>
      <point x="518.0" y="1432.0" type="curve" smooth="yes"/>
      <point x="722.0" y="1432.0"/>
      <point x="856.0" y="1274.0"/>
      <point x="856.0" y="736.0" type="curve" smooth="yes"/>
      <point x="856.0" y="206.0"/>
      <point x="722.0" y="48.0"/>
    </contour>
  </outline>
</glyph>
<glyph name="one" format="2">
  <advance width="552.0"/>
  <unicode hex="0031"/>
  <outline>
    <contour>
      <point x="310.0" y="0.0" type="line"/>
      <point x="378.0" y="0.0" type="line"/>
      <point x="378.0" y="1484.0" type="line"/>
      <point x="340.0" y="1484.0" type="line"/>
      <point x="20.0" y="1236.0" type="line"/>
      <point x="20.0" y="1162.0" type="line"/>
      <point x="340.0" y="1410.0" type="line"/>
      <point x="310.0" y="1394.0" type="line"/>
    </contour>
  </outline>
</glyph>
<glyph name="two" format="2">
  <advance width="804.0"/>
  <unicode hex="0032"/>
  <outline>
    <contour>
      <point x="52.0" y="0.0" type="line"/>
      <point x="744.0" y="0.0" type="line"/>
      <point x="744.0" y="64.0" type="line"/>
      <point x="108.0" y="64.0" type="line"/>
      <point x="126.0" y="40.0" type="line"/>
      <point x="488.0" y="624.0" type="line" smooth="yes"/>
      <point x="628.0" y="852.0"/>
      <point x="676.0" y="988.0"/>
      <point x="678.0" y="1138.0" type="curve" smooth="yes"/>
      <point x="682.0" y="1394.0"/>
      <point x="534.0" y="1498.0"/>
      <point x="302.0" y="1498.0" type="curve" smooth="yes"/>
      <point x="210.0" y="1498.0"/>
      <point x="104.0" y="1478.0"/>
      <point x="36.0" y="1444.0" type="curve"/>
      <point x="36.0" y="1376.0" type="line"/>
      <point x="122.0" y="1414.0"/>
      <point x="206.0" y="1432.0"/>
      <point x="302.0" y="1432.0" type="curve" smooth="yes"/>
      <point x="496.0" y="1432.0"/>
      <point x="608.0" y="1358.0"/>
      <point x="608.0" y="1138.0" type="curve" smooth="yes"/>
      <point x="608.0" y="1000.0"/>
      <point x="558.0" y="866.0"/>
      <point x="434.0" y="664.0" type="curve" smooth="yes"/>
      <point x="52.0" y="40.0" type="line"/>
    </contour>
  </outline>
</glyph>
<glyph name="five" format="2">
  <advance width="858.0"/>
  <unicode hex="0035"/>
  <outline>
    <contour>
      <point x="376.0" y="-18.0" type="curve" smooth="yes"/>
      <point x="654.0" y="-18.0"/>
      <point x="806.0" y="128.0"/>
      <point x="806.0" y="398.0" type="curve" smooth="yes"/>
      <point x="806.0" y="668.0"/>
      <point x="636.0" y="804.0"/>
      <point x="306.0" y="824.0" type="curve" smooth="yes"/>
      <point x="140.0" y="834.0" type="line"/>
      <point x="192.0" y="786.0" type="line"/>
      <point x="236.0" y="1444.0" type="line"/>
      <point x="204.0" y="1416.0" type="line"/>
      <point x="744.0" y="1416.0" type="line"/>
      <point x="744.0" y="1480.0" type="line"/>
      <point x="170.0" y="1480.0" type="line"/>
      <point x="124.0" y="768.0" type="line"/>
      <point x="290.0" y="758.0" type="line" smooth="yes"/>
      <point x="598.0" y="740.0"/>
      <point x="736.0" y="632.0"/>
      <point x="736.0" y="396.0" type="curve" smooth="yes"/>
      <point x="736.0" y="166.0"/>
      <point x="612.0" y="48.0"/>
      <point x="376.0" y="48.0" type="curve" smooth="yes"/>
      <point x="274.0" y="48.0"/>
      <point x="170.0" y="68.0"/>
      <point x="74.0" y="104.0" type="curve"/>
      <point x="74.0" y="36.0" type="line"/>
      <point x="162.0" y="0.0"/>
      <point x="266.0" y="-18.0"/>
    </contour>
  </outline>
</glyph>
<glyph name="six" format="2">
  <advance width="952.0"/>
  <unicode hex="0036"/>
  <outline>
    <contour>
      <point x="540.0" y="-18.0" type="curve" smooth="yes"/>
      <point x="738.0" y="-18.0"/>
      <point x="902.0" y="116.0"/>
      <point x="902.0" y="408.0" type="curve" smooth="yes"/>
      <point x="902.0" y="694.0"/>
      <point x="728.0" y="828.0"/>
      <point x="514.0" y="828.0" type="curve" smooth="yes"/>
      <point x="366.0" y="828.0"/>
      <point x="232.0" y="766.0"/>
      <point x="166.0" y="664.0" type="curve"/>
      <point x="166.0" y="572.0" type="line"/>
      <point x="238.0" y="710.0"/>
      <point x="382.0" y="762.0"/>
      <point x="510.0" y="762.0" type="curve" smooth="yes"/>
      <point x="688.0" y="762.0"/>
      <point x="832.0" y="662.0"/>
      <point x="832.0" y="404.0" type="curve" smooth="yes"/>
      <point x="832.0" y="148.0"/>
      <point x="698.0" y="48.0"/>
      <point x="542.0" y="48.0" type="curve" smooth="yes"/>
      <point x="346.0" y="48.0"/>
      <point x="194.0" y="180.0"/>
      <point x="194.0" y="692.0" type="curve" smooth="yes"/>
      <point x="194.0" y="704.0" type="line" smooth="yes"/>
      <point x="194.0" y="1248.0"/>
      <point x="350.0" y="1432.0"/>
      <point x="628.0" y="1432.0" type="curve" smooth="yes"/>
      <point x="706.0" y="1432.0"/>
      <point x="780.0" y="1418.0"/>
      <point x="842.0" y="1390.0" type="curve"/>
      <point x="842.0" y="1458.0" type="line"/>
      <point x="780.0" y="1486.0"/>
      <point x="704.0" y="1498.0"/>
      <point x="632.0" y="1498.0" type="curve" smooth="yes"/>
      <point x="306.0" y="1498.0"/>
      <point x="124.0" y="1282.0"/>
      <point x="124.0" y="690.0" type="curve" smooth="yes"/>
      <point x="124.0" y="142.0"/>
      <point x="306.0" y="-18.0"/>
    </contour>
  </outline>
</glyph>
<glyph name="eight" format="2">
  <advance width="1036.0"/>
  <unicode hex="0038"/>
  <outline>
    <contour>
      <point x="530.0" y="-18.0" type="curve" smooth="yes"/>
      <point x="786.0" y="-18.0"/>
      <point x="946.0" y="132.0"/>
      <point x="946.0" y="358.0" type="curve" smooth="yes"/>
      <point x="946.0" y="572.0"/>
      <point x="838.0" y="684.0"/>
      <point x="542.0" y="778.0" type="curve" smooth="yes"/>
      <point x="282.0" y="860.0"/>
      <point x="206.0" y="956.0"/>
      <point x="206.0" y="1134.0" type="curve" smooth="yes"/>
      <point x="206.0" y="1318.0"/>
      <point x="316.0" y="1432.0"/>
      <point x="514.0" y="1432.0" type="curve" smooth="yes"/>
      <point x="714.0" y="1432.0"/>
      <point x="834.0" y="1324.0"/>
      <point x="834.0" y="1128.0" type="curve" smooth="yes"/>
      <point x="834.0" y="948.0"/>
      <point x="752.0" y="848.0"/>
      <point x="566.0" y="762.0" type="curve"/>
      <point x="636.0" y="734.0" type="line"/>
      <point x="804.0" y="812.0"/>
      <point x="902.0" y="948.0"/>
      <point x="902.0" y="1128.0" type="curve" smooth="yes"/>
      <point x="902.0" y="1354.0"/>
      <point x="752.0" y="1498.0"/>
      <point x="514.0" y="1498.0" type="curve" smooth="yes"/>
      <point x="282.0" y="1498.0"/>
      <point x="134.0" y="1354.0"/>
      <point x="134.0" y="1132.0" type="curve" smooth="yes"/>
      <point x="134.0" y="920.0"/>
      <point x="246.0" y="800.0"/>
      <point x="532.0" y="710.0" type="curve" smooth="yes"/>
      <point x="792.0" y="628.0"/>
      <point x="874.0" y="544.0"/>
      <point x="874.0" y="352.0" type="curve" smooth="yes"/>
      <point x="874.0" y="160.0"/>
      <point x="744.0" y="48.0"/>
      <point x="530.0" y="48.0" type="curve" smooth="yes"/>
      <point x="282.0" y="48.0"/>
      <point x="162.0" y="164.0"/>
      <point x="162.0" y="366.0" type="curve" smooth="yes"/>
      <point x="162.0" y="556.0"/>
      <point x="274.0" y="692.0"/>
      <point x="452.0" y="748.0" type="curve"/>
      <point x="386.0" y="780.0" type="line"/>
      <point x="206.0" y="716.0"/>
      <point x="90.0" y="558.0"/>
      <point x="90.0" y="366.0" type="curve" smooth="yes"/>
      <point x="90.0" y="124.0"/>
      <point x="250.0" y="-18.0"/>
    </contour>
  </outline>
</glyph>
<glyph name="nine" format="2">
  <advance width="952.0"/>
  <unicode hex="0039"/>
  <outline>
    <contour>
      <point x="412.0" y="1498.0" type="curve" smooth="yes"/>
      <point x="214.0" y="1498.0"/>
      <point x="50.0" y="1364.0"/>
      <point x="50.0" y="1072.0" type="curve" smooth="yes"/>
      <point x="50.0" y="786.0"/>
      <point x="224.0" y="652.0"/>
      <point x="438.0" y="652.0" type="curve" smooth="yes"/>
      <point x="586.0" y="652.0"/>
      <point x="720.0" y="714.0"/>
      <point x="786.0" y="816.0" type="curve"/>
      <point x="786.0" y="908.0" type="line"/>
      <point x="714.0" y="770.0"/>
      <point x="570.0" y="718.0"/>
      <point x="442.0" y="718.0" type="curve" smooth="yes"/>
      <point x="264.0" y="718.0"/>
      <point x="120.0" y="818.0"/>
      <point x="120.0" y="1076.0" type="curve" smooth="yes"/>
      <point x="120.0" y="1332.0"/>
      <point x="254.0" y="1432.0"/>
      <point x="410.0" y="1432.0" type="curve" smooth="yes"/>
      <point x="606.0" y="1432.0"/>
      <point x="758.0" y="1300.0"/>
      <point x="758.0" y="788.0" type="curve" smooth="yes"/>
      <point x="758.0" y="776.0" type="line" smooth="yes"/>
      <point x="758.0" y="232.0"/>
      <point x="602.0" y="48.0"/>
      <point x="324.0" y="48.0" type="curve" smooth="yes"/>
      <point x="246.0" y="48.0"/>
      <point x="172.0" y="62.0"/>
      <point x="110.0" y="90.0" type="curve"/>
      <point x="110.0" y="22.0" type="line"/>
      <point x="172.0" y="-6.0"/>
      <point x="248.0" y="-18.0"/>
      <point x="320.0" y="-18.0" type="curve" smooth="yes"/>
      <point x="646.0" y="-18.0"/>
      <point x="828.0" y="198.0"/>
      <point x="828.0" y="790.0" type="curve" smooth="yes"/>
      <point x="828.0" y="1338.0"/>
      <point x="646.0" y="1498.0"/>
    </contour>
  </outline>
</glyph>
<glyph name="colon" format="2">
  <advance width="360.0"/>
  <unicode hex="003A"/>
  <outline>
    <contour>
      <point x="180.0" y="-10.0" type="curve" smooth="yes"/>
      <point x="216.0" y="-10.0"/>
      <point x="242.0" y="14.0"/>
      <point x="242.0" y="52.0" type="curve" smooth="yes"/>
      <point x="242.0" y="90.0"/>
      <point x="216.0" y="116.0"/>
      <point x="180.0" y="116.0" type="curve" smooth="yes"/>
      <point x="144.0" y="116.0"/>
      <point x="118.0" y="90.0"/>
      <point x="118.0" y="52.0" type="curve" smooth="yes"/>
      <point x="118.0" y="14.0"/>
      <point x="144.0" y="-10.0"/>
    </contour>
    <contour>
      <point x="180.0" y="964.0" type="curve" smooth="yes"/>
      <point x="216.0" y="964.0"/>
      <point x="242.0" y="988.0"/>
      <point x="242.0" y="1026.0" type="curve" smooth="yes"/>
      <point x="242.0" y="1064.0"/>
      <point x="216.0" y="1090.0"/>
      <point x="180.0" y="1090.0" type="curve" smooth="yes"/>
      <point x="144.0" y="1090.0"/>
      <point x="118.0" y="1064.0"/>
      <point x="118.0" y="1026.0" type="curve" smooth="yes"/>
      <point x="118.0" y="988.0"/>
      <point x="144.0" y="964.0"/>
    </contour>
  </outline>
</glyph>
<glyph name="greater" format="2">
  <advance width="1016.0"/>
  <unicode hex="003E"/>
  <outline>
    <contour>
      <point x="144.0" y="406.0" type="line"/>
      <point x="872.0" y="734.0" type="line"/>
      <point x="872.0" y="786.0" type="line"/>
      <point x="144.0" y="1114.0" type="line"/>
      <point x="144.0" y="1042.0" type="line"/>
      <point x="808.0" y="748.0" type="line"/>
      <point x="808.0" y="772.0" type="line"/>
      <point x="144.0" y="478.0" type="line"/>
    </contour>
  </outline>
</glyph>
<glyph name="question" format="2">
  <advance width="760.0"/>
  <unicode hex="003F"/>
  <outline>
    <contour>
      <point x="306.0" y="300.0" type="line"/>
      <point x="354.0" y="300.0" type="line"/>
      <point x="364.0" y="694.0" type="line"/>
      <point x="618.0" y="814.0"/>
      <point x="700.0" y="938.0"/>
      <point x="700.0" y="1138.0" type="curve" smooth="yes"/>
      <point x="700.0" y="1370.0"/>
      <point x="564.0" y="1498.0"/>
      <point x="310.0" y="1498.0" type="curve" smooth="yes"/>
      <point x="214.0" y="1498.0"/>
      <point x="108.0" y="1478.0"/>
      <point x="40.0" y="1444.0" type="curve"/>
      <point x="40.0" y="1376.0" type="line"/>
      <point x="126.0" y="1414.0"/>
      <point x="210.0" y="1432.0"/>
      <point x="310.0" y="1432.0" type="curve" smooth="yes"/>
      <point x="522.0" y="1432.0"/>
      <point x="630.0" y="1336.0"/>
      <point x="630.0" y="1140.0" type="curve" smooth="yes"/>
      <point x="630.0" y="956.0"/>
      <point x="544.0" y="838.0"/>
      <point x="294.0" y="736.0" type="curve"/>
    </contour>
    <contour>
      <point x="330.0" y="-10.0" type="curve" smooth="yes"/>
      <point x="368.0" y="-10.0"/>
      <point x="392.0" y="16.0"/>
      <point x="392.0" y="52.0" type="curve" smooth="yes"/>
      <point x="392.0" y="90.0"/>
      <point x="366.0" y="116.0"/>
      <point x="330.0" y="116.0" type="curve" smooth="yes"/>
      <point x="294.0" y="116.0"/>
      <point x="268.0" y="90.0"/>
      <point x="268.0" y="52.0" type="curve" smooth="yes"/>
      <point x="268.0" y="16.0"/>
      <point x="294.0" y="-10.0"/>
    </contour>
  </outline>
</glyph>
<glyph name="F" format="2">
  <advance width="910.0"/>
  <unicode hex="0046"/>
  <outline>
    <contour>
      <point x="164.0" y="0.0" type="line"/>
      <point x="232.0" y="0.0" type="line"/>
      <point x="232.0" y="1414.0" type="line"/>
      <point x="892.0" y="1414.0" type="line"/>
      <point x="892.0" y="1480.0" type="line"/>
      <point x="164.0" y="1480.0" type="line"/>
    </contour>
    <contour>
      <point x="224.0" y="728.0" type="line"/>
      <point x="802.0" y="728.0" type="line"/>
      <point x="802.0" y="794.0" type="line"/>
      <point x="224.0" y="794.0" type="line"/>
    </contour>
  </outline>
</glyph>
<glyph name="K" format="2">
  <advance width="1040.0"/>
  <unicode hex="004B"/>
  <anchor x="556.0" y="0.0" name="bottom"/>
  <anchor x="556.0" y="1480.0" name="top"/>
  <outline>
    <contour>
      <point x="996.0" y="0.0" type="line"/>
      <point x="1078.0" y="0.0" type="line"/>
      <point x="472.0" y="774.0" type="line"/>
      <point x="472.0" y="750.0" type="line"/>
      <point x="1036.0" y="1480.0" type="line"/>
      <point x="956.0" y="1480.0" type="line"/>
      <point x="402.0" y="758.0" type="line"/>
    </contour>
    <contour>
      <point x="164.0" y="0.0" type="line"/>
      <point x="232.0" y="0.0" type="line"/>
      <point x="232.0" y="1480.0" type="line"/>
      <point x="164.0" y="1480.0" type="line"/>
    </contour>
    <contour>
      <point x="216.0" y="728.0" type="line"/>
      <point x="444.0" y="728.0" type="line"/>
      <point x="444.0" y="792.0" type="line"/>
      <point x="216.0" y="792.0" type="line"/>
    </contour>
  </outline>
</glyph>
<glyph name="L" format="2">
  <advance width="890.0"/>
  <unicode hex="004C"/>
  <anchor x="526.0" y="0.0" name="bottom"/>
  <anchor x="578.0" y="1616.0" name="caronalt"/>
  <anchor x="640.0" y="774.0" name="periodcentered"/>
  <anchor x="198.0" y="774.0" name="slash"/>
  <anchor x="198.0" y="1520.0" name="top"/>
  <outline>
    <contour>
      <point x="164.0" y="0.0" type="line"/>
      <point x="886.0" y="0.0" type="line"/>
      <point x="886.0" y="66.0" type="line"/>
      <point x="232.0" y="66.0" type="line"/>
      <point x="232.0" y="1480.0" type="line"/>
      <point x="164.0" y="1480.0" type="line"/>
    </contour>
  </outline>
</glyph>
<glyph name="M" format="2">
  <advance width="1516.0"/>
  <unicode hex="004D"/>
  <anchor x="758.0" y="0.0" name="bottom"/>
  <anchor x="758.0" y="1480.0" name="top"/>
  <outline>
    <contour>
      <point x="168.0" y="0.0" type="line"/>
      <point x="234.0" y="0.0" type="line"/>
      <point x="234.0" y="1420.0" type="line"/>
      <point x="198.0" y="1420.0" type="line"/>
      <point x="720.0" y="200.0" type="line"/>
      <point x="796.0" y="200.0" type="line"/>
      <point x="1316.0" y="1420.0" type="line"/>
      <point x="1282.0" y="1420.0" type="line"/>
      <point x="1282.0" y="0.0" type="line"/>
      <point x="1348.0" y="0.0" type="line"/>
      <point x="1348.0" y="1480.0" type="line"/>
      <point x="1272.0" y="1480.0" type="line"/>
      <point x="744.0" y="232.0" type="line"/>
      <point x="776.0" y="232.0" type="line"/>
      <point x="244.0" y="1480.0" type="line"/>
      <point x="168.0" y="1480.0" type="line"/>
    </contour>
  </outline>
</glyph>
<glyph name="V" format="2">
  <advance width="1098.0"/>
  <unicode hex="0056"/>
  <outline>
    <contour>
      <point x="502.0" y="0.0" type="line"/>
      <point x="596.0" y="0.0" type="line"/>
      <point x="1088.0" y="1480.0" type="line"/>
      <point x="1018.0" y="1480.0" type="line"/>
      <point x="542.0" y="40.0" type="line"/>
      <point x="558.0" y="40.0" type="line"/>
      <point x="84.0" y="1480.0" type="line"/>
      <point x="10.0" y="1480.0" type="line"/>
    </contour>
  </outline>
</glyph>
<glyph name="bracketright" format="2">
  <advance width="546.0"/>
  <unicode hex="005D"/>
  <outline>
    <contour>
      <point x="-40.0" y="-440.0" type="line"/>
      <point x="362.0" y="-440.0" type="line"/>
      <point x="362.0" y="1616.0" type="line"/>
      <point x="-40.0" y="1616.0" type="line"/>
      <point x="-40.0" y="1552.0" type="line"/>
      <point x="294.0" y="1552.0" type="line"/>
      <point x="294.0" y="-376.0" type="line"/>
      <point x="-40.0" y="-376.0" type="line"/>
    </contour>
  </outline>
</glyph>
<glyph name="grave" format="2">
  <advance width="800.0"/>
  <unicode hex="0060"/>
  <anchor x="400.0" y="1200.0" name="_top"/>
  <anchor x="400.0" y="1556.0" name="top"/>
  <outline>
    <contour>
      <point x="372.0" y="1264.0" type="line"/>
      <point x="428.0" y="1264.0" type="line"/>
      <point x="280.0" y="1616.0" type="line"/>
      <point x="208.0" y="1616.0" type="line"/>
    </contour>
  </outline>
</glyph>
<glyph name="a" format="2">
  <advance width="852.0"/>
  <unicode hex="0061"/>
  <guideline x="142.0" y="330.0" angle="90.0"/>
  <anchor x="424.0" y="0.0" name="bottom"/>
  <anchor x="718.0" y="0.0" name="ogonek"/>
  <anchor x="420.0" y="1200.0" name="top"/>
  <outline>
    <contour>
      <point x="366.0" y="-16.0" type="curve" smooth="yes"/>
      <point x="480.0" y="-16.0"/>
      <point x="578.0" y="30.0"/>
      <point x="644.0" y="122.0" type="curve"/>
      <point x="652.0" y="122.0" type="line"/>
      <point x="658.0" y="0.0" type="line"/>
      <point x="718.0" y="0.0" type="line"/>
      <point x="718.0" y="754.0" type="line" smooth="yes"/>
      <point x="718.0" y="1012.0"/>
      <point x="600.0" y="1096.0"/>
      <point x="390.0" y="1096.0" type="curve" smooth="yes"/>
      <point x="310.0" y="1096.0"/>
      <point x="208.0" y="1080.0"/>
      <point x="136.0" y="1052.0" type="curve"/>
      <point x="136.0" y="984.0" type="line"/>
      <point x="226.0" y="1016.0"/>
      <point x="318.0" y="1030.0"/>
      <point x="388.0" y="1030.0" type="curve" smooth="yes"/>
      <point x="556.0" y="1030.0"/>
      <point x="650.0" y="972.0"/>
      <point x="650.0" y="756.0" type="curve" smooth="yes"/>
      <point x="650.0" y="222.0" type="line"/>
      <point x="572.0" y="90.0"/>
      <point x="464.0" y="50.0"/>
      <point x="372.0" y="50.0" type="curve" smooth="yes"/>
      <point x="234.0" y="50.0"/>
      <point x="156.0" y="120.0"/>
      <point x="156.0" y="274.0" type="curve" smooth="yes"/>
      <point x="156.0" y="414.0"/>
      <point x="234.0" y="492.0"/>
      <point x="408.0" y="510.0" type="curve" smooth="yes"/>
      <point x="696.0" y="542.0" type="line"/>
      <point x="686.0" y="608.0" type="line"/>
      <point x="410.0" y="576.0" type="line" smooth="yes"/>
      <point x="188.0" y="552.0"/>
      <point x="82.0" y="450.0"/>
      <point x="82.0" y="266.0" type="curve" smooth="yes"/>
      <point x="82.0" y="82.0"/>
      <point x="198.0" y="-16.0"/>
    </contour>
  </outline>
</glyph>
<glyph name="h" format="2">
  <advance width="930.0"/>
  <unicode hex="0068"/>
  <anchor x="470.0" y="0.0" name="bottom"/>
  <anchor x="470.0" y="540.0" name="center"/>
  <anchor x="144.0" y="1356.0" name="stroke"/>
  <anchor x="470.0" y="1616.0" name="top"/>
  <outline>
    <contour>
      <point x="144.0" y="0.0" type="line"/>
      <point x="212.0" y="0.0" type="line"/>
      <point x="212.0" y="850.0" type="line"/>
      <point x="286.0" y="986.0"/>
      <point x="418.0" y="1028.0"/>
      <point x="510.0" y="1028.0" type="curve" smooth="yes"/>
      <point x="640.0" y="1028.0"/>
      <point x="728.0" y="968.0"/>
      <point x="728.0" y="774.0" type="curve" smooth="yes"/>
      <point x="728.0" y="0.0" type="line"/>
      <point x="796.0" y="0.0" type="line"/>
      <point x="796.0" y="770.0" type="line" smooth="yes"/>
      <point x="796.0" y="1020.0"/>
      <point x="674.0" y="1096.0"/>
      <point x="514.0" y="1096.0" type="curve" smooth="yes"/>
      <point x="404.0" y="1096.0"/>
      <point x="298.0" y="1052.0"/>
      <point x="218.0" y="956.0" type="curve"/>
      <point x="212.0" y="956.0" type="line"/>
      <point x="212.0" y="1616.0" type="line"/>
      <point x="144.0" y="1616.0" type="line"/>
    </contour>
  </outline>
</glyph>
<glyph name="j" format="2">
  <advance width="356.0"/>
  <unicode hex="006A"/>
  <anchor x="178.0" y="1200.0" name="_top"/>
  <anchor x="178.0" y="1200.0" name="top"/>
  <outline>
    <contour>
      <point x="24.0" y="-460.0" type="line"/>
      <point x="154.0" y="-256.0"/>
      <point x="212.0" y="-98.0"/>
      <point x="212.0" y="176.0" type="curve" smooth="yes"/>
      <point x="212.0" y="1080.0" type="line"/>
      <point x="144.0" y="1080.0" type="line"/>
      <point x="144.0" y="166.0" type="line" smooth="yes"/>
      <point x="144.0" y="-84.0"/>
      <point x="94.0" y="-236.0"/>
      <point x="-26.0" y="-426.0" type="curve"/>
    </contour>
    <contour>
      <point x="178.0" y="1360.0" type="curve" smooth="yes"/>
      <point x="214.0" y="1360.0"/>
      <point x="240.0" y="1384.0"/>
      <point x="240.0" y="1422.0" type="curve" smooth="yes"/>
      <point x="240.0" y="1460.0"/>
      <point x="214.0" y="1486.0"/>
      <point x="178.0" y="1486.0" type="curve" smooth="yes"/>
      <point x="142.0" y="1486.0"/>
      <point x="116.0" y="1460.0"/>
      <point x="116.0" y="1422.0" type="curve" smooth="yes"/>
      <point x="116.0" y="1384.0"/>
      <point x="142.0" y="1360.0"/>
    </contour>
  </outline>
</glyph>
<glyph name="l" format="2">
  <advance width="356.0"/>
  <unicode hex="006C"/>
  <anchor x="178.0" y="0.0" name="bottom"/>
  <anchor x="312.0" y="1616.0" name="caronalt"/>
  <anchor x="350.0" y="794.0" name="periodcentered"/>
  <anchor x="178.0" y="714.0" name="slash"/>
  <anchor x="178.0" y="1616.0" name="top"/>
  <outline>
    <contour>
      <point x="144.0" y="0.0" type="line"/>
      <point x="212.0" y="0.0" type="line"/>
      <point x="212.0" y="1616.0" type="line"/>
      <point x="144.0" y="1616.0" type="line"/>
    </contour>
  </outline>
</glyph>
<glyph name="y" format="2">
  <advance width="858.0"/>
  <unicode hex="0079"/>
  <anchor x="636.0" y="0.0" name="bottom"/>
  <anchor x="430.0" y="1200.0" name="top"/>
  <outline>
    <contour>
      <point x="254.0" y="-440.0" type="line"/>
      <point x="326.0" y="-440.0" type="line"/>
      <point x="846.0" y="1080.0" type="line"/>
      <point x="770.0" y="1080.0" type="line"/>
      <point x="418.0" y="34.0" type="line"/>
      <point x="406.0" y="0.0" type="line"/>
    </contour>
    <contour>
      <point x="382.0" y="0.0" type="line"/>
      <point x="452.0" y="0.0" type="line"/>
      <point x="88.0" y="1080.0" type="line"/>
      <point x="12.0" y="1080.0" type="line"/>
    </contour>
  </outline>
</glyph>
<glyph name="braceleft" format="2">
  <advance width="586.0"/>
  <unicode hex="007B"/>
  <outline>
    <contour>
      <point x="506.0" y="-460.0" type="curve" smooth="yes"/>
      <point x="550.0" y="-460.0"/>
      <point x="596.0" y="-456.0"/>
      <point x="626.0" y="-450.0" type="curve"/>
      <point x="626.0" y="-394.0" type="line"/>
      <point x="502.0" y="-394.0" type="line" smooth="yes"/>
      <point x="360.0" y="-394.0"/>
      <point x="292.0" y="-326.0"/>
      <point x="292.0" y="-184.0" type="curve" smooth="yes"/>
      <point x="292.0" y="414.0" type="line" smooth="yes"/>
      <point x="292.0" y="530.0"/>
      <point x="246.0" y="602.0"/>
      <point x="152.0" y="628.0" type="curve"/>
      <point x="152.0" y="616.0" type="line"/>
      <point x="246.0" y="642.0"/>
      <point x="292.0" y="714.0"/>
      <point x="292.0" y="830.0" type="curve" smooth="yes"/>
      <point x="292.0" y="1360.0" type="line" smooth="yes"/>
      <point x="292.0" y="1502.0"/>
      <point x="360.0" y="1570.0"/>
      <point x="502.0" y="1570.0" type="curve" smooth="yes"/>
      <point x="626.0" y="1570.0" type="line"/>
      <point x="626.0" y="1626.0" type="line"/>
      <point x="596.0" y="1632.0"/>
      <point x="550.0" y="1636.0"/>
      <point x="506.0" y="1636.0" type="curve" smooth="yes"/>
      <point x="320.0" y="1636.0"/>
      <point x="224.0" y="1540.0"/>
      <point x="224.0" y="1352.0" type="curve" smooth="yes"/>
      <point x="224.0" y="830.0" type="line" smooth="yes"/>
      <point x="224.0" y="708.0"/>
      <point x="162.0" y="654.0"/>
      <point x="50.0" y="654.0" type="curve" smooth="yes"/>
      <point x="46.0" y="654.0" type="line"/>
      <point x="46.0" y="590.0" type="line"/>
      <point x="50.0" y="590.0" type="line" smooth="yes"/>
      <point x="162.0" y="590.0"/>
      <point x="224.0" y="536.0"/>
      <point x="224.0" y="414.0" type="curve" smooth="yes"/>
      <point x="224.0" y="-176.0" type="line" smooth="yes"/>
      <point x="224.0" y="-364.0"/>
      <point x="320.0" y="-460.0"/>
    </contour>
  </outline>
</glyph>
<glyph name="asciitilde" format="2">
  <advance width="1016.0"/>
  <unicode hex="007E"/>
  <outline>
    <contour>
      <point x="680.0" y="664.0" type="curve" smooth="yes"/>
      <point x="758.0" y="664.0"/>
      <point x="828.0" y="696.0"/>
      <point x="872.0" y="754.0" type="curve"/>
      <point x="872.0" y="836.0" type="line"/>
      <point x="818.0" y="764.0"/>
      <point x="754.0" y="728.0"/>
      <point x="678.0" y="728.0" type="curve" smooth="yes"/>
      <point x="574.0" y="728.0"/>
      <point x="468.0" y="844.0"/>
      <point x="336.0" y="844.0" type="curve" smooth="yes"/>
      <point x="258.0" y="844.0"/>
      <point x="188.0" y="812.0"/>
      <point x="144.0" y="754.0" type="curve"/>
      <point x="144.0" y="672.0" type="line"/>
      <point x="198.0" y="744.0"/>
      <point x="262.0" y="780.0"/>
      <point x="338.0" y="780.0" type="curve" smooth="yes"/>
      <point x="442.0" y="780.0"/>
      <point x="548.0" y="664.0"/>
    </contour>
  </outline>
</glyph>
<glyph name="cent" format="2">
  <advance width="696.0"/>
  <unicode hex="00A2"/>
  <outline>
    <contour>
      <point x="468.0" y="-18.0" type="curve" smooth="yes"/>
      <point x="538.0" y="-18.0"/>
      <point x="608.0" y="-6.0"/>
      <point x="686.0" y="22.0" type="curve"/>
      <point x="686.0" y="90.0" type="line"/>
      <point x="602.0" y="60.0"/>
      <point x="534.0" y="48.0"/>
      <point x="476.0" y="48.0" type="curve" smooth="yes"/>
      <point x="268.0" y="48.0"/>
      <point x="160.0" y="162.0"/>
      <point x="160.0" y="544.0" type="curve" smooth="yes"/>
      <point x="160.0" y="922.0"/>
      <point x="278.0" y="1030.0"/>
      <point x="512.0" y="1030.0" type="curve" smooth="yes"/>
      <point x="556.0" y="1030.0"/>
      <point x="620.0" y="1024.0"/>
      <point x="686.0" y="1006.0" type="curve"/>
      <point x="686.0" y="1074.0" type="line"/>
      <point x="628.0" y="1090.0"/>
      <point x="566.0" y="1096.0"/>
      <point x="516.0" y="1096.0" type="curve" smooth="yes"/>
      <point x="236.0" y="1096.0"/>
      <point x="88.0" y="954.0"/>
      <point x="88.0" y="540.0" type="curve" smooth="yes"/>
      <point x="88.0" y="126.0"/>
      <point x="224.0" y="-18.0"/>
    </contour>
    <contour>
      <point x="436.0" y="-240.0" type="line"/>
      <point x="500.0" y="-240.0" type="line"/>
      <point x="500.0" y="0.0" type="line"/>
      <point x="436.0" y="0.0" type="line"/>
    </contour>
    <contour>
      <point x="436.0" y="1080.0" type="line"/>
      <point x="500.0" y="1080.0" type="line"/>
      <point x="500.0" y="1320.0" type="line"/>
      <point x="436.0" y="1320.0" type="line"/>
    </contour>
  </outline>
</glyph>
<glyph name="yen" format="2">
  <advance width="1036.0"/>
  <unicode hex="00A5"/>
  <outline>
    <contour>
      <point x="484.0" y="0.0" type="line"/>
      <point x="552.0" y="0.0" type="line"/>
      <point x="552.0" y="708.0" type="line"/>
      <point x="536.0" y="652.0" type="line"/>
      <point x="1026.0" y="1480.0" type="line"/>
      <point x="950.0" y="1480.0" type="line"/>
      <point x="504.0" y="724.0" type="line"/>
      <point x="532.0" y="724.0" type="line"/>
      <point x="88.0" y="1480.0" type="line"/>
      <point x="10.0" y="1480.0" type="line"/>
      <point x="500.0" y="652.0" type="line"/>
      <point x="484.0" y="708.0" type="line"/>
    </contour>
    <contour>
      <point x="184.0" y="320.0" type="line"/>
      <point x="852.0" y="320.0" type="line"/>
      <point x="852.0" y="384.0" type="line"/>
      <point x="184.0" y="384.0" type="line"/>
    </contour>
    <contour>
      <point x="184.0" y="664.0" type="line"/>
      <point x="852.0" y="664.0" type="line"/>
      <point x="852.0" y="728.0" type="line"/>
      <point x="184.0" y="728.0" type="line"/>
    </contour>
  </outline>
</glyph>
<glyph name="brokenbar" format="2">
  <advance width="396.0"/>
  <unicode hex="00A6"/>
  <outline>
    <contour>
      <point x="164.0" y="836.0" type="line"/>
      <point x="232.0" y="836.0" type="line"/>
      <point x="232.0" y="1616.0" type="line"/>
      <point x="164.0" y="1616.0" type="line"/>
    </contour>
    <contour>
      <point x="164.0" y="-440.0" type="line"/>
      <point x="232.0" y="-440.0" type="line"/>
      <point x="232.0" y="340.0" type="line"/>
      <point x="164.0" y="340.0" type="line"/>
    </contour>
  </outline>
</glyph>
<glyph name="copyright" format="2">
  <advance width="1684.0"/>
  <unicode hex="00A9"/>
  <outline>
    <contour>
      <point x="842.0" y="-22.0" type="curve" smooth="yes"/>
      <point x="1288.0" y="-22.0"/>
      <point x="1586.0" y="282.0"/>
      <point x="1586.0" y="740.0" type="curve" smooth="yes"/>
      <point x="1586.0" y="1198.0"/>
      <point x="1288.0" y="1502.0"/>
      <point x="842.0" y="1502.0" type="curve" smooth="yes"/>
      <point x="396.0" y="1502.0"/>
      <point x="98.0" y="1198.0"/>
      <point x="98.0" y="740.0" type="curve" smooth="yes"/>
      <point x="98.0" y="282.0"/>
      <point x="396.0" y="-22.0"/>
    </contour>
    <contour>
      <point x="876.0" y="324.0" type="curve" smooth="yes"/>
      <point x="954.0" y="324.0"/>
      <point x="1026.0" y="336.0"/>
      <point x="1094.0" y="366.0" type="curve"/>
      <point x="1094.0" y="432.0" type="line"/>
      <point x="1012.0" y="400.0"/>
      <point x="940.0" y="390.0"/>
      <point x="882.0" y="390.0" type="curve" smooth="yes"/>
      <point x="686.0" y="390.0"/>
      <point x="564.0" y="500.0"/>
      <point x="564.0" y="738.0" type="curve" smooth="yes"/>
      <point x="564.0" y="970.0"/>
      <point x="686.0" y="1078.0"/>
      <point x="904.0" y="1078.0" type="curve" smooth="yes"/>
      <point x="974.0" y="1078.0"/>
      <point x="1032.0" y="1068.0"/>
      <point x="1094.0" y="1050.0" type="curve"/>
      <point x="1094.0" y="1116.0" type="line"/>
      <point x="1030.0" y="1136.0"/>
      <point x="970.0" y="1144.0"/>
      <point x="902.0" y="1144.0" type="curve" smooth="yes"/>
      <point x="638.0" y="1144.0"/>
      <point x="492.0" y="996.0"/>
      <point x="492.0" y="734.0" type="curve" smooth="yes"/>
      <point x="492.0" y="462.0"/>
      <point x="646.0" y="324.0"/>
    </contour>
    <contour>
      <point x="842.0" y="46.0" type="curve" smooth="yes"/>
      <point x="436.0" y="46.0"/>
      <point x="166.0" y="322.0"/>
      <point x="166.0" y="740.0" type="curve" smooth="yes"/>
      <point x="166.0" y="1158.0"/>
      <point x="436.0" y="1434.0"/>
      <point x="842.0" y="1434.0" type="curve" smooth="yes"/>
      <point x="1248.0" y="1434.0"/>
      <point x="1518.0" y="1158.0"/>
      <point x="1518.0" y="740.0" type="curve" smooth="yes"/>
      <point x="1518.0" y="322.0"/>
      <point x="1248.0" y="46.0"/>
    </contour>
  </outline>
</glyph>
<glyph name="guillemetleft" format="2">
  <advance width="706.0"/>
  <unicode hex="00AB"/>
  <outline>
    <contour>
      <point x="298.0" y="140.0" type="line"/>
      <point x="366.0" y="140.0" type="line"/>
      <point x="178.0" y="560.0" type="line"/>
      <point x="366.0" y="980.0" type="line"/>
      <point x="298.0" y="980.0" type="line"/>
      <point x="110.0" y="560.0" type="line"/>
    </contour>
    <contour>
      <point x="568.0" y="140.0" type="line"/>
      <point x="636.0" y="140.0" type="line"/>
      <point x="448.0" y="560.0" type="line"/>
      <point x="636.0" y="980.0" type="line"/>
      <point x="568.0" y="980.0" type="line"/>
      <point x="380.0" y="560.0" type="line"/>
    </contour>
  </outline>
</glyph>
<glyph name="logicalnot" format="2">
  <advance width="1240.0"/>
  <unicode hex="00AC"/>
  <outline>
    <contour>
      <point x="1038.0" y="192.0" type="line"/>
      <point x="1106.0" y="192.0" type="line"/>
      <point x="1106.0" y="792.0" type="line"/>
      <point x="144.0" y="792.0" type="line"/>
      <point x="144.0" y="728.0" type="line"/>
      <point x="1038.0" y="728.0" type="line"/>
    </contour>
  </outline>
</glyph>
<glyph name="plusminus" format="2">
  <advance width="1016.0"/>
  <unicode hex="00B1"/>
  <outline>
    <contour>
      <point x="474.0" y="316.0" type="line"/>
      <point x="542.0" y="316.0" type="line"/>
      <point x="542.0" y="666.0" type="line"/>
      <point x="872.0" y="666.0" type="line"/>
      <point x="872.0" y="730.0" type="line"/>
      <point x="542.0" y="730.0" type="line"/>
      <point x="542.0" y="1080.0" type="line"/>
      <point x="474.0" y="1080.0" type="line"/>
      <point x="474.0" y="730.0" type="line"/>
      <point x="144.0" y="730.0" type="line"/>
      <point x="144.0" y="666.0" type="line"/>
      <point x="474.0" y="666.0" type="line"/>
    </contour>
    <contour>
      <point x="144.0" y="0.0" type="line"/>
      <point x="872.0" y="0.0" type="line"/>
      <point x="872.0" y="64.0" type="line"/>
      <point x="144.0" y="64.0" type="line"/>
    </contour>
  </outline>
</glyph>
<glyph name="twosuperior" format="2">
  <advance width="680.0"/>
  <unicode hex="00B2"/>
  <outline>
    <contour>
      <point x="92.0" y="-136.0" type="line"/>
      <point x="568.0" y="-136.0" type="line"/>
      <point x="568.0" y="-74.0" type="line"/>
      <point x="150.0" y="-74.0" type="line"/>
      <point x="164.0" y="-94.0" type="line"/>
      <point x="406.0" y="282.0" type="line" smooth="yes"/>
      <point x="502.0" y="432.0"/>
      <point x="540.0" y="526.0"/>
      <point x="542.0" y="626.0" type="curve" smooth="yes"/>
      <point x="544.0" y="804.0"/>
      <point x="438.0" y="876.0"/>
      <point x="272.0" y="876.0" type="curve" smooth="yes"/>
      <point x="200.0" y="876.0"/>
      <point x="130.0" y="864.0"/>
      <point x="80.0" y="840.0" type="curve"/>
      <point x="80.0" y="776.0" type="line"/>
      <point x="138.0" y="802.0"/>
      <point x="196.0" y="814.0"/>
      <point x="268.0" y="814.0" type="curve" smooth="yes"/>
      <point x="400.0" y="814.0"/>
      <point x="476.0" y="764.0"/>
      <point x="476.0" y="624.0" type="curve" smooth="yes"/>
      <point x="476.0" y="534.0"/>
      <point x="438.0" y="448.0"/>
      <point x="354.0" y="316.0" type="curve" smooth="yes"/>
      <point x="92.0" y="-96.0" type="line"/>
    </contour>
  </outline>
</glyph>
<glyph name="paragraph" format="2">
  <advance width="1054.0"/>
  <unicode hex="00B6"/>
  <outline>
    <contour>
      <point x="624.0" y="0.0" type="line"/>
      <point x="692.0" y="0.0" type="line"/>
      <point x="692.0" y="1480.0" type="line"/>
      <point x="626.0" y="1488.0"/>
      <point x="554.0" y="1494.0"/>
      <point x="476.0" y="1494.0" type="curve" smooth="yes"/>
      <point x="222.0" y="1494.0"/>
      <point x="92.0" y="1340.0"/>
      <point x="92.0" y="1004.0" type="curve" smooth="yes"/>
      <point x="92.0" y="686.0"/>
      <point x="222.0" y="518.0"/>
      <point x="508.0" y="518.0" type="curve" smooth="yes"/>
      <point x="550.0" y="518.0"/>
      <point x="582.0" y="520.0"/>
      <point x="624.0" y="524.0" type="curve"/>
    </contour>
    <contour>
      <point x="822.0" y="0.0" type="line"/>
      <point x="890.0" y="0.0" type="line"/>
      <point x="890.0" y="1480.0" type="line"/>
      <point x="822.0" y="1480.0" type="line"/>
    </contour>
  </outline>
</glyph>
<glyph name="periodcentered" format="2">
  <advance width="360.0"/>
  <unicode hex="00B7"/>
  <anchor x="180.0" y="560.0" name="_periodcentered"/>
  <outline>
    <contour>
      <point x="180.0" y="496.0" type="curve" smooth="yes"/>
      <point x="216.0" y="496.0"/>
      <point x="242.0" y="520.0"/>
      <point x="242.0" y="558.0" type="curve" smooth="yes"/>
      <point x="242.0" y="596.0"/>
      <point x="216.0" y="622.0"/>
      <point x="180.0" y="622.0" type="curve" smooth="yes"/>
      <point x="144.0" y="622.0"/>
      <point x="118.0" y="596.0"/>
      <point x="118.0" y="558.0" type="curve" smooth="yes"/>
      <point x="118.0" y="520.0"/>
      <point x="144.0" y="496.0"/>
    </contour>
  </outline>
</glyph>
<glyph name="cedilla" format="2">
  <advance width="800.0"/>
  <unicode hex="00B8"/>
  <anchor x="400.0" y="0.0" name="_bottom"/>
  <outline>
    <contour>
      <point x="396.0" y="-400.0" type="curve" smooth="yes"/>
      <point x="502.0" y="-400.0"/>
      <point x="562.0" y="-342.0"/>
      <point x="562.0" y="-258.0" type="curve" smooth="yes"/>
      <point x="562.0" y="-170.0"/>
      <point x="508.0" y="-114.0"/>
      <point x="400.0" y="-114.0" type="curve"/>
      <point x="430.0" y="-142.0" type="line"/>
      <point x="430.0" y="20.0" type="line"/>
      <point x="374.0" y="20.0" type="line"/>
      <point x="374.0" y="-164.0" type="line"/>
      <point x="400.0" y="-164.0" type="line" smooth="yes"/>
      <point x="470.0" y="-164.0"/>
      <point x="508.0" y="-194.0"/>
      <point x="508.0" y="-258.0" type="curve" smooth="yes"/>
      <point x="508.0" y="-316.0"/>
      <point x="474.0" y="-348.0"/>
      <point x="402.0" y="-348.0" type="curve" smooth="yes"/>
      <point x="356.0" y="-348.0"/>
      <point x="306.0" y="-340.0"/>
      <point x="252.0" y="-310.0" type="curve"/>
      <point x="252.0" y="-366.0" type="line"/>
      <point x="290.0" y="-388.0"/>
      <point x="348.0" y="-400.0"/>
    </contour>
  </outline>
</glyph>
<glyph name="onesuperior" format="2">
  <advance width="680.0"/>
  <unicode hex="00B9"/>
  <outline>
    <contour>
      <point x="348.0" y="-116.0" type="line"/>
      <point x="412.0" y="-116.0" type="line"/>
      <point x="412.0" y="868.0" type="line"/>
      <point x="374.0" y="868.0" type="line"/>
      <point x="132.0" y="682.0" type="line"/>
      <point x="132.0" y="612.0" type="line"/>
      <point x="374.0" y="798.0" type="line"/>
      <point x="348.0" y="806.0" type="line"/>
    </contour>
    <contour>
      <point x="142.0" y="-136.0" type="line"/>
      <point x="608.0" y="-136.0" type="line"/>
      <point x="608.0" y="-74.0" type="line"/>
      <point x="142.0" y="-74.0" type="line"/>
    </contour>
  </outline>
</glyph>
<glyph name="ordmasculine" format="2">
  <advance width="764.0"/>
  <unicode hex="00BA"/>
  <outline>
    <contour>
      <point x="382.0" y="596.0" type="curve" smooth="yes"/>
      <point x="570.0" y="596.0"/>
      <point x="696.0" y="720.0"/>
      <point x="696.0" y="1046.0" type="curve" smooth="yes"/>
      <point x="696.0" y="1372.0"/>
      <point x="570.0" y="1492.0"/>
      <point x="382.0" y="1492.0" type="curve" smooth="yes"/>
      <point x="194.0" y="1492.0"/>
      <point x="68.0" y="1372.0"/>
      <point x="68.0" y="1046.0" type="curve" smooth="yes"/>
      <point x="68.0" y="720.0"/>
      <point x="194.0" y="596.0"/>
    </contour>
    <contour>
      <point x="382.0" y="658.0" type="curve" smooth="yes"/>
      <point x="232.0" y="658.0"/>
      <point x="136.0" y="746.0"/>
      <point x="136.0" y="1046.0" type="curve" smooth="yes"/>
      <point x="136.0" y="1346.0"/>
      <point x="232.0" y="1430.0"/>
      <point x="382.0" y="1430.0" type="curve" smooth="yes"/>
      <point x="532.0" y="1430.0"/>
      <point x="628.0" y="1346.0"/>
      <point x="628.0" y="1046.0" type="curve" smooth="yes"/>
      <point x="628.0" y="746.0"/>
      <point x="532.0" y="658.0"/>
    </contour>
  </outline>
</glyph>
<glyph name="onehalf" format="2">
  <advance width="1544.0"/>
  <unicode hex="00BD"/>
  <outline>
    <contour>
      <point x="348.0" y="636.0" type="line"/>
      <point x="412.0" y="636.0" type="line"/>
      <point x="412.0" y="1620.0" type="line"/>
      <point x="374.0" y="1620.0" type="line"/>
      <point x="132.0" y="1434.0" type="line"/>
      <point x="132.0" y="1364.0" type="line"/>
      <point x="374.0" y="1550.0" type="line"/>
      <point x="348.0" y="1558.0" type="line"/>
    </contour>
    <contour>
      <point x="142.0" y="616.0" type="line"/>
      <point x="608.0" y="616.0" type="line"/>
      <point x="608.0" y="678.0" type="line"/>
      <point x="142.0" y="678.0" type="line"/>
    </contour>
    <contour>
      <point x="380.0" y="-136.0" type="line"/>
      <point x="446.0" y="-136.0" type="line"/>
      <point x="1164.0" y="1616.0" type="line"/>
      <point x="1098.0" y="1616.0" type="line"/>
    </contour>
    <contour>
      <point x="956.0" y="-136.0" type="line"/>
      <point x="1432.0" y="-136.0" type="line"/>
      <point x="1432.0" y="-74.0" type="line"/>
      <point x="1014.0" y="-74.0" type="line"/>
      <point x="1028.0" y="-94.0" type="line"/>
      <point x="1270.0" y="282.0" type="line" smooth="yes"/>
      <point x="1366.0" y="432.0"/>
      <point x="1404.0" y="526.0"/>
      <point x="1406.0" y="626.0" type="curve" smooth="yes"/>
      <point x="1408.0" y="804.0"/>
      <point x="1302.0" y="876.0"/>
      <point x="1136.0" y="876.0" type="curve" smooth="yes"/>
      <point x="1064.0" y="876.0"/>
      <point x="994.0" y="864.0"/>
      <point x="944.0" y="840.0" type="curve"/>
      <point x="944.0" y="776.0" type="line"/>
      <point x="1002.0" y="802.0"/>
      <point x="1060.0" y="814.0"/>
      <point x="1132.0" y="814.0" type="curve" smooth="yes"/>
      <point x="1264.0" y="814.0"/>
      <point x="1340.0" y="764.0"/>
      <point x="1340.0" y="624.0" type="curve" smooth="yes"/>
      <point x="1340.0" y="534.0"/>
      <point x="1302.0" y="448.0"/>
      <point x="1218.0" y="316.0" type="curve" smooth="yes"/>
      <point x="956.0" y="-96.0" type="line"/>
    </contour>
  </outline>
</glyph>
<glyph name="threequarters" format="2">
  <advance width="1544.0"/>
  <unicode hex="00BE"/>
  <outline>
    <contour>
      <point x="286.0" y="604.0" type="curve" smooth="yes"/>
      <point x="476.0" y="604.0"/>
      <point x="596.0" y="700.0"/>
      <point x="596.0" y="876.0" type="curve" smooth="yes"/>
      <point x="596.0" y="1024.0"/>
      <point x="508.0" y="1120.0"/>
      <point x="342.0" y="1144.0" type="curve"/>
      <point x="342.0" y="1130.0" type="line"/>
      <point x="484.0" y="1160.0"/>
      <point x="564.0" y="1254.0"/>
      <point x="564.0" y="1382.0" type="curve" smooth="yes"/>
      <point x="564.0" y="1542.0"/>
      <point x="466.0" y="1628.0"/>
      <point x="284.0" y="1628.0" type="curve" smooth="yes"/>
      <point x="216.0" y="1628.0"/>
      <point x="140.0" y="1616.0"/>
      <point x="92.0" y="1592.0" type="curve"/>
      <point x="92.0" y="1528.0" type="line"/>
      <point x="152.0" y="1554.0"/>
      <point x="212.0" y="1566.0"/>
      <point x="282.0" y="1566.0" type="curve" smooth="yes"/>
      <point x="426.0" y="1566.0"/>
      <point x="500.0" y="1506.0"/>
      <point x="500.0" y="1380.0" type="curve" smooth="yes"/>
      <point x="500.0" y="1248.0"/>
      <point x="402.0" y="1162.0"/>
      <point x="218.0" y="1162.0" type="curve" smooth="yes"/>
      <point x="184.0" y="1162.0" type="line"/>
      <point x="184.0" y="1098.0" type="line"/>
      <point x="262.0" y="1098.0" type="line" smooth="yes"/>
      <point x="448.0" y="1098.0"/>
      <point x="532.0" y="1012.0"/>
      <point x="532.0" y="878.0" type="curve" smooth="yes"/>
      <point x="532.0" y="736.0"/>
      <point x="436.0" y="666.0"/>
      <point x="284.0" y="666.0" type="curve" smooth="yes"/>
      <point x="216.0" y="666.0"/>
      <point x="142.0" y="678.0"/>
      <point x="74.0" y="704.0" type="curve"/>
      <point x="74.0" y="640.0" type="line"/>
      <point x="138.0" y="616.0"/>
      <point x="208.0" y="604.0"/>
    </contour>
    <contour>
      <point x="380.0" y="-136.0" type="line"/>
      <point x="446.0" y="-136.0" type="line"/>
      <point x="1164.0" y="1616.0" type="line"/>
      <point x="1098.0" y="1616.0" type="line"/>
    </contour>
    <contour>
      <point x="898.0" y="116.0" type="line"/>
      <point x="1514.0" y="116.0" type="line"/>
      <point x="1514.0" y="176.0" type="line"/>
      <point x="952.0" y="176.0" type="line"/>
      <point x="966.0" y="156.0" type="line"/>
      <point x="1310.0" y="864.0" type="line"/>
      <point x="1242.0" y="864.0" type="line"/>
      <point x="898.0" y="156.0" type="line"/>
    </contour>
    <contour>
      <point x="1320.0" y="-136.0" type="line"/>
      <point x="1382.0" y="-136.0" type="line"/>
      <point x="1382.0" y="526.0" type="line"/>
      <point x="1332.0" y="526.0" type="line"/>
      <point x="1320.0" y="176.0" type="line"/>
    </contour>
  </outline>
</glyph>
<glyph name="questiondown" format="2">
  <advance width="760.0"/>
  <unicode hex="00BF"/>
  <outline>
    <contour>
      <point x="454.0" y="780.0" type="line"/>
      <point x="406.0" y="780.0" type="line"/>
      <point x="396.0" y="386.0" type="line"/>
      <point x="142.0" y="266.0"/>
      <point x="60.0" y="142.0"/>
      <point x="60.0" y="-50.0" type="curve" smooth="yes"/>
      <point x="60.0" y="-272.0"/>
      <point x="196.0" y="-400.0"/>
      <point x="450.0" y="-400.0" type="curve" smooth="yes"/>
      <point x="546.0" y="-400.0"/>
      <point x="652.0" y="-380.0"/>
      <point x="720.0" y="-346.0" type="curve"/>
      <point x="720.0" y="-278.0" type="line"/>
      <point x="634.0" y="-316.0"/>
      <point x="550.0" y="-334.0"/>
      <point x="450.0" y="-334.0" type="curve" smooth="yes"/>
      <point x="238.0" y="-334.0"/>
      <point x="130.0" y="-238.0"/>
      <point x="130.0" y="-52.0" type="curve" smooth="yes"/>
      <point x="130.0" y="124.0"/>
      <point x="216.0" y="242.0"/>
      <point x="466.0" y="344.0" type="curve"/>
    </contour>
    <contour>
      <point x="430.0" y="1090.0" type="curve" smooth="yes"/>
      <point x="392.0" y="1090.0"/>
      <point x="368.0" y="1064.0"/>
      <point x="368.0" y="1028.0" type="curve" smooth="yes"/>
      <point x="368.0" y="990.0"/>
      <point x="394.0" y="964.0"/>
      <point x="430.0" y="964.0" type="curve" smooth="yes"/>
      <point x="466.0" y="964.0"/>
      <point x="492.0" y="990.0"/>
      <point x="492.0" y="1028.0" type="curve" smooth="yes"/>
      <point x="492.0" y="1064.0"/>
      <point x="466.0" y="1090.0"/>
    </contour>
  </outline>
</glyph>
<glyph name="Atilde" format="2">
  <advance width="1130.0"/>
  <unicode hex="00C3"/>
  <anchor x="566.0" y="1520.0" name="_top"/>
  <anchor x="566.0" y="0.0" name="bottom"/>
  <anchor x="1104.0" y="0.0" name="ogonek"/>
  <anchor x="566.0" y="1520.0" name="top"/>
  <outline>
    <contour>
      <point x="26.0" y="0.0" type="line"/>
      <point x="98.0" y="0.0" type="line"/>
      <point x="576.0" y="1440.0" type="line"/>
      <point x="552.0" y="1440.0" type="line"/>
      <point x="1030.0" y="0.0" type="line"/>
      <point x="1104.0" y="0.0" type="line"/>
      <point x="608.0" y="1480.0" type="line"/>
      <point x="522.0" y="1480.0" type="line"/>
    </contour>
    <contour>
      <point x="246.0" y="528.0" type="line"/>
      <point x="884.0" y="528.0" type="line"/>
      <point x="864.0" y="594.0" type="line"/>
      <point x="266.0" y="594.0" type="line"/>
    </contour>
    <contour>
      <point x="694.0" y="1696.0" type="curve" smooth="yes"/>
      <point x="752.0" y="1696.0"/>
      <point x="798.0" y="1720.0"/>
      <point x="828.0" y="1758.0" type="curve"/>
      <point x="828.0" y="1824.0" type="line"/>
      <point x="790.0" y="1776.0"/>
      <point x="750.0" y="1752.0"/>
      <point x="694.0" y="1752.0" type="curve" smooth="yes"/>
      <point x="612.0" y="1752.0"/>
      <point x="538.0" y="1830.0"/>
      <point x="438.0" y="1830.0" type="curve" smooth="yes"/>
      <point x="380.0" y="1830.0"/>
      <point x="334.0" y="1806.0"/>
      <point x="304.0" y="1768.0" type="curve"/>
      <point x="304.0" y="1702.0" type="line"/>
      <point x="342.0" y="1750.0"/>
      <point x="382.0" y="1774.0"/>
      <point x="438.0" y="1774.0" type="curve" smooth="yes"/>
      <point x="520.0" y="1774.0"/>
      <point x="594.0" y="1696.0"/>
    </contour>
  </outline>
</glyph>
<glyph name="Adieresis" format="2">
  <advance width="1130.0"/>
  <unicode hex="00C4"/>
  <anchor x="566.0" y="1520.0" name="_top"/>
  <anchor x="566.0" y="0.0" name="bottom"/>
  <anchor x="1104.0" y="0.0" name="ogonek"/>
  <anchor x="566.0" y="1520.0" name="top"/>
  <outline>
    <contour>
      <point x="26.0" y="0.0" type="line"/>
      <point x="98.0" y="0.0" type="line"/>
      <point x="576.0" y="1440.0" type="line"/>
      <point x="552.0" y="1440.0" type="line"/>
      <point x="1030.0" y="0.0" type="line"/>
      <point x="1104.0" y="0.0" type="line"/>
      <point x="608.0" y="1480.0" type="line"/>
      <point x="522.0" y="1480.0" type="line"/>
    </contour>
    <contour>
      <point x="246.0" y="528.0" type="line"/>
      <point x="884.0" y="528.0" type="line"/>
      <point x="864.0" y="594.0" type="line"/>
      <point x="266.0" y="594.0" type="line"/>
    </contour>
    <contour>
      <point x="746.0" y="1690.0" type="curve" smooth="yes"/>
      <point x="782.0" y="1690.0"/>
      <point x="808.0" y="1714.0"/>
      <point x="808.0" y="1752.0" type="curve" smooth="yes"/>
      <point x="808.0" y="1790.0"/>
      <point x="782.0" y="1816.0"/>
      <point x="746.0" y="1816.0" type="curve" smooth="yes"/>
      <point x="710.0" y="1816.0"/>
      <point x="684.0" y="1790.0"/>
      <point x="684.0" y="1752.0" type="curve" smooth="yes"/>
      <point x="684.0" y="1714.0"/>
      <point x="710.0" y="1690.0"/>
    </contour>
    <contour>
      <point x="386.0" y="1690.0" type="curve" smooth="yes"/>
      <point x="422.0" y="1690.0"/>
      <point x="448.0" y="1714.0"/>
      <point x="448.0" y="1752.0" type="curve" smooth="yes"/>
      <point x="448.0" y="1790.0"/>
      <point x="422.0" y="1816.0"/>
      <point x="386.0" y="1816.0" type="curve" smooth="yes"/>
      <point x="350.0" y="1816.0"/>
      <point x="324.0" y="1790.0"/>
      <point x="324.0" y="1752.0" type="curve" smooth="yes"/>
      <point x="324.0" y="1714.0"/>
      <point x="350.0" y="1690.0"/>
    </contour>
  </outline>
</glyph>
<glyph name="Ccedilla" format="2">
  <advance width="930.0"/>
  <unicode hex="00C7"/>
  <anchor x="598.0" y="0.0" name="_bottom"/>
  <anchor x="598.0" y="0.0" name="bottom"/>
  <anchor x="588.0" y="1520.0" name="top"/>
  <outline>
    <contour>
      <point x="634.0" y="-18.0" type="curve" smooth="yes"/>
      <point x="740.0" y="-18.0"/>
      <point x="834.0" y="4.0"/>
      <point x="912.0" y="32.0" type="curve"/>
      <point x="912.0" y="100.0" type="line"/>
      <point x="810.0" y="64.0"/>
      <point x="728.0" y="48.0"/>
      <point x="632.0" y="48.0" type="curve" smooth="yes"/>
      <point x="346.0" y="48.0"/>
      <point x="170.0" y="200.0"/>
      <point x="170.0" y="742.0" type="curve" smooth="yes"/>
      <point x="170.0" y="1270.0"/>
      <point x="338.0" y="1432.0"/>
      <point x="640.0" y="1432.0" type="curve" smooth="yes"/>
      <point x="730.0" y="1432.0"/>
      <point x="812.0" y="1424.0"/>
      <point x="912.0" y="1390.0" type="curve"/>
      <point x="912.0" y="1458.0" type="line"/>
      <point x="826.0" y="1484.0"/>
      <point x="734.0" y="1498.0"/>
      <point x="648.0" y="1498.0" type="curve" smooth="yes"/>
      <point x="300.0" y="1498.0"/>
      <point x="98.0" y="1304.0"/>
      <point x="98.0" y="738.0" type="curve" smooth="yes"/>
      <point x="98.0" y="164.0"/>
      <point x="306.0" y="-18.0"/>
    </contour>
    <contour>
      <point x="610.0" y="-400.0" type="curve" smooth="yes"/>
      <point x="712.0" y="-400.0"/>
      <point x="786.0" y="-350.0"/>
      <point x="786.0" y="-256.0" type="curve" smooth="yes"/>
      <point x="786.0" y="-162.0"/>
      <point x="712.0" y="-112.0"/>
      <point x="610.0" y="-112.0" type="curve"/>
      <point x="626.0" y="-142.0" type="line"/>
      <point x="626.0" y="20.0" type="line"/>
      <point x="570.0" y="20.0" type="line"/>
      <point x="570.0" y="-164.0" type="line"/>
      <point x="608.0" y="-164.0" type="line" smooth="yes"/>
      <point x="682.0" y="-164.0"/>
      <point x="730.0" y="-192.0"/>
      <point x="730.0" y="-256.0" type="curve" smooth="yes"/>
      <point x="730.0" y="-320.0"/>
      <point x="682.0" y="-348.0"/>
      <point x="610.0" y="-348.0" type="curve" smooth="yes"/>
      <point x="558.0" y="-348.0"/>
      <point x="508.0" y="-338.0"/>
      <point x="438.0" y="-306.0" type="curve"/>
      <point x="438.0" y="-362.0" type="line"/>
      <point x="492.0" y="-388.0"/>
      <point x="554.0" y="-400.0"/>
    </contour>
  </outline>
</glyph>
<glyph name="Edieresis" format="2">
  <advance width="946.0"/>
  <unicode hex="00CB"/>
  <anchor x="556.0" y="1520.0" name="_top"/>
  <anchor x="556.0" y="0.0" name="bottom"/>
  <anchor x="832.0" y="0.0" name="ogonek"/>
  <anchor x="556.0" y="1520.0" name="top"/>
  <anchor x="36.0" y="1480.0" name="topleft"/>
  <outline>
    <contour>
      <point x="164.0" y="0.0" type="line"/>
      <point x="912.0" y="0.0" type="line"/>
      <point x="912.0" y="66.0" type="line"/>
      <point x="232.0" y="66.0" type="line"/>
      <point x="232.0" y="1414.0" type="line"/>
      <point x="902.0" y="1414.0" type="line"/>
      <point x="902.0" y="1480.0" type="line"/>
      <point x="164.0" y="1480.0" type="line"/>
    </contour>
    <contour>
      <point x="224.0" y="728.0" type="line"/>
      <point x="812.0" y="728.0" type="line"/>
      <point x="812.0" y="794.0" type="line"/>
      <point x="224.0" y="794.0" type="line"/>
    </contour>
    <contour>
      <point x="736.0" y="1690.0" type="curve" smooth="yes"/>
      <point x="772.0" y="1690.0"/>
      <point x="798.0" y="1714.0"/>
      <point x="798.0" y="1752.0" type="curve" smooth="yes"/>
      <point x="798.0" y="1790.0"/>
      <point x="772.0" y="1816.0"/>
      <point x="736.0" y="1816.0" type="curve" smooth="yes"/>
      <point x="700.0" y="1816.0"/>
      <point x="674.0" y="1790.0"/>
      <point x="674.0" y="1752.0" type="curve" smooth="yes"/>
      <point x="674.0" y="1714.0"/>
      <point x="700.0" y="1690.0"/>
    </contour>
    <contour>
      <point x="376.0" y="1690.0" type="curve" smooth="yes"/>
      <point x="412.0" y="1690.0"/>
      <point x="438.0" y="1714.0"/>
      <point x="438.0" y="1752.0" type="curve" smooth="yes"/>
      <point x="438.0" y="1790.0"/>
      <point x="412.0" y="1816.0"/>
      <point x="376.0" y="1816.0" type="curve" smooth="yes"/>
      <point x="340.0" y="1816.0"/>
      <point x="314.0" y="1790.0"/>
      <point x="314.0" y="1752.0" type="curve" smooth="yes"/>
      <point x="314.0" y="1714.0"/>
      <point x="340.0" y="1690.0"/>
    </contour>
  </outline>
</glyph>
<glyph name="Idieresis" format="2">
  <advance width="396.0"/>
  <unicode hex="00CF"/>
  <anchor x="198.0" y="1520.0" name="_top"/>
  <anchor x="198.0" y="0.0" name="bottom"/>
  <anchor x="232.0" y="0.0" name="ogonek"/>
  <anchor x="198.0" y="1520.0" name="top"/>
  <outline>
    <contour>
      <point x="164.0" y="0.0" type="line"/>
      <point x="232.0" y="0.0" type="line"/>
      <point x="232.0" y="1480.0" type="line"/>
      <point x="164.0" y="1480.0" type="line"/>
    </contour>
    <contour>
      <point x="378.0" y="1690.0" type="curve" smooth="yes"/>
      <point x="414.0" y="1690.0"/>
      <point x="440.0" y="1714.0"/>
      <point x="440.0" y="1752.0" type="curve" smooth="yes"/>
      <point x="440.0" y="1790.0"/>
      <point x="414.0" y="1816.0"/>
      <point x="378.0" y="1816.0" type="curve" smooth="yes"/>
      <point x="342.0" y="1816.0"/>
      <point x="316.0" y="1790.0"/>
      <point x="316.0" y="1752.0" type="curve" smooth="yes"/>
      <point x="316.0" y="1714.0"/>
      <point x="342.0" y="1690.0"/>
    </contour>
    <contour>
      <point x="18.0" y="1690.0" type="curve" smooth="yes"/>
      <point x="54.0" y="1690.0"/>
      <point x="80.0" y="1714.0"/>
      <point x="80.0" y="1752.0" type="curve" smooth="yes"/>
      <point x="80.0" y="1790.0"/>
      <point x="54.0" y="1816.0"/>
      <point x="18.0" y="1816.0" type="curve" smooth="yes"/>
      <point x="-18.0" y="1816.0"/>
      <point x="-44.0" y="1790.0"/>
      <point x="-44.0" y="1752.0" type="curve" smooth="yes"/>
      <point x="-44.0" y="1714.0"/>
      <point x="-18.0" y="1690.0"/>
    </contour>
  </outline>
</glyph>
<glyph name="Eth" format="2">
  <advance width="1156.0"/>
  <unicode hex="00D0"/>
  <anchor x="164.0" y="762.0" name="_stroke"/>
  <anchor x="516.0" y="0.0" name="bottom"/>
  <anchor x="578.0" y="740.0" name="center"/>
  <anchor x="164.0" y="762.0" name="stroke"/>
  <anchor x="516.0" y="1520.0" name="top"/>
  <outline>
    <contour>
      <point x="414.0" y="-10.0" type="curve" smooth="yes"/>
      <point x="834.0" y="-10.0"/>
      <point x="1058.0" y="206.0"/>
      <point x="1058.0" y="740.0" type="curve" smooth="yes"/>
      <point x="1058.0" y="1258.0"/>
      <point x="852.0" y="1494.0"/>
      <point x="442.0" y="1494.0" type="curve" smooth="yes"/>
      <point x="348.0" y="1494.0"/>
      <point x="250.0" y="1482.0"/>
      <point x="164.0" y="1468.0" type="curve"/>
      <point x="164.0" y="4.0" type="line"/>
      <point x="268.0" y="-6.0"/>
      <point x="338.0" y="-10.0"/>
    </contour>
    <contour>
      <point x="416.0" y="56.0" type="curve" smooth="yes"/>
      <point x="354.0" y="56.0"/>
      <point x="298.0" y="58.0"/>
      <point x="232.0" y="66.0" type="curve"/>
      <point x="232.0" y="1412.0" type="line"/>
      <point x="302.0" y="1422.0"/>
      <point x="374.0" y="1428.0"/>
      <point x="438.0" y="1428.0" type="curve" smooth="yes"/>
      <point x="816.0" y="1428.0"/>
      <point x="986.0" y="1224.0"/>
      <point x="986.0" y="740.0" type="curve" smooth="yes"/>
      <point x="986.0" y="246.0"/>
      <point x="798.0" y="56.0"/>
    </contour>
    <contour>
      <point x="-4.0" y="732.0" type="line"/>
      <point x="532.0" y="732.0" type="line"/>
      <point x="532.0" y="792.0" type="line"/>
      <point x="-4.0" y="792.0" type="line"/>
    </contour>
  </outline>
</glyph>
<glyph name="Ntilde" format="2">
  <advance width="1248.0"/>
  <unicode hex="00D1"/>
  <anchor x="624.0" y="1520.0" name="_top"/>
  <anchor x="624.0" y="0.0" name="bottom"/>
  <anchor x="624.0" y="1520.0" name="top"/>
  <outline>
    <contour>
      <point x="164.0" y="0.0" type="line"/>
      <point x="230.0" y="0.0" type="line"/>
      <point x="230.0" y="1420.0" type="line"/>
      <point x="198.0" y="1420.0" type="line"/>
      <point x="1008.0" y="0.0" type="line"/>
      <point x="1084.0" y="0.0" type="line"/>
      <point x="1084.0" y="1480.0" type="line"/>
      <point x="1018.0" y="1480.0" type="line"/>
      <point x="1018.0" y="60.0" type="line"/>
      <point x="1050.0" y="60.0" type="line"/>
      <point x="240.0" y="1480.0" type="line"/>
      <point x="164.0" y="1480.0" type="line"/>
    </contour>
    <contour>
      <point x="752.0" y="1696.0" type="curve" smooth="yes"/>
      <point x="810.0" y="1696.0"/>
      <point x="856.0" y="1720.0"/>
      <point x="886.0" y="1758.0" type="curve"/>
      <point x="886.0" y="1824.0" type="line"/>
      <point x="848.0" y="1776.0"/>
      <point x="808.0" y="1752.0"/>
      <point x="752.0" y="1752.0" type="curve" smooth="yes"/>
      <point x="670.0" y="1752.0"/>
      <point x="596.0" y="1830.0"/>
      <point x="496.0" y="1830.0" type="curve" smooth="yes"/>
      <point x="438.0" y="1830.0"/>
      <point x="392.0" y="1806.0"/>
      <point x="362.0" y="1768.0" type="curve"/>
      <point x="362.0" y="1702.0" type="line"/>
      <point x="400.0" y="1750.0"/>
      <point x="440.0" y="1774.0"/>
      <point x="496.0" y="1774.0" type="curve" smooth="yes"/>
      <point x="578.0" y="1774.0"/>
      <point x="652.0" y="1696.0"/>
    </contour>
  </outline>
</glyph>
<glyph name="Odieresis" format="2">
  <advance width="1164.0"/>
  <unicode hex="00D6"/>
  <anchor x="582.0" y="1520.0" name="_top"/>
  <anchor x="582.0" y="0.0" name="bottom"/>
  <anchor x="582.0" y="740.0" name="center"/>
  <anchor x="722.0" y="0.0" name="ogonek"/>
  <anchor x="582.0" y="1520.0" name="top"/>
  <anchor x="38.0" y="1480.0" name="topleft"/>
  <anchor x="722.0" y="1480.0" name="topright"/>
  <outline>
    <contour>
      <point x="582.0" y="-18.0" type="curve" smooth="yes"/>
      <point x="878.0" y="-18.0"/>
      <point x="1066.0" y="182.0"/>
      <point x="1066.0" y="740.0" type="curve" smooth="yes"/>
      <point x="1066.0" y="1298.0"/>
      <point x="878.0" y="1498.0"/>
      <point x="582.0" y="1498.0" type="curve" smooth="yes"/>
      <point x="286.0" y="1498.0"/>
      <point x="98.0" y="1298.0"/>
      <point x="98.0" y="740.0" type="curve" smooth="yes"/>
      <point x="98.0" y="182.0"/>
      <point x="286.0" y="-18.0"/>
    </contour>
    <contour>
      <point x="582.0" y="48.0" type="curve" smooth="yes"/>
      <point x="334.0" y="48.0"/>
      <point x="170.0" y="206.0"/>
      <point x="170.0" y="744.0" type="curve" smooth="yes"/>
      <point x="170.0" y="1274.0"/>
      <point x="334.0" y="1432.0"/>
      <point x="582.0" y="1432.0" type="curve" smooth="yes"/>
      <point x="830.0" y="1432.0"/>
      <point x="994.0" y="1274.0"/>
      <point x="994.0" y="736.0" type="curve" smooth="yes"/>
      <point x="994.0" y="206.0"/>
      <point x="830.0" y="48.0"/>
    </contour>
    <contour>
      <point x="762.0" y="1690.0" type="curve" smooth="yes"/>
      <point x="798.0" y="1690.0"/>
      <point x="824.0" y="1714.0"/>
      <point x="824.0" y="1752.0" type="curve" smooth="yes"/>
      <point x="824.0" y="1790.0"/>
      <point x="798.0" y="1816.0"/>
      <point x="762.0" y="1816.0" type="curve" smooth="yes"/>
      <point x="726.0" y="1816.0"/>
      <point x="700.0" y="1790.0"/>
      <point x="700.0" y="1752.0" type="curve" smooth="yes"/>
      <point x="700.0" y="1714.0"/>
      <point x="726.0" y="1690.0"/>
    </contour>
    <contour>
      <point x="402.0" y="1690.0" type="curve" smooth="yes"/>
      <point x="438.0" y="1690.0"/>
      <point x="464.0" y="1714.0"/>
      <point x="464.0" y="1752.0" type="curve" smooth="yes"/>
      <point x="464.0" y="1790.0"/>
      <point x="438.0" y="1816.0"/>
      <point x="402.0" y="1816.0" type="curve" smooth="yes"/>
      <point x="366.0" y="1816.0"/>
      <point x="340.0" y="1790.0"/>
      <point x="340.0" y="1752.0" type="curve" smooth="yes"/>
      <point x="340.0" y="1714.0"/>
      <point x="366.0" y="1690.0"/>
    </contour>
  </outline>
</glyph>
<glyph name="multiply" format="2">
  <advance width="948.0"/>
  <unicode hex="00D7"/>
  <outline>
    <contour>
      <point x="166.0" y="408.0" type="line"/>
      <point x="474.0" y="716.0" type="line"/>
      <point x="782.0" y="408.0" type="line"/>
      <point x="826.0" y="452.0" type="line"/>
      <point x="518.0" y="760.0" type="line"/>
      <point x="826.0" y="1068.0" type="line"/>
      <point x="782.0" y="1112.0" type="line"/>
      <point x="474.0" y="804.0" type="line"/>
      <point x="166.0" y="1112.0" type="line"/>
      <point x="122.0" y="1068.0" type="line"/>
      <point x="430.0" y="760.0" type="line"/>
      <point x="122.0" y="452.0" type="line"/>
    </contour>
  </outline>
</glyph>
<glyph name="Udieresis" format="2">
  <advance width="1198.0"/>
  <unicode hex="00DC"/>
  <anchor x="600.0" y="1520.0" name="_top"/>
  <anchor x="600.0" y="0.0" name="bottom"/>
  <anchor x="718.0" y="0.0" name="ogonek"/>
  <anchor x="600.0" y="1520.0" name="top"/>
  <anchor x="976.0" y="1480.0" name="topright"/>
  <outline>
    <contour>
      <point x="600.0" y="-18.0" type="curve" smooth="yes"/>
      <point x="912.0" y="-18.0"/>
      <point x="1042.0" y="146.0"/>
      <point x="1042.0" y="492.0" type="curve" smooth="yes"/>
      <point x="1042.0" y="1480.0" type="line"/>
      <point x="976.0" y="1480.0" type="line"/>
      <point x="976.0" y="482.0" type="line" smooth="yes"/>
      <point x="976.0" y="190.0"/>
      <point x="870.0" y="48.0"/>
      <point x="600.0" y="48.0" type="curve" smooth="yes"/>
      <point x="330.0" y="48.0"/>
      <point x="224.0" y="190.0"/>
      <point x="224.0" y="482.0" type="curve" smooth="yes"/>
      <point x="224.0" y="1480.0" type="line"/>
      <point x="156.0" y="1480.0" type="line"/>
      <point x="156.0" y="492.0" type="line" smooth="yes"/>
      <point x="156.0" y="146.0"/>
      <point x="288.0" y="-18.0"/>
    </contour>
    <contour>
      <point x="780.0" y="1690.0" type="curve" smooth="yes"/>
      <point x="816.0" y="1690.0"/>
      <point x="842.0" y="1714.0"/>
      <point x="842.0" y="1752.0" type="curve" smooth="yes"/>
      <point x="842.0" y="1790.0"/>
      <point x="816.0" y="1816.0"/>
      <point x="780.0" y="1816.0" type="curve" smooth="yes"/>
      <point x="744.0" y="1816.0"/>
      <point x="718.0" y="1790.0"/>
      <point x="718.0" y="1752.0" type="curve" smooth="yes"/>
      <point x="718.0" y="1714.0"/>
      <point x="744.0" y="1690.0"/>
    </contour>
    <contour>
      <point x="420.0" y="1690.0" type="curve" smooth="yes"/>
      <point x="456.0" y="1690.0"/>
      <point x="482.0" y="1714.0"/>
      <point x="482.0" y="1752.0" type="curve" smooth="yes"/>
      <point x="482.0" y="1790.0"/>
      <point x="456.0" y="1816.0"/>
      <point x="420.0" y="1816.0" type="curve" smooth="yes"/>
      <point x="384.0" y="1816.0"/>
      <point x="358.0" y="1790.0"/>
      <point x="358.0" y="1752.0" type="curve" smooth="yes"/>
      <point x="358.0" y="1714.0"/>
      <point x="384.0" y="1690.0"/>
    </contour>
  </outline>
</glyph>
<glyph name="Thorn" format="2">
  <advance width="1064.0"/>
  <unicode hex="00DE"/>
  <outline>
    <contour>
      <point x="164.0" y="0.0" type="line"/>
      <point x="232.0" y="0.0" type="line"/>
      <point x="232.0" y="280.0" type="line"/>
      <point x="290.0" y="274.0"/>
      <point x="346.0" y="272.0"/>
      <point x="408.0" y="272.0" type="curve" smooth="yes"/>
      <point x="790.0" y="272.0"/>
      <point x="962.0" y="440.0"/>
      <point x="962.0" y="758.0" type="curve" smooth="yes"/>
      <point x="962.0" y="1094.0"/>
      <point x="790.0" y="1248.0"/>
      <point x="450.0" y="1248.0" type="curve" smooth="yes"/>
      <point x="368.0" y="1248.0"/>
      <point x="284.0" y="1240.0"/>
      <point x="232.0" y="1232.0" type="curve"/>
      <point x="232.0" y="1480.0" type="line"/>
      <point x="164.0" y="1480.0" type="line"/>
    </contour>
    <contour>
      <point x="414.0" y="338.0" type="curve" smooth="yes"/>
      <point x="352.0" y="338.0"/>
      <point x="292.0" y="340.0"/>
      <point x="232.0" y="348.0" type="curve"/>
      <point x="232.0" y="1166.0" type="line"/>
      <point x="302.0" y="1176.0"/>
      <point x="374.0" y="1182.0"/>
      <point x="450.0" y="1182.0" type="curve" smooth="yes"/>
      <point x="750.0" y="1182.0"/>
      <point x="890.0" y="1054.0"/>
      <point x="890.0" y="754.0" type="curve" smooth="yes"/>
      <point x="890.0" y="472.0"/>
      <point x="740.0" y="338.0"/>
    </contour>
  </outline>
</glyph>
<glyph name="ae" format="2">
  <advance width="1398.0"/>
  <unicode hex="00E6"/>
  <anchor x="684.0" y="0.0" name="bottom"/>
  <anchor x="684.0" y="1200.0" name="top"/>
  <outline>
    <contour>
      <point x="1050.0" y="-18.0" type="curve" smooth="yes"/>
      <point x="1116.0" y="-18.0"/>
      <point x="1188.0" y="-8.0"/>
      <point x="1274.0" y="22.0" type="curve"/>
      <point x="1274.0" y="90.0" type="line"/>
      <point x="1180.0" y="60.0"/>
      <point x="1112.0" y="48.0"/>
      <point x="1054.0" y="48.0" type="curve" smooth="yes"/>
      <point x="834.0" y="48.0"/>
      <point x="718.0" y="164.0"/>
      <point x="718.0" y="534.0" type="curve" smooth="yes"/>
      <point x="718.0" y="552.0" type="line" smooth="yes"/>
      <point x="718.0" y="928.0"/>
      <point x="834.0" y="1032.0"/>
      <point x="988.0" y="1032.0" type="curve" smooth="yes"/>
      <point x="1142.0" y="1032.0"/>
      <point x="1250.0" y="934.0"/>
      <point x="1250.0" y="540.0" type="curve"/>
      <point x="1266.0" y="576.0" type="line"/>
      <point x="690.0" y="576.0" type="line"/>
      <point x="690.0" y="510.0" type="line"/>
      <point x="1322.0" y="510.0" type="line"/>
      <point x="1322.0" y="540.0" type="line" smooth="yes"/>
      <point x="1322.0" y="962.0"/>
      <point x="1190.0" y="1098.0"/>
      <point x="988.0" y="1098.0" type="curve" smooth="yes"/>
      <point x="792.0" y="1098.0"/>
      <point x="656.0" y="960.0"/>
      <point x="656.0" y="550.0" type="curve"/>
      <point x="650.0" y="540.0" type="line"/>
      <point x="650.0" y="126.0"/>
      <point x="790.0" y="-18.0"/>
    </contour>
    <contour>
      <point x="368.0" y="-16.0" type="curve" smooth="yes"/>
      <point x="500.0" y="-16.0"/>
      <point x="628.0" y="38.0"/>
      <point x="720.0" y="222.0" type="curve"/>
      <point x="682.0" y="286.0" type="line"/>
      <point x="610.0" y="106.0"/>
      <point x="490.0" y="50.0"/>
      <point x="374.0" y="50.0" type="curve" smooth="yes"/>
      <point x="238.0" y="50.0"/>
      <point x="156.0" y="120.0"/>
      <point x="156.0" y="270.0" type="curve" smooth="yes"/>
      <point x="156.0" y="410.0"/>
      <point x="230.0" y="510.0"/>
      <point x="440.0" y="510.0" type="curve" smooth="yes"/>
      <point x="686.0" y="510.0" type="line"/>
      <point x="686.0" y="576.0" type="line"/>
      <point x="442.0" y="576.0" type="line" smooth="yes"/>
      <point x="180.0" y="576.0"/>
      <point x="82.0" y="446.0"/>
      <point x="82.0" y="262.0" type="curve" smooth="yes"/>
      <point x="82.0" y="80.0"/>
      <point x="202.0" y="-16.0"/>
    </contour>
    <contour>
      <point x="650.0" y="540.0" type="line"/>
      <point x="712.0" y="530.0" type="line"/>
      <point x="712.0" y="760.0" type="line" smooth="yes"/>
      <point x="712.0" y="1012.0"/>
      <point x="598.0" y="1096.0"/>
      <point x="390.0" y="1096.0" type="curve" smooth="yes"/>
      <point x="310.0" y="1096.0"/>
      <point x="208.0" y="1080.0"/>
      <point x="136.0" y="1052.0" type="curve"/>
      <point x="136.0" y="984.0" type="line"/>
      <point x="226.0" y="1016.0"/>
      <point x="318.0" y="1030.0"/>
      <point x="388.0" y="1030.0" type="curve" smooth="yes"/>
      <point x="556.0" y="1030.0"/>
      <point x="650.0" y="972.0"/>
      <point x="650.0" y="762.0" type="curve" smooth="yes"/>
    </contour>
  </outline>
</glyph>
<glyph name="egrave" format="2">
  <advance width="848.0"/>
  <unicode hex="00E8"/>
  <anchor x="434.0" y="1200.0" name="_top"/>
  <anchor x="434.0" y="0.0" name="bottom"/>
  <anchor x="650.0" y="0.0" name="ogonek"/>
  <anchor x="434.0" y="1200.0" name="top"/>
  <outline>
    <contour>
      <point x="496.0" y="-18.0" type="curve" smooth="yes"/>
      <point x="566.0" y="-18.0"/>
      <point x="638.0" y="-8.0"/>
      <point x="724.0" y="22.0" type="curve"/>
      <point x="724.0" y="90.0" type="line"/>
      <point x="630.0" y="60.0"/>
      <point x="562.0" y="48.0"/>
      <point x="500.0" y="48.0" type="curve" smooth="yes"/>
      <point x="276.0" y="48.0"/>
      <point x="160.0" y="164.0"/>
      <point x="160.0" y="534.0" type="curve" smooth="yes"/>
      <point x="160.0" y="552.0" type="line" smooth="yes"/>
      <point x="160.0" y="928.0"/>
      <point x="282.0" y="1030.0"/>
      <point x="438.0" y="1030.0" type="curve" smooth="yes"/>
      <point x="592.0" y="1030.0"/>
      <point x="700.0" y="928.0"/>
      <point x="700.0" y="552.0" type="curve"/>
      <point x="716.0" y="576.0" type="line"/>
      <point x="132.0" y="576.0" type="line"/>
      <point x="132.0" y="510.0" type="line"/>
      <point x="772.0" y="510.0" type="line"/>
      <point x="772.0" y="540.0" type="line" smooth="yes"/>
      <point x="772.0" y="958.0"/>
      <point x="640.0" y="1096.0"/>
      <point x="438.0" y="1096.0" type="curve" smooth="yes"/>
      <point x="238.0" y="1096.0"/>
      <point x="88.0" y="954.0"/>
      <point x="88.0" y="540.0" type="curve" smooth="yes"/>
      <point x="88.0" y="126.0"/>
      <point x="232.0" y="-18.0"/>
    </contour>
    <contour>
      <point x="406.0" y="1264.0" type="line"/>
      <point x="462.0" y="1264.0" type="line"/>
      <point x="314.0" y="1616.0" type="line"/>
      <point x="242.0" y="1616.0" type="line"/>
    </contour>
  </outline>
</glyph>
<glyph name="iacute" format="2">
  <advance width="356.0"/>
  <unicode hex="00ED"/>
  <anchor x="178.0" y="1200.0" name="_top"/>
  <anchor x="178.0" y="0.0" name="bottom"/>
  <anchor x="212.0" y="0.0" name="ogonek"/>
  <anchor x="178.0" y="1200.0" name="top"/>
  <outline>
    <contour>
      <point x="144.0" y="0.0" type="line"/>
      <point x="212.0" y="0.0" type="line"/>
      <point x="212.0" y="1080.0" type="line"/>
      <point x="144.0" y="1080.0" type="line"/>
    </contour>
    <contour>
      <point x="150.0" y="1264.0" type="line"/>
      <point x="206.0" y="1264.0" type="line"/>
      <point x="370.0" y="1616.0" type="line"/>
      <point x="298.0" y="1616.0" type="line"/>
    </contour>
  </outline>
</glyph>
<glyph name="icircumflex" format="2">
  <advance width="356.0"/>
  <unicode hex="00EE"/>
  <anchor x="178.0" y="1200.0" name="_top"/>
  <anchor x="178.0" y="0.0" name="bottom"/>
  <anchor x="212.0" y="0.0" name="ogonek"/>
  <anchor x="178.0" y="1200.0" name="top"/>
  <outline>
    <contour>
      <point x="144.0" y="0.0" type="line"/>
      <point x="212.0" y="0.0" type="line"/>
      <point x="212.0" y="1080.0" type="line"/>
      <point x="144.0" y="1080.0" type="line"/>
    </contour>
    <contour>
      <point x="-36.0" y="1264.0" type="line"/>
      <point x="28.0" y="1264.0" type="line"/>
      <point x="186.0" y="1590.0" type="line"/>
      <point x="170.0" y="1590.0" type="line"/>
      <point x="328.0" y="1264.0" type="line"/>
      <point x="392.0" y="1264.0" type="line"/>
      <point x="216.0" y="1616.0" type="line"/>
      <point x="140.0" y="1616.0" type="line"/>
    </contour>
  </outline>
</glyph>
<glyph name="eth" format="2">
  <advance width="912.0"/>
  <unicode hex="00F0"/>
  <guideline x="88.0" y="1118.0" angle="90.0"/>
  <guideline x="822.0" y="1118.0" angle="90.0"/>
  <outline>
    <contour>
      <point x="458.0" y="-18.0" type="curve" smooth="yes"/>
      <point x="680.0" y="-18.0"/>
      <point x="822.0" y="152.0"/>
      <point x="822.0" y="570.0" type="curve" smooth="yes"/>
      <point x="822.0" y="974.0"/>
      <point x="618.0" y="1418.0"/>
      <point x="376.0" y="1616.0" type="curve"/>
      <point x="288.0" y="1616.0" type="line"/>
      <point x="522.0" y="1418.0"/>
      <point x="636.0" y="1176.0"/>
      <point x="696.0" y="954.0" type="curve"/>
      <point x="712.0" y="968.0" type="line"/>
      <point x="638.0" y="1070.0"/>
      <point x="550.0" y="1096.0"/>
      <point x="456.0" y="1096.0" type="curve" smooth="yes"/>
      <point x="232.0" y="1096.0"/>
      <point x="88.0" y="948.0"/>
      <point x="88.0" y="540.0" type="curve" smooth="yes"/>
      <point x="88.0" y="132.0"/>
      <point x="236.0" y="-18.0"/>
    </contour>
    <contour>
      <point x="458.0" y="48.0" type="curve" smooth="yes"/>
      <point x="276.0" y="48.0"/>
      <point x="160.0" y="160.0"/>
      <point x="160.0" y="544.0" type="curve" smooth="yes"/>
      <point x="160.0" y="920.0"/>
      <point x="276.0" y="1030.0"/>
      <point x="456.0" y="1030.0" type="curve" smooth="yes"/>
      <point x="636.0" y="1030.0"/>
      <point x="752.0" y="920.0"/>
      <point x="752.0" y="536.0" type="curve" smooth="yes"/>
      <point x="752.0" y="180.0"/>
      <point x="632.0" y="48.0"/>
    </contour>
    <contour>
      <point x="184.0" y="1260.0" type="line"/>
      <point x="802.0" y="1364.0" type="line"/>
      <point x="792.0" y="1422.0" type="line"/>
      <point x="174.0" y="1318.0" type="line"/>
    </contour>
  </outline>
</glyph>
<glyph name="ntilde" format="2">
  <advance width="930.0"/>
  <unicode hex="00F1"/>
  <anchor x="470.0" y="1200.0" name="_top"/>
  <anchor x="10.0" y="1200.0" name="apostrophe"/>
  <anchor x="470.0" y="0.0" name="bottom"/>
  <anchor x="470.0" y="1200.0" name="top"/>
  <outline>
    <contour>
      <point x="144.0" y="0.0" type="line"/>
      <point x="212.0" y="0.0" type="line"/>
      <point x="212.0" y="850.0" type="line"/>
      <point x="286.0" y="986.0"/>
      <point x="418.0" y="1030.0"/>
      <point x="510.0" y="1030.0" type="curve" smooth="yes"/>
      <point x="640.0" y="1030.0"/>
      <point x="728.0" y="968.0"/>
      <point x="728.0" y="774.0" type="curve" smooth="yes"/>
      <point x="728.0" y="0.0" type="line"/>
      <point x="796.0" y="0.0" type="line"/>
      <point x="796.0" y="776.0" type="line" smooth="yes"/>
      <point x="796.0" y="1020.0"/>
      <point x="674.0" y="1096.0"/>
      <point x="514.0" y="1096.0" type="curve" smooth="yes"/>
      <point x="396.0" y="1096.0"/>
      <point x="292.0" y="1044.0"/>
      <point x="218.0" y="956.0" type="curve"/>
      <point x="210.0" y="956.0" type="line"/>
      <point x="204.0" y="1080.0" type="line"/>
      <point x="144.0" y="1080.0" type="line"/>
    </contour>
    <contour>
      <point x="588.0" y="1380.0" type="curve" smooth="yes"/>
      <point x="644.0" y="1380.0"/>
      <point x="690.0" y="1404.0"/>
      <point x="720.0" y="1442.0" type="curve"/>
      <point x="720.0" y="1508.0" type="line"/>
      <point x="682.0" y="1460.0"/>
      <point x="642.0" y="1436.0"/>
      <point x="588.0" y="1436.0" type="curve" smooth="yes"/>
      <point x="516.0" y="1436.0"/>
      <point x="442.0" y="1514.0"/>
      <point x="352.0" y="1514.0" type="curve" smooth="yes"/>
      <point x="296.0" y="1514.0"/>
      <point x="250.0" y="1490.0"/>
      <point x="220.0" y="1452.0" type="curve"/>
      <point x="220.0" y="1386.0" type="line"/>
      <point x="258.0" y="1434.0"/>
      <point x="298.0" y="1458.0"/>
      <point x="352.0" y="1458.0" type="curve" smooth="yes"/>
      <point x="424.0" y="1458.0"/>
      <point x="498.0" y="1380.0"/>
    </contour>
  </outline>
</glyph>
<glyph name="odieresis" format="2">
  <advance width="912.0"/>
  <unicode hex="00F6"/>
  <anchor x="456.0" y="1200.0" name="_top"/>
  <anchor x="456.0" y="0.0" name="bottom"/>
  <anchor x="456.0" y="540.0" name="center"/>
  <anchor x="578.0" y="0.0" name="ogonek"/>
  <anchor x="456.0" y="1200.0" name="top"/>
  <anchor x="570.0" y="1080.0" name="topright"/>
  <outline>
    <contour>
      <point x="456.0" y="-18.0" type="curve" smooth="yes"/>
      <point x="680.0" y="-18.0"/>
      <point x="824.0" y="132.0"/>
      <point x="824.0" y="540.0" type="curve" smooth="yes"/>
      <point x="824.0" y="948.0"/>
      <point x="676.0" y="1096.0"/>
      <point x="456.0" y="1096.0" type="curve" smooth="yes"/>
      <point x="232.0" y="1096.0"/>
      <point x="88.0" y="948.0"/>
      <point x="88.0" y="540.0" type="curve" smooth="yes"/>
      <point x="88.0" y="132.0"/>
      <point x="236.0" y="-18.0"/>
    </contour>
    <contour>
      <point x="456.0" y="48.0" type="curve" smooth="yes"/>
      <point x="276.0" y="48.0"/>
      <point x="160.0" y="160.0"/>
      <point x="160.0" y="544.0" type="curve" smooth="yes"/>
      <point x="160.0" y="920.0"/>
      <point x="276.0" y="1030.0"/>
      <point x="456.0" y="1030.0" type="curve" smooth="yes"/>
      <point x="636.0" y="1030.0"/>
      <point x="752.0" y="920.0"/>
      <point x="752.0" y="536.0" type="curve" smooth="yes"/>
      <point x="752.0" y="160.0"/>
      <point x="636.0" y="48.0"/>
    </contour>
    <contour>
      <point x="616.0" y="1360.0" type="curve" smooth="yes"/>
      <point x="652.0" y="1360.0"/>
      <point x="678.0" y="1384.0"/>
      <point x="678.0" y="1422.0" type="curve" smooth="yes"/>
      <point x="678.0" y="1460.0"/>
      <point x="652.0" y="1486.0"/>
      <point x="616.0" y="1486.0" type="curve" smooth="yes"/>
      <point x="580.0" y="1486.0"/>
      <point x="554.0" y="1460.0"/>
      <point x="554.0" y="1422.0" type="curve" smooth="yes"/>
      <point x="554.0" y="1384.0"/>
      <point x="580.0" y="1360.0"/>
    </contour>
    <contour>
      <point x="296.0" y="1360.0" type="curve" smooth="yes"/>
      <point x="332.0" y="1360.0"/>
      <point x="358.0" y="1384.0"/>
      <point x="358.0" y="1422.0" type="curve" smooth="yes"/>
      <point x="358.0" y="1460.0"/>
      <point x="332.0" y="1486.0"/>
      <point x="296.0" y="1486.0" type="curve" smooth="yes"/>
      <point x="260.0" y="1486.0"/>
      <point x="234.0" y="1460.0"/>
      <point x="234.0" y="1422.0" type="curve" smooth="yes"/>
      <point x="234.0" y="1384.0"/>
      <point x="260.0" y="1360.0"/>
    </contour>
  </outline>
</glyph>
<glyph name="divide" format="2">
  <advance width="1016.0"/>
  <unicode hex="00F7"/>
  <outline>
    <contour>
      <point x="144.0" y="728.0" type="line"/>
      <point x="872.0" y="728.0" type="line"/>
      <point x="872.0" y="792.0" type="line"/>
      <point x="144.0" y="792.0" type="line"/>
    </contour>
    <contour>
      <point x="508.0" y="368.0" type="curve" smooth="yes"/>
      <point x="544.0" y="368.0"/>
      <point x="570.0" y="392.0"/>
      <point x="570.0" y="430.0" type="curve" smooth="yes"/>
      <point x="570.0" y="468.0"/>
      <point x="544.0" y="494.0"/>
      <point x="508.0" y="494.0" type="curve" smooth="yes"/>
      <point x="472.0" y="494.0"/>
      <point x="446.0" y="468.0"/>
      <point x="446.0" y="430.0" type="curve" smooth="yes"/>
      <point x="446.0" y="392.0"/>
      <point x="472.0" y="368.0"/>
    </contour>
    <contour>
      <point x="508.0" y="1026.0" type="curve" smooth="yes"/>
      <point x="544.0" y="1026.0"/>
      <point x="570.0" y="1050.0"/>
      <point x="570.0" y="1088.0" type="curve" smooth="yes"/>
      <point x="570.0" y="1126.0"/>
      <point x="544.0" y="1152.0"/>
      <point x="508.0" y="1152.0" type="curve" smooth="yes"/>
      <point x="472.0" y="1152.0"/>
      <point x="446.0" y="1126.0"/>
      <point x="446.0" y="1088.0" type="curve" smooth="yes"/>
      <point x="446.0" y="1050.0"/>
      <point x="472.0" y="1026.0"/>
    </contour>
  </outline>
</glyph>
<glyph name="udieresis" format="2">
  <advance width="920.0"/>
  <unicode hex="00FC"/>
  <anchor x="456.0" y="1200.0" name="_top"/>
  <anchor x="456.0" y="0.0" name="bottom"/>
  <anchor x="776.0" y="0.0" name="ogonek"/>
  <anchor x="456.0" y="1200.0" name="top"/>
  <anchor x="708.0" y="1080.0" name="topright"/>
  <outline>
    <contour>
      <point x="414.0" y="-18.0" type="curve" smooth="yes"/>
      <point x="518.0" y="-18.0"/>
      <point x="624.0" y="26.0"/>
      <point x="702.0" y="120.0" type="curve"/>
      <point x="710.0" y="120.0" type="line"/>
      <point x="716.0" y="0.0" type="line"/>
      <point x="776.0" y="0.0" type="line"/>
      <point x="776.0" y="1080.0" type="line"/>
      <point x="708.0" y="1080.0" type="line"/>
      <point x="708.0" y="226.0" type="line"/>
      <point x="636.0" y="92.0"/>
      <point x="504.0" y="48.0"/>
      <point x="416.0" y="48.0" type="curve" smooth="yes"/>
      <point x="290.0" y="48.0"/>
      <point x="202.0" y="110.0"/>
      <point x="202.0" y="304.0" type="curve" smooth="yes"/>
      <point x="202.0" y="1080.0" type="line"/>
      <point x="134.0" y="1080.0" type="line"/>
      <point x="134.0" y="308.0" type="line" smooth="yes"/>
      <point x="134.0" y="58.0"/>
      <point x="256.0" y="-18.0"/>
    </contour>
    <contour>
      <point x="616.0" y="1360.0" type="curve" smooth="yes"/>
      <point x="652.0" y="1360.0"/>
      <point x="678.0" y="1384.0"/>
      <point x="678.0" y="1422.0" type="curve" smooth="yes"/>
      <point x="678.0" y="1460.0"/>
      <point x="652.0" y="1486.0"/>
      <point x="616.0" y="1486.0" type="curve" smooth="yes"/>
      <point x="580.0" y="1486.0"/>
      <point x="554.0" y="1460.0"/>
      <point x="554.0" y="1422.0" type="curve" smooth="yes"/>
      <point x="554.0" y="1384.0"/>
      <point x="580.0" y="1360.0"/>
    </contour>
    <contour>
      <point x="296.0" y="1360.0" type="curve" smooth="yes"/>
      <point x="332.0" y="1360.0"/>
      <point x="358.0" y="1384.0"/>
      <point x="358.0" y="1422.0" type="curve" smooth="yes"/>
      <point x="358.0" y="1460.0"/>
      <point x="332.0" y="1486.0"/>
      <point x="296.0" y="1486.0" type="curve" smooth="yes"/>
      <point x="260.0" y="1486.0"/>
      <point x="234.0" y="1460.0"/>
      <point x="234.0" y="1422.0" type="curve" smooth="yes"/>
      <point x="234.0" y="1384.0"/>
      <point x="260.0" y="1360.0"/>
    </contour>
  </outline>
</glyph>
<glyph name="ydieresis" format="2">
  <advance width="858.0"/>
  <unicode hex="00FF"/>
  <anchor x="430.0" y="1200.0" name="_top"/>
  <anchor x="636.0" y="0.0" name="bottom"/>
  <anchor x="430.0" y="1200.0" name="top"/>
  <outline>
    <contour>
      <point x="254.0" y="-440.0" type="line"/>
      <point x="326.0" y="-440.0" type="line"/>
      <point x="846.0" y="1080.0" type="line"/>
      <point x="770.0" y="1080.0" type="line"/>
      <point x="418.0" y="34.0" type="line"/>
      <point x="406.0" y="0.0" type="line"/>
    </contour>
    <contour>
      <point x="382.0" y="0.0" type="line"/>
      <point x="452.0" y="0.0" type="line"/>
      <point x="88.0" y="1080.0" type="line"/>
      <point x="12.0" y="1080.0" type="line"/>
    </contour>
    <contour>
      <point x="590.0" y="1360.0" type="curve" smooth="yes"/>
      <point x="626.0" y="1360.0"/>
      <point x="652.0" y="1384.0"/>
      <point x="652.0" y="1422.0" type="curve" smooth="yes"/>
      <point x="652.0" y="1460.0"/>
      <point x="626.0" y="1486.0"/>
      <point x="590.0" y="1486.0" type="curve" smooth="yes"/>
      <point x="554.0" y="1486.0"/>
      <point x="528.0" y="1460.0"/>
      <point x="528.0" y="1422.0" type="curve" smooth="yes"/>
      <point x="528.0" y="1384.0"/>
      <point x="554.0" y="1360.0"/>
    </contour>
    <contour>
      <point x="270.0" y="1360.0" type="curve" smooth="yes"/>
      <point x="306.0" y="1360.0"/>
      <point x="332.0" y="1384.0"/>
      <point x="332.0" y="1422.0" type="curve" smooth="yes"/>
      <point x="332.0" y="1460.0"/>
      <point x="306.0" y="1486.0"/>
      <point x="270.0" y="1486.0" type="curve" smooth="yes"/>
      <point x="234.0" y="1486.0"/>
      <point x="208.0" y="1460.0"/>
      <point x="208.0" y="1422.0" type="curve" smooth="yes"/>
      <point x="208.0" y="1384.0"/>
      <point x="234.0" y="1360.0"/>
    </contour>
  </outline>
</glyph>
<glyph name="Aogonek" format="2">
  <advance width="1130.0"/>
  <unicode hex="0104"/>
  <anchor x="1104.0" y="0.0" name="_ogonek"/>
  <anchor x="566.0" y="0.0" name="bottom"/>
  <anchor x="1104.0" y="0.0" name="ogonek"/>
  <anchor x="566.0" y="1520.0" name="top"/>
  <outline>
    <contour>
      <point x="26.0" y="0.0" type="line"/>
      <point x="98.0" y="0.0" type="line"/>
      <point x="576.0" y="1440.0" type="line"/>
      <point x="552.0" y="1440.0" type="line"/>
      <point x="1030.0" y="0.0" type="line"/>
      <point x="1104.0" y="0.0" type="line"/>
      <point x="608.0" y="1480.0" type="line"/>
      <point x="522.0" y="1480.0" type="line"/>
    </contour>
    <contour>
      <point x="246.0" y="528.0" type="line"/>
      <point x="884.0" y="528.0" type="line"/>
      <point x="864.0" y="594.0" type="line"/>
      <point x="266.0" y="594.0" type="line"/>
    </contour>
    <contour>
      <point x="1070.0" y="-400.0" type="curve" smooth="yes"/>
      <point x="1118.0" y="-400.0"/>
      <point x="1166.0" y="-388.0"/>
      <point x="1216.0" y="-362.0" type="curve"/>
      <point x="1216.0" y="-308.0" type="line"/>
      <point x="1154.0" y="-338.0"/>
      <point x="1110.0" y="-348.0"/>
      <point x="1068.0" y="-348.0" type="curve" smooth="yes"/>
      <point x="976.0" y="-348.0"/>
      <point x="928.0" y="-310.0"/>
      <point x="928.0" y="-228.0" type="curve" smooth="yes"/>
      <point x="928.0" y="-148.0"/>
      <point x="974.0" y="-80.0"/>
      <point x="1104.0" y="0.0" type="curve"/>
      <point x="1076.0" y="46.0" type="line"/>
      <point x="934.0" y="-42.0"/>
      <point x="872.0" y="-128.0"/>
      <point x="872.0" y="-232.0" type="curve" smooth="yes"/>
      <point x="872.0" y="-342.0"/>
      <point x="944.0" y="-400.0"/>
    </contour>
  </outline>
</glyph>
<glyph name="aogonek" format="2">
  <advance width="852.0"/>
  <unicode hex="0105"/>
  <anchor x="718.0" y="0.0" name="_ogonek"/>
  <anchor x="424.0" y="0.0" name="bottom"/>
  <anchor x="718.0" y="0.0" name="ogonek"/>
  <anchor x="420.0" y="1200.0" name="top"/>
  <outline>
    <contour>
      <point x="366.0" y="-16.0" type="curve" smooth="yes"/>
      <point x="480.0" y="-16.0"/>
      <point x="578.0" y="30.0"/>
      <point x="644.0" y="122.0" type="curve"/>
      <point x="652.0" y="122.0" type="line"/>
      <point x="658.0" y="0.0" type="line"/>
      <point x="718.0" y="0.0" type="line"/>
      <point x="718.0" y="754.0" type="line" smooth="yes"/>
      <point x="718.0" y="1012.0"/>
      <point x="600.0" y="1096.0"/>
      <point x="390.0" y="1096.0" type="curve" smooth="yes"/>
      <point x="310.0" y="1096.0"/>
      <point x="208.0" y="1080.0"/>
      <point x="136.0" y="1052.0" type="curve"/>
      <point x="136.0" y="984.0" type="line"/>
      <point x="226.0" y="1016.0"/>
      <point x="318.0" y="1030.0"/>
      <point x="388.0" y="1030.0" type="curve" smooth="yes"/>
      <point x="556.0" y="1030.0"/>
      <point x="650.0" y="972.0"/>
      <point x="650.0" y="756.0" type="curve" smooth="yes"/>
      <point x="650.0" y="222.0" type="line"/>
      <point x="572.0" y="90.0"/>
      <point x="464.0" y="50.0"/>
      <point x="372.0" y="50.0" type="curve" smooth="yes"/>
      <point x="234.0" y="50.0"/>
      <point x="156.0" y="120.0"/>
      <point x="156.0" y="274.0" type="curve" smooth="yes"/>
      <point x="156.0" y="414.0"/>
      <point x="234.0" y="492.0"/>
      <point x="408.0" y="510.0" type="curve" smooth="yes"/>
      <point x="696.0" y="542.0" type="line"/>
      <point x="686.0" y="608.0" type="line"/>
      <point x="410.0" y="576.0" type="line" smooth="yes"/>
      <point x="188.0" y="552.0"/>
      <point x="82.0" y="450.0"/>
      <point x="82.0" y="266.0" type="curve" smooth="yes"/>
      <point x="82.0" y="82.0"/>
      <point x="198.0" y="-16.0"/>
    </contour>
    <contour>
      <point x="684.0" y="-400.0" type="curve" smooth="yes"/>
      <point x="730.0" y="-400.0"/>
      <point x="780.0" y="-386.0"/>
      <point x="816.0" y="-360.0" type="curve"/>
      <point x="816.0" y="-304.0" type="line"/>
      <point x="776.0" y="-332.0"/>
      <point x="730.0" y="-348.0"/>
      <point x="682.0" y="-348.0" type="curve" smooth="yes"/>
      <point x="606.0" y="-348.0"/>
      <point x="562.0" y="-306.0"/>
      <point x="562.0" y="-228.0" type="curve" smooth="yes"/>
      <point x="562.0" y="-148.0"/>
      <point x="608.0" y="-80.0"/>
      <point x="718.0" y="0.0" type="curve"/>
      <point x="690.0" y="46.0" type="line"/>
      <point x="562.0" y="-46.0"/>
      <point x="506.0" y="-132.0"/>
      <point x="506.0" y="-232.0" type="curve" smooth="yes"/>
      <point x="506.0" y="-338.0"/>
      <point x="572.0" y="-400.0"/>
    </contour>
  </outline>
</glyph>
<glyph name="ccircumflex" format="2">
  <advance width="702.0"/>
  <unicode hex="0109"/>
  <anchor x="426.0" y="1200.0" name="_top"/>
  <anchor x="426.0" y="0.0" name="bottom"/>
  <anchor x="426.0" y="1200.0" name="top"/>
  <outline>
    <contour>
      <point x="468.0" y="-18.0" type="curve" smooth="yes"/>
      <point x="538.0" y="-18.0"/>
      <point x="608.0" y="-6.0"/>
      <point x="686.0" y="22.0" type="curve"/>
      <point x="686.0" y="90.0" type="line"/>
      <point x="602.0" y="60.0"/>
      <point x="534.0" y="48.0"/>
      <point x="476.0" y="48.0" type="curve" smooth="yes"/>
      <point x="268.0" y="48.0"/>
      <point x="160.0" y="162.0"/>
      <point x="160.0" y="544.0" type="curve" smooth="yes"/>
      <point x="160.0" y="922.0"/>
      <point x="276.0" y="1030.0"/>
      <point x="518.0" y="1030.0" type="curve" smooth="yes"/>
      <point x="556.0" y="1030.0"/>
      <point x="620.0" y="1024.0"/>
      <point x="686.0" y="1006.0" type="curve"/>
      <point x="686.0" y="1074.0" type="line"/>
      <point x="628.0" y="1090.0"/>
      <point x="566.0" y="1096.0"/>
      <point x="514.0" y="1096.0" type="curve" smooth="yes"/>
      <point x="236.0" y="1096.0"/>
      <point x="88.0" y="954.0"/>
      <point x="88.0" y="540.0" type="curve" smooth="yes"/>
      <point x="88.0" y="126.0"/>
      <point x="224.0" y="-18.0"/>
    </contour>
    <contour>
      <point x="212.0" y="1264.0" type="line"/>
      <point x="276.0" y="1264.0" type="line"/>
      <point x="434.0" y="1590.0" type="line"/>
      <point x="418.0" y="1590.0" type="line"/>
      <point x="576.0" y="1264.0" type="line"/>
      <point x="640.0" y="1264.0" type="line"/>
      <point x="464.0" y="1616.0" type="line"/>
      <point x="388.0" y="1616.0" type="line"/>
    </contour>
  </outline>
</glyph>
<glyph name="Ccaron" format="2">
  <advance width="930.0"/>
  <unicode hex="010C"/>
  <anchor x="588.0" y="1520.0" name="_top"/>
  <anchor x="598.0" y="0.0" name="bottom"/>
  <anchor x="588.0" y="1520.0" name="top"/>
  <outline>
    <contour>
      <point x="634.0" y="-18.0" type="curve" smooth="yes"/>
      <point x="740.0" y="-18.0"/>
      <point x="834.0" y="4.0"/>
      <point x="912.0" y="32.0" type="curve"/>
      <point x="912.0" y="100.0" type="line"/>
      <point x="810.0" y="64.0"/>
      <point x="728.0" y="48.0"/>
      <point x="632.0" y="48.0" type="curve" smooth="yes"/>
      <point x="346.0" y="48.0"/>
      <point x="170.0" y="200.0"/>
      <point x="170.0" y="742.0" type="curve" smooth="yes"/>
      <point x="170.0" y="1270.0"/>
      <point x="338.0" y="1432.0"/>
      <point x="640.0" y="1432.0" type="curve" smooth="yes"/>
      <point x="730.0" y="1432.0"/>
      <point x="812.0" y="1424.0"/>
      <point x="912.0" y="1390.0" type="curve"/>
      <point x="912.0" y="1458.0" type="line"/>
      <point x="826.0" y="1484.0"/>
      <point x="734.0" y="1498.0"/>
      <point x="648.0" y="1498.0" type="curve" smooth="yes"/>
      <point x="300.0" y="1498.0"/>
      <point x="98.0" y="1304.0"/>
      <point x="98.0" y="738.0" type="curve" smooth="yes"/>
      <point x="98.0" y="164.0"/>
      <point x="306.0" y="-18.0"/>
    </contour>
    <contour>
      <point x="550.0" y="1616.0" type="line"/>
      <point x="626.0" y="1616.0" type="line"/>
      <point x="822.0" y="1888.0" type="line"/>
      <point x="752.0" y="1888.0" type="line"/>
      <point x="580.0" y="1646.0" type="line"/>
      <point x="596.0" y="1646.0" type="line"/>
      <point x="424.0" y="1888.0" type="line"/>
      <point x="354.0" y="1888.0" type="line"/>
    </contour>
  </outline>
</glyph>
<glyph name="Ebreve" format="2">
  <advance width="946.0"/>
  <unicode hex="0114"/>
  <anchor x="556.0" y="1520.0" name="_top"/>
  <anchor x="556.0" y="0.0" name="bottom"/>
  <anchor x="832.0" y="0.0" name="ogonek"/>
  <anchor x="556.0" y="1520.0" name="top"/>
  <anchor x="36.0" y="1480.0" name="topleft"/>
  <outline>
    <contour>
      <point x="164.0" y="0.0" type="line"/>
      <point x="912.0" y="0.0" type="line"/>
      <point x="912.0" y="66.0" type="line"/>
      <point x="232.0" y="66.0" type="line"/>
      <point x="232.0" y="1414.0" type="line"/>
      <point x="902.0" y="1414.0" type="line"/>
      <point x="902.0" y="1480.0" type="line"/>
      <point x="164.0" y="1480.0" type="line"/>
    </contour>
    <contour>
      <point x="224.0" y="728.0" type="line"/>
      <point x="812.0" y="728.0" type="line"/>
      <point x="812.0" y="794.0" type="line"/>
      <point x="224.0" y="794.0" type="line"/>
    </contour>
    <contour>
      <point x="558.0" y="1628.0" type="curve" smooth="yes"/>
      <point x="704.0" y="1628.0"/>
      <point x="788.0" y="1704.0"/>
      <point x="798.0" y="1860.0" type="curve"/>
      <point x="742.0" y="1860.0" type="line"/>
      <point x="732.0" y="1736.0"/>
      <point x="678.0" y="1686.0"/>
      <point x="558.0" y="1686.0" type="curve" smooth="yes"/>
      <point x="438.0" y="1686.0"/>
      <point x="384.0" y="1736.0"/>
      <point x="370.0" y="1860.0" type="curve"/>
      <point x="314.0" y="1860.0" type="line"/>
      <point x="324.0" y="1706.0"/>
      <point x="412.0" y="1628.0"/>
    </contour>
  </outline>
</glyph>
<glyph name="Eogonek" format="2">
  <advance width="946.0"/>
  <unicode hex="0118"/>
  <anchor x="832.0" y="0.0" name="_ogonek"/>
  <anchor x="556.0" y="0.0" name="bottom"/>
  <anchor x="832.0" y="0.0" name="ogonek"/>
  <anchor x="556.0" y="1520.0" name="top"/>
  <anchor x="36.0" y="1480.0" name="topleft"/>
  <outline>
    <contour>
      <point x="164.0" y="0.0" type="line"/>
      <point x="912.0" y="0.0" type="line"/>
      <point x="912.0" y="66.0" type="line"/>
      <point x="232.0" y="66.0" type="line"/>
      <point x="232.0" y="1414.0" type="line"/>
      <point x="902.0" y="1414.0" type="line"/>
      <point x="902.0" y="1480.0" type="line"/>
      <point x="164.0" y="1480.0" type="line"/>
    </contour>
    <contour>
      <point x="224.0" y="728.0" type="line"/>
      <point x="812.0" y="728.0" type="line"/>
      <point x="812.0" y="794.0" type="line"/>
      <point x="224.0" y="794.0" type="line"/>
    </contour>
    <contour>
      <point x="798.0" y="-400.0" type="curve" smooth="yes"/>
      <point x="846.0" y="-400.0"/>
      <point x="894.0" y="-388.0"/>
      <point x="944.0" y="-362.0" type="curve"/>
      <point x="944.0" y="-308.0" type="line"/>
      <point x="882.0" y="-338.0"/>
      <point x="838.0" y="-348.0"/>
      <point x="796.0" y="-348.0" type="curve" smooth="yes"/>
      <point x="704.0" y="-348.0"/>
      <point x="656.0" y="-310.0"/>
      <point x="656.0" y="-228.0" type="curve" smooth="yes"/>
      <point x="656.0" y="-148.0"/>
      <point x="702.0" y="-80.0"/>
      <point x="832.0" y="0.0" type="curve"/>
      <point x="804.0" y="46.0" type="line"/>
      <point x="662.0" y="-42.0"/>
      <point x="600.0" y="-128.0"/>
      <point x="600.0" y="-232.0" type="curve" smooth="yes"/>
      <point x="600.0" y="-342.0"/>
      <point x="672.0" y="-400.0"/>
    </contour>
  </outline>
</glyph>
<glyph name="Ecaron" format="2">
  <advance width="946.0"/>
  <unicode hex="011A"/>
  <anchor x="556.0" y="1520.0" name="_top"/>
  <anchor x="556.0" y="0.0" name="bottom"/>
  <anchor x="832.0" y="0.0" name="ogonek"/>
  <anchor x="556.0" y="1520.0" name="top"/>
  <anchor x="36.0" y="1480.0" name="topleft"/>
  <outline>
    <contour>
      <point x="164.0" y="0.0" type="line"/>
      <point x="912.0" y="0.0" type="line"/>
      <point x="912.0" y="66.0" type="line"/>
      <point x="232.0" y="66.0" type="line"/>
      <point x="232.0" y="1414.0" type="line"/>
      <point x="902.0" y="1414.0" type="line"/>
      <point x="902.0" y="1480.0" type="line"/>
      <point x="164.0" y="1480.0" type="line"/>
    </contour>
    <contour>
      <point x="224.0" y="728.0" type="line"/>
      <point x="812.0" y="728.0" type="line"/>
      <point x="812.0" y="794.0" type="line"/>
      <point x="224.0" y="794.0" type="line"/>
    </contour>
    <contour>
      <point x="518.0" y="1616.0" type="line"/>
      <point x="594.0" y="1616.0" type="line"/>
      <point x="790.0" y="1888.0" type="line"/>
      <point x="720.0" y="1888.0" type="line"/>
      <point x="548.0" y="1646.0" type="line"/>
      <point x="564.0" y="1646.0" type="line"/>
      <point x="392.0" y="1888.0" type="line"/>
      <point x="322.0" y="1888.0" type="line"/>
    </contour>
  </outline>
</glyph>
<glyph name="Gcircumflex" format="2">
  <advance width="1106.0"/>
  <unicode hex="011C"/>
  <anchor x="618.0" y="1520.0" name="_top"/>
  <anchor x="618.0" y="0.0" name="bottom"/>
  <anchor x="618.0" y="1520.0" name="top"/>
  <outline>
    <contour>
      <point x="732.0" y="-10.0" type="curve" smooth="yes"/>
      <point x="810.0" y="-10.0"/>
      <point x="880.0" y="-4.0"/>
      <point x="978.0" y="14.0" type="curve"/>
      <point x="978.0" y="720.0" type="line"/>
      <point x="910.0" y="720.0" type="line"/>
      <point x="910.0" y="40.0" type="line"/>
      <point x="932.0" y="76.0" type="line"/>
      <point x="868.0" y="62.0"/>
      <point x="802.0" y="56.0"/>
      <point x="732.0" y="56.0" type="curve" smooth="yes"/>
      <point x="356.0" y="56.0"/>
      <point x="170.0" y="218.0"/>
      <point x="170.0" y="738.0" type="curve" smooth="yes"/>
      <point x="170.0" y="1272.0"/>
      <point x="360.0" y="1432.0"/>
      <point x="678.0" y="1432.0" type="curve" smooth="yes"/>
      <point x="770.0" y="1432.0"/>
      <point x="860.0" y="1422.0"/>
      <point x="960.0" y="1390.0" type="curve"/>
      <point x="960.0" y="1458.0" type="line"/>
      <point x="874.0" y="1484.0"/>
      <point x="774.0" y="1498.0"/>
      <point x="684.0" y="1498.0" type="curve" smooth="yes"/>
      <point x="322.0" y="1498.0"/>
      <point x="98.0" y="1308.0"/>
      <point x="98.0" y="738.0" type="curve" smooth="yes"/>
      <point x="98.0" y="180.0"/>
      <point x="318.0" y="-10.0"/>
    </contour>
    <contour>
      <point x="384.0" y="1616.0" type="line"/>
      <point x="454.0" y="1616.0" type="line"/>
      <point x="626.0" y="1858.0" type="line"/>
      <point x="610.0" y="1858.0" type="line"/>
      <point x="782.0" y="1616.0" type="line"/>
      <point x="852.0" y="1616.0" type="line"/>
      <point x="656.0" y="1888.0" type="line"/>
      <point x="580.0" y="1888.0" type="line"/>
    </contour>
  </outline>
</glyph>
<glyph name="gcircumflex" format="2">
  <advance width="914.0"/>
  <unicode hex="011D"/>
  <anchor x="476.0" y="1200.0" name="_top"/>
  <anchor x="476.0" y="-440.0" name="bottom"/>
  <anchor x="476.0" y="1200.0" name="top"/>
  <outline>
    <contour>
      <point x="392.0" y="-460.0" type="curve" smooth="yes"/>
      <point x="638.0" y="-460.0"/>
      <point x="770.0" y="-346.0"/>
      <point x="770.0" y="-42.0" type="curve" smooth="yes"/>
      <point x="770.0" y="1060.0" type="line"/>
      <point x="714.0" y="1080.0"/>
      <point x="618.0" y="1096.0"/>
      <point x="542.0" y="1096.0" type="curve" smooth="yes"/>
      <point x="258.0" y="1096.0"/>
      <point x="88.0" y="924.0"/>
      <point x="88.0" y="518.0" type="curve" smooth="yes"/>
      <point x="88.0" y="102.0"/>
      <point x="254.0" y="-18.0"/>
      <point x="442.0" y="-18.0" type="curve" smooth="yes"/>
      <point x="560.0" y="-18.0"/>
      <point x="648.0" y="40.0"/>
      <point x="696.0" y="100.0" type="curve"/>
      <point x="702.0" y="100.0" type="line"/>
      <point x="702.0" y="-46.0" type="line" smooth="yes"/>
      <point x="702.0" y="-306.0"/>
      <point x="596.0" y="-394.0"/>
      <point x="392.0" y="-394.0" type="curve" smooth="yes"/>
      <point x="316.0" y="-394.0"/>
      <point x="236.0" y="-380.0"/>
      <point x="148.0" y="-348.0" type="curve"/>
      <point x="148.0" y="-416.0" type="line"/>
      <point x="216.0" y="-444.0"/>
      <point x="312.0" y="-460.0"/>
    </contour>
    <contour>
      <point x="446.0" y="48.0" type="curve" smooth="yes"/>
      <point x="288.0" y="48.0"/>
      <point x="160.0" y="136.0"/>
      <point x="160.0" y="526.0" type="curve" smooth="yes"/>
      <point x="160.0" y="892.0"/>
      <point x="298.0" y="1030.0"/>
      <point x="542.0" y="1030.0" type="curve" smooth="yes"/>
      <point x="596.0" y="1030.0"/>
      <point x="662.0" y="1020.0"/>
      <point x="702.0" y="1010.0" type="curve"/>
      <point x="702.0" y="204.0" type="line"/>
      <point x="650.0" y="102.0"/>
      <point x="546.0" y="48.0"/>
    </contour>
    <contour>
      <point x="262.0" y="1264.0" type="line"/>
      <point x="326.0" y="1264.0" type="line"/>
      <point x="484.0" y="1590.0" type="line"/>
      <point x="468.0" y="1590.0" type="line"/>
      <point x="626.0" y="1264.0" type="line"/>
      <point x="690.0" y="1264.0" type="line"/>
      <point x="514.0" y="1616.0" type="line"/>
      <point x="438.0" y="1616.0" type="line"/>
    </contour>
  </outline>
</glyph>
<glyph name="gcommaaccent" format="2">
  <advance width="914.0"/>
  <unicode hex="0123"/>
  <anchor x="476.0" y="1200.0" name="_top"/>
  <anchor x="476.0" y="-440.0" name="bottom"/>
  <anchor x="476.0" y="1200.0" name="top"/>
  <outline>
    <contour>
      <point x="392.0" y="-460.0" type="curve" smooth="yes"/>
      <point x="638.0" y="-460.0"/>
      <point x="770.0" y="-346.0"/>
      <point x="770.0" y="-42.0" type="curve" smooth="yes"/>
      <point x="770.0" y="1060.0" type="line"/>
      <point x="714.0" y="1080.0"/>
      <point x="618.0" y="1096.0"/>
      <point x="542.0" y="1096.0" type="curve" smooth="yes"/>
      <point x="258.0" y="1096.0"/>
      <point x="88.0" y="924.0"/>
      <point x="88.0" y="518.0" type="curve" smooth="yes"/>
      <point x="88.0" y="102.0"/>
      <point x="254.0" y="-18.0"/>
      <point x="442.0" y="-18.0" type="curve" smooth="yes"/>
      <point x="560.0" y="-18.0"/>
      <point x="648.0" y="40.0"/>
      <point x="696.0" y="100.0" type="curve"/>
      <point x="702.0" y="100.0" type="line"/>
      <point x="702.0" y="-46.0" type="line" smooth="yes"/>
      <point x="702.0" y="-306.0"/>
      <point x="596.0" y="-394.0"/>
      <point x="392.0" y="-394.0" type="curve" smooth="yes"/>
      <point x="316.0" y="-394.0"/>
      <point x="236.0" y="-380.0"/>
      <point x="148.0" y="-348.0" type="curve"/>
      <point x="148.0" y="-416.0" type="line"/>
      <point x="216.0" y="-444.0"/>
      <point x="312.0" y="-460.0"/>
    </contour>
    <contour>
      <point x="446.0" y="48.0" type="curve" smooth="yes"/>
      <point x="288.0" y="48.0"/>
      <point x="160.0" y="136.0"/>
      <point x="160.0" y="526.0" type="curve" smooth="yes"/>
      <point x="160.0" y="892.0"/>
      <point x="298.0" y="1030.0"/>
      <point x="542.0" y="1030.0" type="curve" smooth="yes"/>
      <point x="596.0" y="1030.0"/>
      <point x="662.0" y="1020.0"/>
      <point x="702.0" y="1010.0" type="curve"/>
      <point x="702.0" y="204.0" type="line"/>
      <point x="650.0" y="102.0"/>
      <point x="546.0" y="48.0"/>
    </contour>
    <contour>
      <point x="480.0" y="1360.0" type="curve" smooth="yes"/>
      <point x="514.0" y="1360.0"/>
      <point x="538.0" y="1386.0"/>
      <point x="538.0" y="1422.0" type="curve" smooth="yes"/>
      <point x="538.0" y="1460.0"/>
      <point x="512.0" y="1486.0"/>
      <point x="476.0" y="1486.0" type="curve" smooth="yes"/>
      <point x="464.0" y="1486.0" type="line"/>
      <point x="468.0" y="1454.0" type="line"/>
      <point x="468.0" y="1502.0"/>
      <point x="474.0" y="1552.0"/>
      <point x="502.0" y="1624.0" type="curve"/>
      <point x="458.0" y="1624.0" type="line"/>
      <point x="428.0" y="1562.0"/>
      <point x="414.0" y="1494.0"/>
      <point x="414.0" y="1446.0" type="curve" smooth="yes"/>
      <point x="414.0" y="1388.0"/>
      <point x="440.0" y="1360.0"/>
    </contour>
  </outline>
</glyph>
<glyph name="Hcircumflex" format="2">
  <advance width="1220.0"/>
  <unicode hex="0124"/>
  <anchor x="610.0" y="1520.0" name="_top"/>
  <anchor x="610.0" y="0.0" name="bottom"/>
  <anchor x="610.0" y="1140.0" name="center"/>
  <anchor x="610.0" y="1520.0" name="top"/>
  <anchor x="36.0" y="1480.0" name="topleft"/>
  <outline>
    <contour>
      <point x="164.0" y="0.0" type="line"/>
      <point x="232.0" y="0.0" type="line"/>
      <point x="232.0" y="728.0" type="line"/>
      <point x="988.0" y="728.0" type="line"/>
      <point x="988.0" y="0.0" type="line"/>
      <point x="1056.0" y="0.0" type="line"/>
      <point x="1056.0" y="1480.0" type="line"/>
      <point x="988.0" y="1480.0" type="line"/>
      <point x="988.0" y="794.0" type="line"/>
      <point x="232.0" y="794.0" type="line"/>
      <point x="232.0" y="1480.0" type="line"/>
      <point x="164.0" y="1480.0" type="line"/>
    </contour>
    <contour>
      <point x="376.0" y="1616.0" type="line"/>
      <point x="446.0" y="1616.0" type="line"/>
      <point x="618.0" y="1858.0" type="line"/>
      <point x="602.0" y="1858.0" type="line"/>
      <point x="774.0" y="1616.0" type="line"/>
      <point x="844.0" y="1616.0" type="line"/>
      <point x="648.0" y="1888.0" type="line"/>
      <point x="572.0" y="1888.0" type="line"/>
    </contour>
  </outline>
</glyph>
<glyph name="Hbar" format="2">
  <advance width="1220.0"/>
  <unicode hex="0126"/>
  <anchor x="610.0" y="1140.0" name="_center"/>
  <anchor x="610.0" y="0.0" name="bottom"/>
  <anchor x="610.0" y="1140.0" name="center"/>
  <anchor x="610.0" y="1520.0" name="top"/>
  <anchor x="36.0" y="1480.0" name="topleft"/>
  <outline>
    <contour>
      <point x="164.0" y="0.0" type="line"/>
      <point x="232.0" y="0.0" type="line"/>
      <point x="232.0" y="728.0" type="line"/>
      <point x="988.0" y="728.0" type="line"/>
      <point x="988.0" y="0.0" type="line"/>
      <point x="1056.0" y="0.0" type="line"/>
      <point x="1056.0" y="1480.0" type="line"/>
      <point x="988.0" y="1480.0" type="line"/>
      <point x="988.0" y="794.0" type="line"/>
      <point x="232.0" y="794.0" type="line"/>
      <point x="232.0" y="1480.0" type="line"/>
      <point x="164.0" y="1480.0" type="line"/>
    </contour>
    <contour>
      <point x="-4.0" y="1110.0" type="line"/>
      <point x="1224.0" y="1110.0" type="line"/>
      <point x="1224.0" y="1170.0" type="line"/>
      <point x="-4.0" y="1170.0" type="line"/>
    </contour>
  </outline>
</glyph>
<glyph name="Itilde" format="2">
  <advance width="396.0"/>
  <unicode hex="0128"/>
  <anchor x="198.0" y="1520.0" name="_top"/>
  <anchor x="198.0" y="0.0" name="bottom"/>
  <anchor x="232.0" y="0.0" name="ogonek"/>
  <anchor x="198.0" y="1520.0" name="top"/>
  <outline>
    <contour>
      <point x="164.0" y="0.0" type="line"/>
      <point x="232.0" y="0.0" type="line"/>
      <point x="232.0" y="1480.0" type="line"/>
      <point x="164.0" y="1480.0" type="line"/>
    </contour>
    <contour>
      <point x="326.0" y="1696.0" type="curve" smooth="yes"/>
      <point x="384.0" y="1696.0"/>
      <point x="430.0" y="1720.0"/>
      <point x="460.0" y="1758.0" type="curve"/>
      <point x="460.0" y="1824.0" type="line"/>
      <point x="422.0" y="1776.0"/>
      <point x="382.0" y="1752.0"/>
      <point x="326.0" y="1752.0" type="curve" smooth="yes"/>
      <point x="244.0" y="1752.0"/>
      <point x="170.0" y="1830.0"/>
      <point x="70.0" y="1830.0" type="curve" smooth="yes"/>
      <point x="12.0" y="1830.0"/>
      <point x="-34.0" y="1806.0"/>
      <point x="-64.0" y="1768.0" type="curve"/>
      <point x="-64.0" y="1702.0" type="line"/>
      <point x="-26.0" y="1750.0"/>
      <point x="14.0" y="1774.0"/>
      <point x="70.0" y="1774.0" type="curve" smooth="yes"/>
      <point x="152.0" y="1774.0"/>
      <point x="226.0" y="1696.0"/>
    </contour>
  </outline>
</glyph>
<glyph name="itilde" format="2">
  <advance width="356.0"/>
  <unicode hex="0129"/>
  <anchor x="178.0" y="1200.0" name="_top"/>
  <anchor x="178.0" y="0.0" name="bottom"/>
  <anchor x="212.0" y="0.0" name="ogonek"/>
  <anchor x="178.0" y="1200.0" name="top"/>
  <outline>
    <contour>
      <point x="144.0" y="0.0" type="line"/>
      <point x="212.0" y="0.0" type="line"/>
      <point x="212.0" y="1080.0" type="line"/>
      <point x="144.0" y="1080.0" type="line"/>
    </contour>
    <contour>
      <point x="296.0" y="1380.0" type="curve" smooth="yes"/>
      <point x="352.0" y="1380.0"/>
      <point x="398.0" y="1404.0"/>
      <point x="428.0" y="1442.0" type="curve"/>
      <point x="428.0" y="1508.0" type="line"/>
      <point x="390.0" y="1460.0"/>
      <point x="350.0" y="1436.0"/>
      <point x="296.0" y="1436.0" type="curve" smooth="yes"/>
      <point x="224.0" y="1436.0"/>
      <point x="150.0" y="1514.0"/>
      <point x="60.0" y="1514.0" type="curve" smooth="yes"/>
      <point x="4.0" y="1514.0"/>
      <point x="-42.0" y="1490.0"/>
      <point x="-72.0" y="1452.0" type="curve"/>
      <point x="-72.0" y="1386.0" type="line"/>
      <point x="-34.0" y="1434.0"/>
      <point x="6.0" y="1458.0"/>
      <point x="60.0" y="1458.0" type="curve" smooth="yes"/>
      <point x="132.0" y="1458.0"/>
      <point x="206.0" y="1380.0"/>
    </contour>
  </outline>
</glyph>
<glyph name="imacron" format="2">
  <advance width="356.0"/>
  <unicode hex="012B"/>
  <anchor x="178.0" y="1200.0" name="_top"/>
  <anchor x="178.0" y="0.0" name="bottom"/>
  <anchor x="212.0" y="0.0" name="ogonek"/>
  <anchor x="178.0" y="1200.0" name="top"/>
  <outline>
    <contour>
      <point x="144.0" y="0.0" type="line"/>
      <point x="212.0" y="0.0" type="line"/>
      <point x="212.0" y="1080.0" type="line"/>
      <point x="144.0" y="1080.0" type="line"/>
    </contour>
    <contour>
      <point x="-72.0" y="1394.0" type="line"/>
      <point x="428.0" y="1394.0" type="line"/>
      <point x="428.0" y="1452.0" type="line"/>
      <point x="-72.0" y="1452.0" type="line"/>
    </contour>
  </outline>
</glyph>
<glyph name="ibreve" format="2">
  <advance width="356.0"/>
  <unicode hex="012D"/>
  <anchor x="178.0" y="1200.0" name="_top"/>
  <anchor x="178.0" y="0.0" name="bottom"/>
  <anchor x="212.0" y="0.0" name="ogonek"/>
  <anchor x="178.0" y="1200.0" name="top"/>
  <outline>
    <contour>
      <point x="144.0" y="0.0" type="line"/>
      <point x="212.0" y="0.0" type="line"/>
      <point x="212.0" y="1080.0" type="line"/>
      <point x="144.0" y="1080.0" type="line"/>
    </contour>
    <contour>
      <point x="180.0" y="1276.0" type="curve" smooth="yes"/>
      <point x="310.0" y="1276.0"/>
      <point x="394.0" y="1374.0"/>
      <point x="400.0" y="1588.0" type="curve"/>
      <point x="344.0" y="1588.0" type="line"/>
      <point x="338.0" y="1404.0"/>
      <point x="280.0" y="1332.0"/>
      <point x="180.0" y="1332.0" type="curve" smooth="yes"/>
      <point x="80.0" y="1332.0"/>
      <point x="22.0" y="1404.0"/>
      <point x="12.0" y="1588.0" type="curve"/>
      <point x="-44.0" y="1588.0" type="line"/>
      <point x="-38.0" y="1376.0"/>
      <point x="50.0" y="1276.0"/>
    </contour>
  </outline>
</glyph>
<glyph name="iogonek" format="2">
  <advance width="356.0"/>
  <unicode hex="012F"/>
  <anchor x="178.0" y="1200.0" name="_top"/>
  <anchor x="178.0" y="0.0" name="bottom"/>
  <anchor x="212.0" y="0.0" name="ogonek"/>
  <anchor x="178.0" y="1200.0" name="top"/>
  <outline>
    <contour>
      <point x="144.0" y="0.0" type="line"/>
      <point x="212.0" y="0.0" type="line"/>
      <point x="212.0" y="1080.0" type="line"/>
      <point x="144.0" y="1080.0" type="line"/>
    </contour>
    <contour>
      <point x="178.0" y="1360.0" type="curve" smooth="yes"/>
      <point x="214.0" y="1360.0"/>
      <point x="240.0" y="1384.0"/>
      <point x="240.0" y="1422.0" type="curve" smooth="yes"/>
      <point x="240.0" y="1460.0"/>
      <point x="214.0" y="1486.0"/>
      <point x="178.0" y="1486.0" type="curve" smooth="yes"/>
      <point x="142.0" y="1486.0"/>
      <point x="116.0" y="1460.0"/>
      <point x="116.0" y="1422.0" type="curve" smooth="yes"/>
      <point x="116.0" y="1384.0"/>
      <point x="142.0" y="1360.0"/>
    </contour>
    <contour>
      <point x="178.0" y="-400.0" type="curve" smooth="yes"/>
      <point x="224.0" y="-400.0"/>
      <point x="274.0" y="-386.0"/>
      <point x="310.0" y="-360.0" type="curve"/>
      <point x="310.0" y="-304.0" type="line"/>
      <point x="270.0" y="-332.0"/>
      <point x="224.0" y="-348.0"/>
      <point x="176.0" y="-348.0" type="curve" smooth="yes"/>
      <point x="100.0" y="-348.0"/>
      <point x="56.0" y="-306.0"/>
      <point x="56.0" y="-228.0" type="curve" smooth="yes"/>
      <point x="56.0" y="-148.0"/>
      <point x="102.0" y="-80.0"/>
      <point x="212.0" y="0.0" type="curve"/>
      <point x="184.0" y="46.0" type="line"/>
      <point x="56.0" y="-46.0"/>
      <point x="0.0" y="-132.0"/>
      <point x="0.0" y="-232.0" type="curve" smooth="yes"/>
      <point x="0.0" y="-338.0"/>
      <point x="66.0" y="-400.0"/>
    </contour>
  </outline>
</glyph>
<glyph name="Idotaccent" format="2">
  <advance width="396.0"/>
  <unicode hex="0130"/>
  <anchor x="198.0" y="1520.0" name="_top"/>
  <anchor x="198.0" y="0.0" name="bottom"/>
  <anchor x="232.0" y="0.0" name="ogonek"/>
  <anchor x="198.0" y="1520.0" name="top"/>
  <outline>
    <contour>
      <point x="164.0" y="0.0" type="line"/>
      <point x="232.0" y="0.0" type="line"/>
      <point x="232.0" y="1480.0" type="line"/>
      <point x="164.0" y="1480.0" type="line"/>
    </contour>
    <contour>
      <point x="198.0" y="1690.0" type="curve" smooth="yes"/>
      <point x="234.0" y="1690.0"/>
      <point x="260.0" y="1714.0"/>
      <point x="260.0" y="1752.0" type="curve" smooth="yes"/>
      <point x="260.0" y="1790.0"/>
      <point x="234.0" y="1816.0"/>
      <point x="198.0" y="1816.0" type="curve" smooth="yes"/>
      <point x="162.0" y="1816.0"/>
      <point x="136.0" y="1790.0"/>
      <point x="136.0" y="1752.0" type="curve" smooth="yes"/>
      <point x="136.0" y="1714.0"/>
      <point x="162.0" y="1690.0"/>
    </contour>
  </outline>
</glyph>
<glyph name="idotless" format="2">
  <advance width="356.0"/>
  <unicode hex="0131"/>
  <anchor x="178.0" y="0.0" name="bottom"/>
  <anchor x="212.0" y="0.0" name="ogonek"/>
  <anchor x="178.0" y="1200.0" name="top"/>
  <outline>
    <contour>
      <point x="144.0" y="0.0" type="line"/>
      <point x="212.0" y="0.0" type="line"/>
      <point x="212.0" y="1080.0" type="line"/>
      <point x="144.0" y="1080.0" type="line"/>
    </contour>
  </outline>
</glyph>
<glyph name="jcircumflex" format="2">
  <advance width="356.0"/>
  <unicode hex="0135"/>
  <anchor x="178.0" y="1200.0" name="_top"/>
  <anchor x="178.0" y="1200.0" name="top"/>
  <outline>
    <contour>
      <point x="24.0" y="-460.0" type="line"/>
      <point x="154.0" y="-256.0"/>
      <point x="212.0" y="-98.0"/>
      <point x="212.0" y="176.0" type="curve" smooth="yes"/>
      <point x="212.0" y="1080.0" type="line"/>
      <point x="144.0" y="1080.0" type="line"/>
      <point x="144.0" y="166.0" type="line" smooth="yes"/>
      <point x="144.0" y="-84.0"/>
      <point x="94.0" y="-236.0"/>
      <point x="-26.0" y="-426.0" type="curve"/>
    </contour>
    <contour>
      <point x="-36.0" y="1264.0" type="line"/>
      <point x="28.0" y="1264.0" type="line"/>
      <point x="186.0" y="1590.0" type="line"/>
      <point x="170.0" y="1590.0" type="line"/>
      <point x="328.0" y="1264.0" type="line"/>
      <point x="392.0" y="1264.0" type="line"/>
      <point x="216.0" y="1616.0" type="line"/>
      <point x="140.0" y="1616.0" type="line"/>
    </contour>
  </outline>
</glyph>
<glyph name="Kcommaaccent" format="2">
  <advance width="1040.0"/>
  <unicode hex="0136"/>
  <anchor x="556.0" y="0.0" name="_bottom"/>
  <anchor x="556.0" y="0.0" name="bottom"/>
  <anchor x="556.0" y="1480.0" name="top"/>
  <outline>
    <contour>
      <point x="996.0" y="0.0" type="line"/>
      <point x="1078.0" y="0.0" type="line"/>
      <point x="472.0" y="774.0" type="line"/>
      <point x="472.0" y="750.0" type="line"/>
      <point x="1036.0" y="1480.0" type="line"/>
      <point x="956.0" y="1480.0" type="line"/>
      <point x="402.0" y="758.0" type="line"/>
    </contour>
    <contour>
      <point x="164.0" y="0.0" type="line"/>
      <point x="232.0" y="0.0" type="line"/>
      <point x="232.0" y="1480.0" type="line"/>
      <point x="164.0" y="1480.0" type="line"/>
    </contour>
    <contour>
      <point x="216.0" y="728.0" type="line"/>
      <point x="444.0" y="728.0" type="line"/>
      <point x="444.0" y="792.0" type="line"/>
      <point x="216.0" y="792.0" type="line"/>
    </contour>
    <contour>
      <point x="530.0" y="-448.0" type="curve"/>
      <point x="574.0" y="-448.0" type="line"/>
      <point x="604.0" y="-386.0"/>
      <point x="618.0" y="-318.0"/>
      <point x="618.0" y="-270.0" type="curve" smooth="yes"/>
      <point x="618.0" y="-212.0"/>
      <point x="592.0" y="-184.0"/>
      <point x="552.0" y="-184.0" type="curve" smooth="yes"/>
      <point x="518.0" y="-184.0"/>
      <point x="494.0" y="-210.0"/>
      <point x="494.0" y="-246.0" type="curve" smooth="yes"/>
      <point x="494.0" y="-284.0"/>
      <point x="520.0" y="-310.0"/>
      <point x="556.0" y="-310.0" type="curve" smooth="yes"/>
      <point x="568.0" y="-310.0" type="line"/>
      <point x="564.0" y="-278.0" type="line"/>
      <point x="564.0" y="-326.0"/>
      <point x="558.0" y="-376.0"/>
    </contour>
  </outline>
</glyph>
<glyph name="kcommaaccent" format="2">
  <advance width="832.0"/>
  <unicode hex="0137"/>
  <anchor x="462.0" y="0.0" name="_bottom"/>
  <anchor x="462.0" y="0.0" name="bottom"/>
  <anchor x="178.0" y="1616.0" name="top"/>
  <outline>
    <contour>
      <point x="772.0" y="0.0" type="line"/>
      <point x="856.0" y="0.0" type="line"/>
      <point x="434.0" y="564.0" type="line"/>
      <point x="434.0" y="540.0" type="line"/>
      <point x="824.0" y="1080.0" type="line"/>
      <point x="742.0" y="1080.0" type="line"/>
      <point x="360.0" y="552.0" type="line"/>
    </contour>
    <contour>
      <point x="196.0" y="520.0" type="line"/>
      <point x="400.0" y="520.0" type="line"/>
      <point x="400.0" y="584.0" type="line"/>
      <point x="196.0" y="584.0" type="line"/>
    </contour>
    <contour>
      <point x="144.0" y="0.0" type="line"/>
      <point x="212.0" y="0.0" type="line"/>
      <point x="212.0" y="1616.0" type="line"/>
      <point x="144.0" y="1616.0" type="line"/>
    </contour>
    <contour>
      <point x="436.0" y="-448.0" type="curve"/>
      <point x="480.0" y="-448.0" type="line"/>
      <point x="510.0" y="-386.0"/>
      <point x="524.0" y="-318.0"/>
      <point x="524.0" y="-270.0" type="curve" smooth="yes"/>
      <point x="524.0" y="-212.0"/>
      <point x="498.0" y="-184.0"/>
      <point x="458.0" y="-184.0" type="curve" smooth="yes"/>
      <point x="424.0" y="-184.0"/>
      <point x="400.0" y="-210.0"/>
      <point x="400.0" y="-246.0" type="curve" smooth="yes"/>
      <point x="400.0" y="-284.0"/>
      <point x="426.0" y="-310.0"/>
      <point x="462.0" y="-310.0" type="curve" smooth="yes"/>
      <point x="474.0" y="-310.0" type="line"/>
      <point x="470.0" y="-278.0" type="line"/>
      <point x="470.0" y="-326.0"/>
      <point x="464.0" y="-376.0"/>
    </contour>
  </outline>
</glyph>
<glyph name="Lcommaaccent" format="2">
  <advance width="890.0"/>
  <unicode hex="013B"/>
  <anchor x="526.0" y="0.0" name="_bottom"/>
  <anchor x="526.0" y="0.0" name="bottom"/>
  <anchor x="578.0" y="1616.0" name="caronalt"/>
  <anchor x="640.0" y="774.0" name="periodcentered"/>
  <anchor x="198.0" y="774.0" name="slash"/>
  <anchor x="198.0" y="1520.0" name="top"/>
  <outline>
    <contour>
      <point x="164.0" y="0.0" type="line"/>
      <point x="886.0" y="0.0" type="line"/>
      <point x="886.0" y="66.0" type="line"/>
      <point x="232.0" y="66.0" type="line"/>
      <point x="232.0" y="1480.0" type="line"/>
      <point x="164.0" y="1480.0" type="line"/>
    </contour>
    <contour>
      <point x="500.0" y="-448.0" type="curve"/>
      <point x="544.0" y="-448.0" type="line"/>
      <point x="574.0" y="-386.0"/>
      <point x="588.0" y="-318.0"/>
      <point x="588.0" y="-270.0" type="curve" smooth="yes"/>
      <point x="588.0" y="-212.0"/>
      <point x="562.0" y="-184.0"/>
      <point x="522.0" y="-184.0" type="curve" smooth="yes"/>
      <point x="488.0" y="-184.0"/>
      <point x="464.0" y="-210.0"/>
      <point x="464.0" y="-246.0" type="curve" smooth="yes"/>
      <point x="464.0" y="-284.0"/>
      <point x="490.0" y="-310.0"/>
      <point x="526.0" y="-310.0" type="curve" smooth="yes"/>
      <point x="538.0" y="-310.0" type="line"/>
      <point x="534.0" y="-278.0" type="line"/>
      <point x="534.0" y="-326.0"/>
      <point x="528.0" y="-376.0"/>
    </contour>
  </outline>
</glyph>
<glyph name="lcommaaccent" format="2">
  <advance width="356.0"/>
  <unicode hex="013C"/>
  <anchor x="178.0" y="0.0" name="_bottom"/>
  <anchor x="178.0" y="0.0" name="bottom"/>
  <anchor x="312.0" y="1616.0" name="caronalt"/>
  <anchor x="350.0" y="794.0" name="periodcentered"/>
  <anchor x="178.0" y="714.0" name="slash"/>
  <anchor x="178.0" y="1616.0" name="top"/>
  <outline>
    <contour>
      <point x="144.0" y="0.0" type="line"/>
      <point x="212.0" y="0.0" type="line"/>
      <point x="212.0" y="1616.0" type="line"/>
      <point x="144.0" y="1616.0" type="line"/>
    </contour>
    <contour>
      <point x="152.0" y="-448.0" type="curve"/>
      <point x="196.0" y="-448.0" type="line"/>
      <point x="226.0" y="-386.0"/>
      <point x="240.0" y="-318.0"/>
      <point x="240.0" y="-270.0" type="curve" smooth="yes"/>
      <point x="240.0" y="-212.0"/>
      <point x="214.0" y="-184.0"/>
      <point x="174.0" y="-184.0" type="curve" smooth="yes"/>
      <point x="140.0" y="-184.0"/>
      <point x="116.0" y="-210.0"/>
      <point x="116.0" y="-246.0" type="curve" smooth="yes"/>
      <point x="116.0" y="-284.0"/>
      <point x="142.0" y="-310.0"/>
      <point x="178.0" y="-310.0" type="curve" smooth="yes"/>
      <point x="190.0" y="-310.0" type="line"/>
      <point x="186.0" y="-278.0" type="line"/>
      <point x="186.0" y="-326.0"/>
      <point x="180.0" y="-376.0"/>
    </contour>
  </outline>
</glyph>
<glyph name="Lcaron" format="2">
  <advance width="890.0"/>
  <unicode hex="013D"/>
  <anchor x="578.0" y="1616.0" name="_caronalt"/>
  <anchor x="526.0" y="0.0" name="bottom"/>
  <anchor x="578.0" y="1616.0" name="caronalt"/>
  <anchor x="640.0" y="774.0" name="periodcentered"/>
  <anchor x="198.0" y="774.0" name="slash"/>
  <anchor x="198.0" y="1520.0" name="top"/>
  <outline>
    <contour>
      <point x="164.0" y="0.0" type="line"/>
      <point x="886.0" y="0.0" type="line"/>
      <point x="886.0" y="66.0" type="line"/>
      <point x="232.0" y="66.0" type="line"/>
      <point x="232.0" y="1480.0" type="line"/>
      <point x="164.0" y="1480.0" type="line"/>
    </contour>
    <contour>
      <point x="560.0" y="1140.0" type="curve"/>
      <point x="606.0" y="1140.0" type="line"/>
      <point x="634.0" y="1282.0"/>
      <point x="642.0" y="1446.0"/>
      <point x="642.0" y="1616.0" type="curve"/>
      <point x="578.0" y="1616.0" type="line"/>
      <point x="578.0" y="1452.0"/>
      <point x="576.0" y="1280.0"/>
    </contour>
  </outline>
</glyph>
<glyph name="ldot" format="2">
  <advance width="356.0"/>
  <unicode hex="0140"/>
  <outline>
    <contour>
      <point x="144.0" y="0.0" type="line"/>
      <point x="212.0" y="0.0" type="line"/>
      <point x="212.0" y="1616.0" type="line"/>
      <point x="144.0" y="1616.0" type="line"/>
    </contour>
    <contour>
      <point x="350.0" y="730.0" type="curve" smooth="yes"/>
      <point x="386.0" y="730.0"/>
      <point x="412.0" y="754.0"/>
      <point x="412.0" y="792.0" type="curve" smooth="yes"/>
      <point x="412.0" y="830.0"/>
      <point x="386.0" y="856.0"/>
      <point x="350.0" y="856.0" type="curve" smooth="yes"/>
      <point x="314.0" y="856.0"/>
      <point x="288.0" y="830.0"/>
      <point x="288.0" y="792.0" type="curve" smooth="yes"/>
      <point x="288.0" y="754.0"/>
      <point x="314.0" y="730.0"/>
    </contour>
  </outline>
</glyph>
<glyph name="nacute" format="2">
  <advance width="930.0"/>
  <unicode hex="0144"/>
  <anchor x="470.0" y="1200.0" name="_top"/>
  <anchor x="10.0" y="1200.0" name="apostrophe"/>
  <anchor x="470.0" y="0.0" name="bottom"/>
  <anchor x="470.0" y="1200.0" name="top"/>
  <outline>
    <contour>
      <point x="144.0" y="0.0" type="line"/>
      <point x="212.0" y="0.0" type="line"/>
      <point x="212.0" y="850.0" type="line"/>
      <point x="286.0" y="986.0"/>
      <point x="418.0" y="1030.0"/>
      <point x="510.0" y="1030.0" type="curve" smooth="yes"/>
      <point x="640.0" y="1030.0"/>
      <point x="728.0" y="968.0"/>
      <point x="728.0" y="774.0" type="curve" smooth="yes"/>
      <point x="728.0" y="0.0" type="line"/>
      <point x="796.0" y="0.0" type="line"/>
      <point x="796.0" y="776.0" type="line" smooth="yes"/>
      <point x="796.0" y="1020.0"/>
      <point x="674.0" y="1096.0"/>
      <point x="514.0" y="1096.0" type="curve" smooth="yes"/>
      <point x="396.0" y="1096.0"/>
      <point x="292.0" y="1044.0"/>
      <point x="218.0" y="956.0" type="curve"/>
      <point x="210.0" y="956.0" type="line"/>
      <point x="204.0" y="1080.0" type="line"/>
      <point x="144.0" y="1080.0" type="line"/>
    </contour>
    <contour>
      <point x="442.0" y="1264.0" type="line"/>
      <point x="498.0" y="1264.0" type="line"/>
      <point x="662.0" y="1616.0" type="line"/>
      <point x="590.0" y="1616.0" type="line"/>
    </contour>
  </outline>
</glyph>
<glyph name="ncommaaccent" format="2">
  <advance width="930.0"/>
  <unicode hex="0146"/>
  <anchor x="470.0" y="0.0" name="_bottom"/>
  <anchor x="10.0" y="1200.0" name="apostrophe"/>
  <anchor x="470.0" y="0.0" name="bottom"/>
  <anchor x="470.0" y="1200.0" name="top"/>
  <outline>
    <contour>
      <point x="144.0" y="0.0" type="line"/>
      <point x="212.0" y="0.0" type="line"/>
      <point x="212.0" y="850.0" type="line"/>
      <point x="286.0" y="986.0"/>
      <point x="418.0" y="1030.0"/>
      <point x="510.0" y="1030.0" type="curve" smooth="yes"/>
      <point x="640.0" y="1030.0"/>
      <point x="728.0" y="968.0"/>
      <point x="728.0" y="774.0" type="curve" smooth="yes"/>
      <point x="728.0" y="0.0" type="line"/>
      <point x="796.0" y="0.0" type="line"/>
      <point x="796.0" y="776.0" type="line" smooth="yes"/>
      <point x="796.0" y="1020.0"/>
      <point x="674.0" y="1096.0"/>
      <point x="514.0" y="1096.0" type="curve" smooth="yes"/>
      <point x="396.0" y="1096.0"/>
      <point x="292.0" y="1044.0"/>
      <point x="218.0" y="956.0" type="curve"/>
      <point x="210.0" y="956.0" type="line"/>
      <point x="204.0" y="1080.0" type="line"/>
      <point x="144.0" y="1080.0" type="line"/>
    </contour>
    <contour>
      <point x="444.0" y="-448.0" type="curve"/>
      <point x="488.0" y="-448.0" type="line"/>
      <point x="518.0" y="-386.0"/>
      <point x="532.0" y="-318.0"/>
      <point x="532.0" y="-270.0" type="curve" smooth="yes"/>
      <point x="532.0" y="-212.0"/>
      <point x="506.0" y="-184.0"/>
      <point x="466.0" y="-184.0" type="curve" smooth="yes"/>
      <point x="432.0" y="-184.0"/>
      <point x="408.0" y="-210.0"/>
      <point x="408.0" y="-246.0" type="curve" smooth="yes"/>
      <point x="408.0" y="-284.0"/>
      <point x="434.0" y="-310.0"/>
      <point x="470.0" y="-310.0" type="curve" smooth="yes"/>
      <point x="482.0" y="-310.0" type="line"/>
      <point x="478.0" y="-278.0" type="line"/>
      <point x="478.0" y="-326.0"/>
      <point x="472.0" y="-376.0"/>
    </contour>
  </outline>
</glyph>
<glyph name="Ncaron" format="2">
  <advance width="1248.0"/>
  <unicode hex="0147"/>
  <anchor x="624.0" y="1520.0" name="_top"/>
  <anchor x="624.0" y="0.0" name="bottom"/>
  <anchor x="624.0" y="1520.0" name="top"/>
  <outline>
    <contour>
      <point x="164.0" y="0.0" type="line"/>
      <point x="230.0" y="0.0" type="line"/>
      <point x="230.0" y="1420.0" type="line"/>
      <point x="198.0" y="1420.0" type="line"/>
      <point x="1008.0" y="0.0" type="line"/>
      <point x="1084.0" y="0.0" type="line"/>
      <point x="1084.0" y="1480.0" type="line"/>
      <point x="1018.0" y="1480.0" type="line"/>
      <point x="1018.0" y="60.0" type="line"/>
      <point x="1050.0" y="60.0" type="line"/>
      <point x="240.0" y="1480.0" type="line"/>
      <point x="164.0" y="1480.0" type="line"/>
    </contour>
    <contour>
      <point x="586.0" y="1616.0" type="line"/>
      <point x="662.0" y="1616.0" type="line"/>
      <point x="858.0" y="1888.0" type="line"/>
      <point x="788.0" y="1888.0" type="line"/>
      <point x="616.0" y="1646.0" type="line"/>
      <point x="632.0" y="1646.0" type="line"/>
      <point x="460.0" y="1888.0" type="line"/>
      <point x="390.0" y="1888.0" type="line"/>
    </contour>
  </outline>
</glyph>
<glyph name="Eng" format="2">
  <advance width="1248.0"/>
  <unicode hex="014A"/>
  <outline>
    <contour>
      <point x="1026.0" y="-32.0" type="line"/>
      <point x="1068.0" y="28.0" type="line"/>
      <point x="240.0" y="1480.0" type="line"/>
      <point x="164.0" y="1480.0" type="line"/>
      <point x="164.0" y="0.0" type="line"/>
      <point x="230.0" y="0.0" type="line"/>
      <point x="230.0" y="1420.0" type="line"/>
      <point x="198.0" y="1420.0" type="line"/>
    </contour>
    <contour>
      <point x="896.0" y="-460.0" type="line"/>
      <point x="1026.0" y="-256.0"/>
      <point x="1084.0" y="-98.0"/>
      <point x="1084.0" y="176.0" type="curve" smooth="yes"/>
      <point x="1084.0" y="1480.0" type="line"/>
      <point x="1018.0" y="1480.0" type="line"/>
      <point x="1018.0" y="166.0" type="line" smooth="yes"/>
      <point x="1018.0" y="-84.0"/>
      <point x="966.0" y="-236.0"/>
      <point x="846.0" y="-426.0" type="curve"/>
    </contour>
  </outline>
</glyph>
<glyph name="Obreve" format="2">
  <advance width="1164.0"/>
  <unicode hex="014E"/>
  <anchor x="582.0" y="1520.0" name="_top"/>
  <anchor x="582.0" y="0.0" name="bottom"/>
  <anchor x="582.0" y="740.0" name="center"/>
  <anchor x="722.0" y="0.0" name="ogonek"/>
  <anchor x="582.0" y="1520.0" name="top"/>
  <anchor x="38.0" y="1480.0" name="topleft"/>
  <anchor x="722.0" y="1480.0" name="topright"/>
  <outline>
    <contour>
      <point x="582.0" y="-18.0" type="curve" smooth="yes"/>
      <point x="878.0" y="-18.0"/>
      <point x="1066.0" y="182.0"/>
      <point x="1066.0" y="740.0" type="curve" smooth="yes"/>
      <point x="1066.0" y="1298.0"/>
      <point x="878.0" y="1498.0"/>
      <point x="582.0" y="1498.0" type="curve" smooth="yes"/>
      <point x="286.0" y="1498.0"/>
      <point x="98.0" y="1298.0"/>
      <point x="98.0" y="740.0" type="curve" smooth="yes"/>
      <point x="98.0" y="182.0"/>
      <point x="286.0" y="-18.0"/>
    </contour>
    <contour>
      <point x="582.0" y="48.0" type="curve" smooth="yes"/>
      <point x="334.0" y="48.0"/>
      <point x="170.0" y="206.0"/>
      <point x="170.0" y="744.0" type="curve" smooth="yes"/>
      <point x="170.0" y="1274.0"/>
      <point x="334.0" y="1432.0"/>
      <point x="582.0" y="1432.0" type="curve" smooth="yes"/>
      <point x="830.0" y="1432.0"/>
      <point x="994.0" y="1274.0"/>
      <point x="994.0" y="736.0" type="curve" smooth="yes"/>
      <point x="994.0" y="206.0"/>
      <point x="830.0" y="48.0"/>
    </contour>
    <contour>
      <point x="584.0" y="1628.0" type="curve" smooth="yes"/>
      <point x="730.0" y="1628.0"/>
      <point x="814.0" y="1704.0"/>
      <point x="824.0" y="1860.0" type="curve"/>
      <point x="768.0" y="1860.0" type="line"/>
      <point x="758.0" y="1736.0"/>
      <point x="704.0" y="1686.0"/>
      <point x="584.0" y="1686.0" type="curve" smooth="yes"/>
      <point x="464.0" y="1686.0"/>
      <point x="410.0" y="1736.0"/>
      <point x="396.0" y="1860.0" type="curve"/>
      <point x="340.0" y="1860.0" type="line"/>
      <point x="350.0" y="1706.0"/>
      <point x="438.0" y="1628.0"/>
    </contour>
  </outline>
</glyph>
<glyph name="Ohungarumlaut" format="2">
  <advance width="1164.0"/>
  <unicode hex="0150"/>
  <anchor x="582.0" y="1520.0" name="_top"/>
  <anchor x="582.0" y="0.0" name="bottom"/>
  <anchor x="582.0" y="740.0" name="center"/>
  <anchor x="722.0" y="0.0" name="ogonek"/>
  <anchor x="582.0" y="1520.0" name="top"/>
  <anchor x="38.0" y="1480.0" name="topleft"/>
  <anchor x="722.0" y="1480.0" name="topright"/>
  <outline>
    <contour>
      <point x="582.0" y="-18.0" type="curve" smooth="yes"/>
      <point x="878.0" y="-18.0"/>
      <point x="1066.0" y="182.0"/>
      <point x="1066.0" y="740.0" type="curve" smooth="yes"/>
      <point x="1066.0" y="1298.0"/>
      <point x="878.0" y="1498.0"/>
      <point x="582.0" y="1498.0" type="curve" smooth="yes"/>
      <point x="286.0" y="1498.0"/>
      <point x="98.0" y="1298.0"/>
      <point x="98.0" y="740.0" type="curve" smooth="yes"/>
      <point x="98.0" y="182.0"/>
      <point x="286.0" y="-18.0"/>
    </contour>
    <contour>
      <point x="582.0" y="48.0" type="curve" smooth="yes"/>
      <point x="334.0" y="48.0"/>
      <point x="170.0" y="206.0"/>
      <point x="170.0" y="744.0" type="curve" smooth="yes"/>
      <point x="170.0" y="1274.0"/>
      <point x="334.0" y="1432.0"/>
      <point x="582.0" y="1432.0" type="curve" smooth="yes"/>
      <point x="830.0" y="1432.0"/>
      <point x="994.0" y="1274.0"/>
      <point x="994.0" y="736.0" type="curve" smooth="yes"/>
      <point x="994.0" y="206.0"/>
      <point x="830.0" y="48.0"/>
    </contour>
    <contour>
      <point x="682.0" y="1616.0" type="line"/>
      <point x="736.0" y="1616.0" type="line"/>
      <point x="832.0" y="1888.0" type="line"/>
      <point x="768.0" y="1888.0" type="line"/>
    </contour>
    <contour>
      <point x="428.0" y="1616.0" type="line"/>
      <point x="482.0" y="1616.0" type="line"/>
      <point x="578.0" y="1888.0" type="line"/>
      <point x="514.0" y="1888.0" type="line"/>
    </contour>
  </outline>
</glyph>
<glyph name="racute" format="2">
  <advance width="566.0"/>
  <unicode hex="0155"/>
  <anchor x="324.0" y="1200.0" name="_top"/>
  <anchor x="178.0" y="0.0" name="bottom"/>
  <anchor x="324.0" y="1200.0" name="top"/>
  <outline>
    <contour>
      <point x="144.0" y="0.0" type="line"/>
      <point x="212.0" y="0.0" type="line"/>
      <point x="212.0" y="828.0" type="line"/>
      <point x="272.0" y="952.0"/>
      <point x="390.0" y="1018.0"/>
      <point x="500.0" y="1018.0" type="curve" smooth="yes"/>
      <point x="524.0" y="1018.0"/>
      <point x="536.0" y="1018.0"/>
      <point x="556.0" y="1016.0" type="curve"/>
      <point x="556.0" y="1084.0" type="line"/>
      <point x="544.0" y="1086.0"/>
      <point x="526.0" y="1088.0"/>
      <point x="502.0" y="1088.0" type="curve" smooth="yes"/>
      <point x="394.0" y="1088.0"/>
      <point x="288.0" y="1036.0"/>
      <point x="218.0" y="934.0" type="curve"/>
      <point x="210.0" y="934.0" type="line"/>
      <point x="204.0" y="1080.0" type="line"/>
      <point x="144.0" y="1080.0" type="line"/>
    </contour>
    <contour>
      <point x="296.0" y="1264.0" type="line"/>
      <point x="352.0" y="1264.0" type="line"/>
      <point x="516.0" y="1616.0" type="line"/>
      <point x="444.0" y="1616.0" type="line"/>
    </contour>
  </outline>
</glyph>
<glyph name="rcommaaccent" format="2">
  <advance width="566.0"/>
  <unicode hex="0157"/>
  <anchor x="178.0" y="0.0" name="_bottom"/>
  <anchor x="178.0" y="0.0" name="bottom"/>
  <anchor x="324.0" y="1200.0" name="top"/>
  <outline>
    <contour>
      <point x="144.0" y="0.0" type="line"/>
      <point x="212.0" y="0.0" type="line"/>
      <point x="212.0" y="828.0" type="line"/>
      <point x="272.0" y="952.0"/>
      <point x="390.0" y="1018.0"/>
      <point x="500.0" y="1018.0" type="curve" smooth="yes"/>
      <point x="524.0" y="1018.0"/>
      <point x="536.0" y="1018.0"/>
      <point x="556.0" y="1016.0" type="curve"/>
      <point x="556.0" y="1084.0" type="line"/>
      <point x="544.0" y="1086.0"/>
      <point x="526.0" y="1088.0"/>
      <point x="502.0" y="1088.0" type="curve" smooth="yes"/>
      <point x="394.0" y="1088.0"/>
      <point x="288.0" y="1036.0"/>
      <point x="218.0" y="934.0" type="curve"/>
      <point x="210.0" y="934.0" type="line"/>
      <point x="204.0" y="1080.0" type="line"/>
      <point x="144.0" y="1080.0" type="line"/>
    </contour>
    <contour>
      <point x="152.0" y="-448.0" type="curve"/>
      <point x="196.0" y="-448.0" type="line"/>
      <point x="226.0" y="-386.0"/>
      <point x="240.0" y="-318.0"/>
      <point x="240.0" y="-270.0" type="curve" smooth="yes"/>
      <point x="240.0" y="-212.0"/>
      <point x="214.0" y="-184.0"/>
      <point x="174.0" y="-184.0" type="curve" smooth="yes"/>
      <point x="140.0" y="-184.0"/>
      <point x="116.0" y="-210.0"/>
      <point x="116.0" y="-246.0" type="curve" smooth="yes"/>
      <point x="116.0" y="-284.0"/>
      <point x="142.0" y="-310.0"/>
      <point x="178.0" y="-310.0" type="curve" smooth="yes"/>
      <point x="190.0" y="-310.0" type="line"/>
      <point x="186.0" y="-278.0" type="line"/>
      <point x="186.0" y="-326.0"/>
      <point x="180.0" y="-376.0"/>
    </contour>
  </outline>
</glyph>
<glyph name="Scedilla" format="2">
  <advance width="866.0"/>
  <unicode hex="015E"/>
  <anchor x="440.0" y="0.0" name="_bottom"/>
  <anchor x="440.0" y="0.0" name="bottom"/>
  <anchor x="440.0" y="1520.0" name="top"/>
  <outline>
    <contour>
      <point x="364.0" y="-18.0" type="curve" smooth="yes"/>
      <point x="642.0" y="-18.0"/>
      <point x="798.0" y="122.0"/>
      <point x="798.0" y="376.0" type="curve" smooth="yes"/>
      <point x="798.0" y="582.0"/>
      <point x="686.0" y="702.0"/>
      <point x="472.0" y="776.0" type="curve" smooth="yes"/>
      <point x="420.0" y="794.0" type="line" smooth="yes"/>
      <point x="220.0" y="864.0"/>
      <point x="140.0" y="948.0"/>
      <point x="140.0" y="1124.0" type="curve" smooth="yes"/>
      <point x="140.0" y="1322.0"/>
      <point x="256.0" y="1432.0"/>
      <point x="494.0" y="1432.0" type="curve" smooth="yes"/>
      <point x="578.0" y="1432.0"/>
      <point x="658.0" y="1422.0"/>
      <point x="744.0" y="1394.0" type="curve"/>
      <point x="744.0" y="1462.0" type="line"/>
      <point x="676.0" y="1486.0"/>
      <point x="576.0" y="1498.0"/>
      <point x="498.0" y="1498.0" type="curve" smooth="yes"/>
      <point x="218.0" y="1498.0"/>
      <point x="68.0" y="1356.0"/>
      <point x="68.0" y="1120.0" type="curve" smooth="yes"/>
      <point x="68.0" y="918.0"/>
      <point x="178.0" y="802.0"/>
      <point x="384.0" y="730.0" type="curve" smooth="yes"/>
      <point x="436.0" y="712.0" type="line" smooth="yes"/>
      <point x="642.0" y="640.0"/>
      <point x="726.0" y="556.0"/>
      <point x="726.0" y="372.0" type="curve" smooth="yes"/>
      <point x="726.0" y="156.0"/>
      <point x="602.0" y="48.0"/>
      <point x="370.0" y="48.0" type="curve" smooth="yes"/>
      <point x="280.0" y="48.0"/>
      <point x="186.0" y="64.0"/>
      <point x="82.0" y="100.0" type="curve"/>
      <point x="82.0" y="32.0" type="line"/>
      <point x="176.0" y="-2.0"/>
      <point x="280.0" y="-18.0"/>
    </contour>
    <contour>
      <point x="452.0" y="-400.0" type="curve" smooth="yes"/>
      <point x="554.0" y="-400.0"/>
      <point x="628.0" y="-350.0"/>
      <point x="628.0" y="-256.0" type="curve" smooth="yes"/>
      <point x="628.0" y="-162.0"/>
      <point x="554.0" y="-112.0"/>
      <point x="452.0" y="-112.0" type="curve"/>
      <point x="468.0" y="-142.0" type="line"/>
      <point x="468.0" y="20.0" type="line"/>
      <point x="412.0" y="20.0" type="line"/>
      <point x="412.0" y="-164.0" type="line"/>
      <point x="450.0" y="-164.0" type="line" smooth="yes"/>
      <point x="524.0" y="-164.0"/>
      <point x="572.0" y="-192.0"/>
      <point x="572.0" y="-256.0" type="curve" smooth="yes"/>
      <point x="572.0" y="-320.0"/>
      <point x="524.0" y="-348.0"/>
      <point x="452.0" y="-348.0" type="curve" smooth="yes"/>
      <point x="400.0" y="-348.0"/>
      <point x="350.0" y="-338.0"/>
      <point x="280.0" y="-306.0" type="curve"/>
      <point x="280.0" y="-362.0" type="line"/>
      <point x="334.0" y="-388.0"/>
      <point x="396.0" y="-400.0"/>
    </contour>
  </outline>
</glyph>
<glyph name="scedilla" format="2">
  <advance width="724.0"/>
  <unicode hex="015F"/>
  <anchor x="370.0" y="0.0" name="_bottom"/>
  <anchor x="370.0" y="0.0" name="bottom"/>
  <anchor x="370.0" y="1200.0" name="top"/>
  <outline>
    <contour>
      <point x="320.0" y="-18.0" type="curve" smooth="yes"/>
      <point x="536.0" y="-18.0"/>
      <point x="660.0" y="92.0"/>
      <point x="660.0" y="278.0" type="curve" smooth="yes"/>
      <point x="660.0" y="418.0"/>
      <point x="606.0" y="516.0"/>
      <point x="414.0" y="570.0" type="curve" smooth="yes"/>
      <point x="322.0" y="596.0" type="line" smooth="yes"/>
      <point x="202.0" y="630.0"/>
      <point x="146.0" y="694.0"/>
      <point x="146.0" y="810.0" type="curve" smooth="yes"/>
      <point x="146.0" y="932.0"/>
      <point x="232.0" y="1030.0"/>
      <point x="416.0" y="1030.0" type="curve" smooth="yes"/>
      <point x="484.0" y="1030.0"/>
      <point x="538.0" y="1024.0"/>
      <point x="610.0" y="1006.0" type="curve"/>
      <point x="610.0" y="1074.0" type="line"/>
      <point x="550.0" y="1088.0"/>
      <point x="490.0" y="1096.0"/>
      <point x="416.0" y="1096.0" type="curve" smooth="yes"/>
      <point x="198.0" y="1096.0"/>
      <point x="76.0" y="972.0"/>
      <point x="76.0" y="806.0" type="curve" smooth="yes"/>
      <point x="76.0" y="668.0"/>
      <point x="136.0" y="576.0"/>
      <point x="316.0" y="524.0" type="curve" smooth="yes"/>
      <point x="408.0" y="498.0" type="line" smooth="yes"/>
      <point x="526.0" y="464.0"/>
      <point x="590.0" y="406.0"/>
      <point x="590.0" y="274.0" type="curve" smooth="yes"/>
      <point x="590.0" y="128.0"/>
      <point x="492.0" y="48.0"/>
      <point x="320.0" y="48.0" type="curve" smooth="yes"/>
      <point x="250.0" y="48.0"/>
      <point x="182.0" y="60.0"/>
      <point x="94.0" y="88.0" type="curve"/>
      <point x="94.0" y="20.0" type="line"/>
      <point x="164.0" y="-4.0"/>
      <point x="240.0" y="-18.0"/>
    </contour>
    <contour>
      <point x="366.0" y="-400.0" type="curve" smooth="yes"/>
      <point x="472.0" y="-400.0"/>
      <point x="532.0" y="-342.0"/>
      <point x="532.0" y="-258.0" type="curve" smooth="yes"/>
      <point x="532.0" y="-170.0"/>
      <point x="478.0" y="-114.0"/>
      <point x="370.0" y="-114.0" type="curve"/>
      <point x="400.0" y="-142.0" type="line"/>
      <point x="400.0" y="20.0" type="line"/>
      <point x="344.0" y="20.0" type="line"/>
      <point x="344.0" y="-164.0" type="line"/>
      <point x="370.0" y="-164.0" type="line" smooth="yes"/>
      <point x="440.0" y="-164.0"/>
      <point x="478.0" y="-194.0"/>
      <point x="478.0" y="-258.0" type="curve" smooth="yes"/>
      <point x="478.0" y="-316.0"/>
      <point x="444.0" y="-348.0"/>
      <point x="372.0" y="-348.0" type="curve" smooth="yes"/>
      <point x="326.0" y="-348.0"/>
      <point x="276.0" y="-340.0"/>
      <point x="222.0" y="-310.0" type="curve"/>
      <point x="222.0" y="-366.0" type="line"/>
      <point x="260.0" y="-388.0"/>
      <point x="318.0" y="-400.0"/>
    </contour>
  </outline>
</glyph>
<glyph name="Tcedilla" format="2">
  <advance width="980.0"/>
  <unicode hex="0162"/>
  <anchor x="490.0" y="0.0" name="_bottom"/>
  <anchor x="490.0" y="0.0" name="bottom"/>
  <anchor x="490.0" y="800.0" name="center"/>
  <anchor x="490.0" y="1520.0" name="top"/>
  <outline>
    <contour>
      <point x="456.0" y="0.0" type="line"/>
      <point x="524.0" y="0.0" type="line"/>
      <point x="524.0" y="1414.0" type="line"/>
      <point x="972.0" y="1414.0" type="line"/>
      <point x="972.0" y="1480.0" type="line"/>
      <point x="8.0" y="1480.0" type="line"/>
      <point x="8.0" y="1414.0" type="line"/>
      <point x="456.0" y="1414.0" type="line"/>
    </contour>
    <contour>
      <point x="502.0" y="-400.0" type="curve" smooth="yes"/>
      <point x="604.0" y="-400.0"/>
      <point x="678.0" y="-350.0"/>
      <point x="678.0" y="-256.0" type="curve" smooth="yes"/>
      <point x="678.0" y="-162.0"/>
      <point x="604.0" y="-112.0"/>
      <point x="502.0" y="-112.0" type="curve"/>
      <point x="518.0" y="-142.0" type="line"/>
      <point x="518.0" y="20.0" type="line"/>
      <point x="462.0" y="20.0" type="line"/>
      <point x="462.0" y="-164.0" type="line"/>
      <point x="500.0" y="-164.0" type="line" smooth="yes"/>
      <point x="574.0" y="-164.0"/>
      <point x="622.0" y="-192.0"/>
      <point x="622.0" y="-256.0" type="curve" smooth="yes"/>
      <point x="622.0" y="-320.0"/>
      <point x="574.0" y="-348.0"/>
      <point x="502.0" y="-348.0" type="curve" smooth="yes"/>
      <point x="450.0" y="-348.0"/>
      <point x="400.0" y="-338.0"/>
      <point x="330.0" y="-306.0" type="curve"/>
      <point x="330.0" y="-362.0" type="line"/>
      <point x="384.0" y="-388.0"/>
      <point x="446.0" y="-400.0"/>
    </contour>
  </outline>
</glyph>
<glyph name="tcedilla" format="2">
  <advance width="592.0"/>
  <unicode hex="0163"/>
  <anchor x="394.0" y="0.0" name="_bottom"/>
  <anchor x="394.0" y="0.0" name="bottom"/>
  <anchor x="468.0" y="1616.0" name="caronalt"/>
  <anchor x="200.0" y="660.0" name="stroke"/>
  <anchor x="234.0" y="1480.0" name="top"/>
  <anchor x="568.0" y="1616.0" name="topright"/>
  <outline>
    <contour>
      <point x="468.0" y="-18.0" type="curve" smooth="yes"/>
      <point x="506.0" y="-18.0"/>
      <point x="552.0" y="-12.0"/>
      <point x="588.0" y="-4.0" type="curve"/>
      <point x="588.0" y="64.0" type="line"/>
      <point x="548.0" y="54.0"/>
      <point x="508.0" y="48.0"/>
      <point x="472.0" y="48.0" type="curve" smooth="yes"/>
      <point x="336.0" y="48.0"/>
      <point x="268.0" y="108.0"/>
      <point x="268.0" y="290.0" type="curve" smooth="yes"/>
      <point x="268.0" y="1480.0" type="line"/>
      <point x="208.0" y="1480.0" type="line"/>
      <point x="200.0" y="1080.0" type="line"/>
      <point x="200.0" y="278.0" type="line" smooth="yes"/>
      <point x="200.0" y="64.0"/>
      <point x="302.0" y="-18.0"/>
    </contour>
    <contour>
      <point x="0.0" y="1016.0" type="line"/>
      <point x="568.0" y="1016.0" type="line"/>
      <point x="568.0" y="1080.0" type="line"/>
      <point x="0.0" y="1080.0" type="line"/>
    </contour>
    <contour>
      <point x="390.0" y="-400.0" type="curve" smooth="yes"/>
      <point x="496.0" y="-400.0"/>
      <point x="556.0" y="-342.0"/>
      <point x="556.0" y="-258.0" type="curve" smooth="yes"/>
      <point x="556.0" y="-170.0"/>
      <point x="502.0" y="-114.0"/>
      <point x="394.0" y="-114.0" type="curve"/>
      <point x="424.0" y="-142.0" type="line"/>
      <point x="424.0" y="20.0" type="line"/>
      <point x="368.0" y="20.0" type="line"/>
      <point x="368.0" y="-164.0" type="line"/>
      <point x="394.0" y="-164.0" type="line" smooth="yes"/>
      <point x="464.0" y="-164.0"/>
      <point x="502.0" y="-194.0"/>
      <point x="502.0" y="-258.0" type="curve" smooth="yes"/>
      <point x="502.0" y="-316.0"/>
      <point x="468.0" y="-348.0"/>
      <point x="396.0" y="-348.0" type="curve" smooth="yes"/>
      <point x="350.0" y="-348.0"/>
      <point x="300.0" y="-340.0"/>
      <point x="246.0" y="-310.0" type="curve"/>
      <point x="246.0" y="-366.0" type="line"/>
      <point x="284.0" y="-388.0"/>
      <point x="342.0" y="-400.0"/>
    </contour>
  </outline>
</glyph>
<glyph name="Tcaron" format="2">
  <advance width="980.0"/>
  <unicode hex="0164"/>
  <anchor x="490.0" y="1520.0" name="_top"/>
  <anchor x="490.0" y="0.0" name="bottom"/>
  <anchor x="490.0" y="800.0" name="center"/>
  <anchor x="490.0" y="1520.0" name="top"/>
  <outline>
    <contour>
      <point x="456.0" y="0.0" type="line"/>
      <point x="524.0" y="0.0" type="line"/>
      <point x="524.0" y="1414.0" type="line"/>
      <point x="972.0" y="1414.0" type="line"/>
      <point x="972.0" y="1480.0" type="line"/>
      <point x="8.0" y="1480.0" type="line"/>
      <point x="8.0" y="1414.0" type="line"/>
      <point x="456.0" y="1414.0" type="line"/>
    </contour>
    <contour>
      <point x="452.0" y="1616.0" type="line"/>
      <point x="528.0" y="1616.0" type="line"/>
      <point x="724.0" y="1888.0" type="line"/>
      <point x="654.0" y="1888.0" type="line"/>
      <point x="482.0" y="1646.0" type="line"/>
      <point x="498.0" y="1646.0" type="line"/>
      <point x="326.0" y="1888.0" type="line"/>
      <point x="256.0" y="1888.0" type="line"/>
    </contour>
  </outline>
</glyph>
<glyph name="Ubreve" format="2">
  <advance width="1198.0"/>
  <unicode hex="016C"/>
  <anchor x="600.0" y="1520.0" name="_top"/>
  <anchor x="600.0" y="0.0" name="bottom"/>
  <anchor x="718.0" y="0.0" name="ogonek"/>
  <anchor x="600.0" y="1520.0" name="top"/>
  <anchor x="976.0" y="1480.0" name="topright"/>
  <outline>
    <contour>
      <point x="600.0" y="-18.0" type="curve" smooth="yes"/>
      <point x="912.0" y="-18.0"/>
      <point x="1042.0" y="146.0"/>
      <point x="1042.0" y="492.0" type="curve" smooth="yes"/>
      <point x="1042.0" y="1480.0" type="line"/>
      <point x="976.0" y="1480.0" type="line"/>
      <point x="976.0" y="482.0" type="line" smooth="yes"/>
      <point x="976.0" y="190.0"/>
      <point x="870.0" y="48.0"/>
      <point x="600.0" y="48.0" type="curve" smooth="yes"/>
      <point x="330.0" y="48.0"/>
      <point x="224.0" y="190.0"/>
      <point x="224.0" y="482.0" type="curve" smooth="yes"/>
      <point x="224.0" y="1480.0" type="line"/>
      <point x="156.0" y="1480.0" type="line"/>
      <point x="156.0" y="492.0" type="line" smooth="yes"/>
      <point x="156.0" y="146.0"/>
      <point x="288.0" y="-18.0"/>
    </contour>
    <contour>
      <point x="602.0" y="1628.0" type="curve" smooth="yes"/>
      <point x="748.0" y="1628.0"/>
      <point x="832.0" y="1704.0"/>
      <point x="842.0" y="1860.0" type="curve"/>
      <point x="786.0" y="1860.0" type="line"/>
      <point x="776.0" y="1736.0"/>
      <point x="722.0" y="1686.0"/>
      <point x="602.0" y="1686.0" type="curve" smooth="yes"/>
      <point x="482.0" y="1686.0"/>
      <point x="428.0" y="1736.0"/>
      <point x="414.0" y="1860.0" type="curve"/>
      <point x="358.0" y="1860.0" type="line"/>
      <point x="368.0" y="1706.0"/>
      <point x="456.0" y="1628.0"/>
    </contour>
  </outline>
</glyph>
<glyph name="ubreve" format="2">
  <advance width="920.0"/>
  <unicode hex="016D"/>
  <anchor x="456.0" y="1200.0" name="_top"/>
  <anchor x="456.0" y="0.0" name="bottom"/>
  <anchor x="776.0" y="0.0" name="ogonek"/>
  <anchor x="456.0" y="1200.0" name="top"/>
  <anchor x="708.0" y="1080.0" name="topright"/>
  <outline>
    <contour>
      <point x="414.0" y="-18.0" type="curve" smooth="yes"/>
      <point x="518.0" y="-18.0"/>
      <point x="624.0" y="26.0"/>
      <point x="702.0" y="120.0" type="curve"/>
      <point x="710.0" y="120.0" type="line"/>
      <point x="716.0" y="0.0" type="line"/>
      <point x="776.0" y="0.0" type="line"/>
      <point x="776.0" y="1080.0" type="line"/>
      <point x="708.0" y="1080.0" type="line"/>
      <point x="708.0" y="226.0" type="line"/>
      <point x="636.0" y="92.0"/>
      <point x="504.0" y="48.0"/>
      <point x="416.0" y="48.0" type="curve" smooth="yes"/>
      <point x="290.0" y="48.0"/>
      <point x="202.0" y="110.0"/>
      <point x="202.0" y="304.0" type="curve" smooth="yes"/>
      <point x="202.0" y="1080.0" type="line"/>
      <point x="134.0" y="1080.0" type="line"/>
      <point x="134.0" y="308.0" type="line" smooth="yes"/>
      <point x="134.0" y="58.0"/>
      <point x="256.0" y="-18.0"/>
    </contour>
    <contour>
      <point x="458.0" y="1276.0" type="curve" smooth="yes"/>
      <point x="588.0" y="1276.0"/>
      <point x="672.0" y="1374.0"/>
      <point x="678.0" y="1588.0" type="curve"/>
      <point x="622.0" y="1588.0" type="line"/>
      <point x="616.0" y="1404.0"/>
      <point x="558.0" y="1332.0"/>
      <point x="458.0" y="1332.0" type="curve" smooth="yes"/>
      <point x="358.0" y="1332.0"/>
      <point x="300.0" y="1404.0"/>
      <point x="290.0" y="1588.0" type="curve"/>
      <point x="234.0" y="1588.0" type="line"/>
      <point x="240.0" y="1376.0"/>
      <point x="328.0" y="1276.0"/>
    </contour>
  </outline>
</glyph>
<glyph name="uring" format="2">
  <advance width="920.0"/>
  <unicode hex="016F"/>
  <anchor x="456.0" y="1200.0" name="_top"/>
  <anchor x="456.0" y="0.0" name="bottom"/>
  <anchor x="776.0" y="0.0" name="ogonek"/>
  <anchor x="456.0" y="1200.0" name="top"/>
  <anchor x="708.0" y="1080.0" name="topright"/>
  <outline>
    <contour>
      <point x="414.0" y="-18.0" type="curve" smooth="yes"/>
      <point x="518.0" y="-18.0"/>
      <point x="624.0" y="26.0"/>
      <point x="702.0" y="120.0" type="curve"/>
      <point x="710.0" y="120.0" type="line"/>
      <point x="716.0" y="0.0" type="line"/>
      <point x="776.0" y="0.0" type="line"/>
      <point x="776.0" y="1080.0" type="line"/>
      <point x="708.0" y="1080.0" type="line"/>
      <point x="708.0" y="226.0" type="line"/>
      <point x="636.0" y="92.0"/>
      <point x="504.0" y="48.0"/>
      <point x="416.0" y="48.0" type="curve" smooth="yes"/>
      <point x="290.0" y="48.0"/>
      <point x="202.0" y="110.0"/>
      <point x="202.0" y="304.0" type="curve" smooth="yes"/>
      <point x="202.0" y="1080.0" type="line"/>
      <point x="134.0" y="1080.0" type="line"/>
      <point x="134.0" y="308.0" type="line" smooth="yes"/>
      <point x="134.0" y="58.0"/>
      <point x="256.0" y="-18.0"/>
    </contour>
    <contour>
      <point x="456.0" y="1260.0" type="curve" smooth="yes"/>
      <point x="562.0" y="1260.0"/>
      <point x="640.0" y="1338.0"/>
      <point x="640.0" y="1444.0" type="curve" smooth="yes"/>
      <point x="640.0" y="1550.0"/>
      <point x="562.0" y="1628.0"/>
      <point x="456.0" y="1628.0" type="curve" smooth="yes"/>
      <point x="350.0" y="1628.0"/>
      <point x="272.0" y="1550.0"/>
      <point x="272.0" y="1444.0" type="curve" smooth="yes"/>
      <point x="272.0" y="1338.0"/>
      <point x="350.0" y="1260.0"/>
    </contour>
    <contour>
      <point x="456.0" y="1312.0" type="curve" smooth="yes"/>
      <point x="380.0" y="1312.0"/>
      <point x="326.0" y="1362.0"/>
      <point x="326.0" y="1444.0" type="curve" smooth="yes"/>
      <point x="326.0" y="1526.0"/>
      <point x="380.0" y="1576.0"/>
      <point x="456.0" y="1576.0" type="curve" smooth="yes"/>
      <point x="532.0" y="1576.0"/>
      <point x="586.0" y="1526.0"/>
      <point x="586.0" y="1444.0" type="curve" smooth="yes"/>
      <point x="586.0" y="1362.0"/>
      <point x="532.0" y="1312.0"/>
    </contour>
  </outline>
</glyph>
<glyph name="uogonek" format="2">
  <advance width="920.0"/>
  <unicode hex="0173"/>
  <anchor x="776.0" y="0.0" name="_ogonek"/>
  <anchor x="456.0" y="0.0" name="bottom"/>
  <anchor x="776.0" y="0.0" name="ogonek"/>
  <anchor x="456.0" y="1200.0" name="top"/>
  <anchor x="708.0" y="1080.0" name="topright"/>
  <outline>
    <contour>
      <point x="414.0" y="-18.0" type="curve" smooth="yes"/>
      <point x="518.0" y="-18.0"/>
      <point x="624.0" y="26.0"/>
      <point x="702.0" y="120.0" type="curve"/>
      <point x="710.0" y="120.0" type="line"/>
      <point x="716.0" y="0.0" type="line"/>
      <point x="776.0" y="0.0" type="line"/>
      <point x="776.0" y="1080.0" type="line"/>
      <point x="708.0" y="1080.0" type="line"/>
      <point x="708.0" y="226.0" type="line"/>
      <point x="636.0" y="92.0"/>
      <point x="504.0" y="48.0"/>
      <point x="416.0" y="48.0" type="curve" smooth="yes"/>
      <point x="290.0" y="48.0"/>
      <point x="202.0" y="110.0"/>
      <point x="202.0" y="304.0" type="curve" smooth="yes"/>
      <point x="202.0" y="1080.0" type="line"/>
      <point x="134.0" y="1080.0" type="line"/>
      <point x="134.0" y="308.0" type="line" smooth="yes"/>
      <point x="134.0" y="58.0"/>
      <point x="256.0" y="-18.0"/>
    </contour>
    <contour>
      <point x="742.0" y="-400.0" type="curve" smooth="yes"/>
      <point x="788.0" y="-400.0"/>
      <point x="838.0" y="-386.0"/>
      <point x="874.0" y="-360.0" type="curve"/>
      <point x="874.0" y="-304.0" type="line"/>
      <point x="834.0" y="-332.0"/>
      <point x="788.0" y="-348.0"/>
      <point x="740.0" y="-348.0" type="curve" smooth="yes"/>
      <point x="664.0" y="-348.0"/>
      <point x="620.0" y="-306.0"/>
      <point x="620.0" y="-228.0" type="curve" smooth="yes"/>
      <point x="620.0" y="-148.0"/>
      <point x="666.0" y="-80.0"/>
      <point x="776.0" y="0.0" type="curve"/>
      <point x="748.0" y="46.0" type="line"/>
      <point x="620.0" y="-46.0"/>
      <point x="564.0" y="-132.0"/>
      <point x="564.0" y="-232.0" type="curve" smooth="yes"/>
      <point x="564.0" y="-338.0"/>
      <point x="630.0" y="-400.0"/>
    </contour>
  </outline>
</glyph>
<glyph name="Wcircumflex" format="2">
  <advance width="1772.0"/>
  <unicode hex="0174"/>
  <anchor x="888.0" y="1520.0" name="_top"/>
  <anchor x="888.0" y="0.0" name="bottom"/>
  <anchor x="888.0" y="1520.0" name="top"/>
  <outline>
    <contour>
      <point x="434.0" y="0.0" type="line"/>
      <point x="528.0" y="0.0" type="line"/>
      <point x="894.0" y="1430.0" type="line"/>
      <point x="880.0" y="1430.0" type="line"/>
      <point x="1244.0" y="0.0" type="line"/>
      <point x="1338.0" y="0.0" type="line"/>
      <point x="1716.0" y="1480.0" type="line"/>
      <point x="1648.0" y="1480.0" type="line"/>
      <point x="1284.0" y="40.0" type="line"/>
      <point x="1300.0" y="40.0" type="line"/>
      <point x="934.0" y="1480.0" type="line"/>
      <point x="840.0" y="1480.0" type="line"/>
      <point x="474.0" y="40.0" type="line"/>
      <point x="490.0" y="40.0" type="line"/>
      <point x="128.0" y="1480.0" type="line"/>
      <point x="56.0" y="1480.0" type="line"/>
    </contour>
    <contour>
      <point x="654.0" y="1616.0" type="line"/>
      <point x="724.0" y="1616.0" type="line"/>
      <point x="896.0" y="1858.0" type="line"/>
      <point x="880.0" y="1858.0" type="line"/>
      <point x="1052.0" y="1616.0" type="line"/>
      <point x="1122.0" y="1616.0" type="line"/>
      <point x="926.0" y="1888.0" type="line"/>
      <point x="850.0" y="1888.0" type="line"/>
    </contour>
  </outline>
</glyph>
<glyph name="wcircumflex" format="2">
  <advance width="1444.0"/>
  <unicode hex="0175"/>
  <anchor x="724.0" y="1200.0" name="_top"/>
  <anchor x="722.0" y="0.0" name="bottom"/>
  <anchor x="724.0" y="1200.0" name="top"/>
  <outline>
    <contour>
      <point x="342.0" y="0.0" type="line"/>
      <point x="436.0" y="0.0" type="line"/>
      <point x="730.0" y="1030.0" type="line"/>
      <point x="716.0" y="1030.0" type="line"/>
      <point x="1008.0" y="0.0" type="line"/>
      <point x="1102.0" y="0.0" type="line"/>
      <point x="1392.0" y="1080.0" type="line"/>
      <point x="1322.0" y="1080.0" type="line"/>
      <point x="1048.0" y="40.0" type="line"/>
      <point x="1064.0" y="40.0" type="line"/>
      <point x="770.0" y="1080.0" type="line"/>
      <point x="676.0" y="1080.0" type="line"/>
      <point x="382.0" y="40.0" type="line"/>
      <point x="398.0" y="40.0" type="line"/>
      <point x="124.0" y="1080.0" type="line"/>
      <point x="52.0" y="1080.0" type="line"/>
    </contour>
    <contour>
      <point x="510.0" y="1264.0" type="line"/>
      <point x="574.0" y="1264.0" type="line"/>
      <point x="732.0" y="1590.0" type="line"/>
      <point x="716.0" y="1590.0" type="line"/>
      <point x="874.0" y="1264.0" type="line"/>
      <point x="938.0" y="1264.0" type="line"/>
      <point x="762.0" y="1616.0" type="line"/>
      <point x="686.0" y="1616.0" type="line"/>
    </contour>
  </outline>
</glyph>
<glyph name="Ycircumflex" format="2">
  <advance width="980.0"/>
  <unicode hex="0176"/>
  <anchor x="490.0" y="1520.0" name="_top"/>
  <anchor x="490.0" y="0.0" name="bottom"/>
  <anchor x="490.0" y="1520.0" name="top"/>
  <anchor x="12.0" y="1480.0" name="topleft"/>
  <outline>
    <contour>
      <point x="456.0" y="0.0" type="line"/>
      <point x="524.0" y="0.0" type="line"/>
      <point x="524.0" y="708.0" type="line"/>
      <point x="508.0" y="652.0" type="line"/>
      <point x="994.0" y="1480.0" type="line"/>
      <point x="918.0" y="1480.0" type="line"/>
      <point x="476.0" y="724.0" type="line"/>
      <point x="504.0" y="724.0" type="line"/>
      <point x="56.0" y="1480.0" type="line"/>
      <point x="-22.0" y="1480.0" type="line"/>
      <point x="472.0" y="652.0" type="line"/>
      <point x="456.0" y="708.0" type="line"/>
    </contour>
    <contour>
      <point x="256.0" y="1616.0" type="line"/>
      <point x="326.0" y="1616.0" type="line"/>
      <point x="498.0" y="1858.0" type="line"/>
      <point x="482.0" y="1858.0" type="line"/>
      <point x="654.0" y="1616.0" type="line"/>
      <point x="724.0" y="1616.0" type="line"/>
      <point x="528.0" y="1888.0" type="line"/>
      <point x="452.0" y="1888.0" type="line"/>
    </contour>
  </outline>
</glyph>
<glyph name="ycircumflex" format="2">
  <advance width="858.0"/>
  <unicode hex="0177"/>
  <anchor x="430.0" y="1200.0" name="_top"/>
  <anchor x="636.0" y="0.0" name="bottom"/>
  <anchor x="430.0" y="1200.0" name="top"/>
  <outline>
    <contour>
      <point x="254.0" y="-440.0" type="line"/>
      <point x="326.0" y="-440.0" type="line"/>
      <point x="846.0" y="1080.0" type="line"/>
      <point x="770.0" y="1080.0" type="line"/>
      <point x="418.0" y="34.0" type="line"/>
      <point x="406.0" y="0.0" type="line"/>
    </contour>
    <contour>
      <point x="382.0" y="0.0" type="line"/>
      <point x="452.0" y="0.0" type="line"/>
      <point x="88.0" y="1080.0" type="line"/>
      <point x="12.0" y="1080.0" type="line"/>
    </contour>
    <contour>
      <point x="216.0" y="1264.0" type="line"/>
      <point x="280.0" y="1264.0" type="line"/>
      <point x="438.0" y="1590.0" type="line"/>
      <point x="422.0" y="1590.0" type="line"/>
      <point x="580.0" y="1264.0" type="line"/>
      <point x="644.0" y="1264.0" type="line"/>
      <point x="468.0" y="1616.0" type="line"/>
      <point x="392.0" y="1616.0" type="line"/>
    </contour>
  </outline>
</glyph>
<glyph name="Ydieresis" format="2">
  <advance width="980.0"/>
  <unicode hex="0178"/>
  <anchor x="490.0" y="1520.0" name="_top"/>
  <anchor x="490.0" y="0.0" name="bottom"/>
  <anchor x="490.0" y="1520.0" name="top"/>
  <anchor x="12.0" y="1480.0" name="topleft"/>
  <outline>
    <contour>
      <point x="456.0" y="0.0" type="line"/>
      <point x="524.0" y="0.0" type="line"/>
      <point x="524.0" y="708.0" type="line"/>
      <point x="508.0" y="652.0" type="line"/>
      <point x="994.0" y="1480.0" type="line"/>
      <point x="918.0" y="1480.0" type="line"/>
      <point x="476.0" y="724.0" type="line"/>
      <point x="504.0" y="724.0" type="line"/>
      <point x="56.0" y="1480.0" type="line"/>
      <point x="-22.0" y="1480.0" type="line"/>
      <point x="472.0" y="652.0" type="line"/>
      <point x="456.0" y="708.0" type="line"/>
    </contour>
    <contour>
      <point x="670.0" y="1690.0" type="curve" smooth="yes"/>
      <point x="706.0" y="1690.0"/>
      <point x="732.0" y="1714.0"/>
      <point x="732.0" y="1752.0" type="curve" smooth="yes"/>
      <point x="732.0" y="1790.0"/>
      <point x="706.0" y="1816.0"/>
      <point x="670.0" y="1816.0" type="curve" smooth="yes"/>
      <point x="634.0" y="1816.0"/>
      <point x="608.0" y="1790.0"/>
      <point x="608.0" y="1752.0" type="curve" smooth="yes"/>
      <point x="608.0" y="1714.0"/>
      <point x="634.0" y="1690.0"/>
    </contour>
    <contour>
      <point x="310.0" y="1690.0" type="curve" smooth="yes"/>
      <point x="346.0" y="1690.0"/>
      <point x="372.0" y="1714.0"/>
      <point x="372.0" y="1752.0" type="curve" smooth="yes"/>
      <point x="372.0" y="1790.0"/>
      <point x="346.0" y="1816.0"/>
      <point x="310.0" y="1816.0" type="curve" smooth="yes"/>
      <point x="274.0" y="1816.0"/>
      <point x="248.0" y="1790.0"/>
      <point x="248.0" y="1752.0" type="curve" smooth="yes"/>
      <point x="248.0" y="1714.0"/>
      <point x="274.0" y="1690.0"/>
    </contour>
  </outline>
</glyph>
<glyph name="Zacute" format="2">
  <advance width="950.0"/>
  <unicode hex="0179"/>
  <anchor x="476.0" y="1520.0" name="_top"/>
  <anchor x="476.0" y="0.0" name="bottom"/>
  <anchor x="476.0" y="1520.0" name="top"/>
  <outline>
    <contour>
      <point x="56.0" y="0.0" type="line"/>
      <point x="894.0" y="0.0" type="line"/>
      <point x="894.0" y="64.0" type="line"/>
      <point x="114.0" y="64.0" type="line"/>
      <point x="130.0" y="38.0" type="line"/>
      <point x="884.0" y="1440.0" type="line"/>
      <point x="884.0" y="1480.0" type="line"/>
      <point x="66.0" y="1480.0" type="line"/>
      <point x="66.0" y="1416.0" type="line"/>
      <point x="826.0" y="1416.0" type="line"/>
      <point x="810.0" y="1442.0" type="line"/>
      <point x="56.0" y="40.0" type="line"/>
    </contour>
    <contour>
      <point x="448.0" y="1616.0" type="line"/>
      <point x="504.0" y="1616.0" type="line"/>
      <point x="648.0" y="1888.0" type="line"/>
      <point x="576.0" y="1888.0" type="line"/>
    </contour>
  </outline>
</glyph>
<glyph name="zacute" format="2">
  <advance width="742.0"/>
  <unicode hex="017A"/>
  <anchor x="374.0" y="1200.0" name="_top"/>
  <anchor x="374.0" y="0.0" name="bottom"/>
  <anchor x="374.0" y="1200.0" name="top"/>
  <outline>
    <contour>
      <point x="54.0" y="0.0" type="line"/>
      <point x="692.0" y="0.0" type="line"/>
      <point x="692.0" y="64.0" type="line"/>
      <point x="126.0" y="64.0" type="line"/>
      <point x="126.0" y="38.0" type="line"/>
      <point x="682.0" y="1040.0" type="line"/>
      <point x="682.0" y="1080.0" type="line"/>
      <point x="64.0" y="1080.0" type="line"/>
      <point x="64.0" y="1016.0" type="line"/>
      <point x="610.0" y="1016.0" type="line"/>
      <point x="610.0" y="1042.0" type="line"/>
      <point x="54.0" y="40.0" type="line"/>
    </contour>
    <contour>
      <point x="346.0" y="1264.0" type="line"/>
      <point x="402.0" y="1264.0" type="line"/>
      <point x="566.0" y="1616.0" type="line"/>
      <point x="494.0" y="1616.0" type="line"/>
    </contour>
  </outline>
</glyph>
<glyph name="zcaron" format="2">
  <advance width="742.0"/>
  <unicode hex="017E"/>
  <anchor x="374.0" y="1200.0" name="_top"/>
  <anchor x="374.0" y="0.0" name="bottom"/>
  <anchor x="374.0" y="1200.0" name="top"/>
  <outline>
    <contour>
      <point x="54.0" y="0.0" type="line"/>
      <point x="692.0" y="0.0" type="line"/>
      <point x="692.0" y="64.0" type="line"/>
      <point x="126.0" y="64.0" type="line"/>
      <point x="126.0" y="38.0" type="line"/>
      <point x="682.0" y="1040.0" type="line"/>
      <point x="682.0" y="1080.0" type="line"/>
      <point x="64.0" y="1080.0" type="line"/>
      <point x="64.0" y="1016.0" type="line"/>
      <point x="610.0" y="1016.0" type="line"/>
      <point x="610.0" y="1042.0" type="line"/>
      <point x="54.0" y="40.0" type="line"/>
    </contour>
    <contour>
      <point x="336.0" y="1264.0" type="line"/>
      <point x="412.0" y="1264.0" type="line"/>
      <point x="588.0" y="1616.0" type="line"/>
      <point x="524.0" y="1616.0" type="line"/>
      <point x="366.0" y="1290.0" type="line"/>
      <point x="382.0" y="1290.0" type="line"/>
      <point x="224.0" y="1616.0" type="line"/>
      <point x="160.0" y="1616.0" type="line"/>
    </contour>
  </outline>
</glyph>
<glyph name="Schwa" format="2">
  <advance width="1166.0"/>
  <unicode hex="018F"/>
  <anchor x="584.0" y="0.0" name="bottom"/>
  <anchor x="584.0" y="1520.0" name="top"/>
  <outline>
    <contour>
      <point x="572.0" y="-18.0" type="curve" smooth="yes"/>
      <point x="876.0" y="-18.0"/>
      <point x="1068.0" y="182.0"/>
      <point x="1068.0" y="740.0" type="curve" smooth="yes"/>
      <point x="1068.0" y="1302.0"/>
      <point x="860.0" y="1498.0"/>
      <point x="484.0" y="1498.0" type="curve" smooth="yes"/>
      <point x="370.0" y="1498.0"/>
      <point x="266.0" y="1486.0"/>
      <point x="156.0" y="1458.0" type="curve"/>
      <point x="156.0" y="1390.0" type="line"/>
      <point x="264.0" y="1422.0"/>
      <point x="380.0" y="1432.0"/>
      <point x="478.0" y="1432.0" type="curve" smooth="yes"/>
      <point x="832.0" y="1432.0"/>
      <point x="996.0" y="1278.0"/>
      <point x="996.0" y="738.0" type="curve" smooth="yes"/>
      <point x="996.0" y="206.0"/>
      <point x="832.0" y="48.0"/>
      <point x="572.0" y="48.0" type="curve" smooth="yes"/>
      <point x="312.0" y="48.0"/>
      <point x="160.0" y="206.0"/>
      <point x="160.0" y="740.0" type="curve"/>
      <point x="136.0" y="714.0" type="line"/>
      <point x="1024.0" y="714.0" type="line"/>
      <point x="1024.0" y="780.0" type="line"/>
      <point x="88.0" y="780.0" type="line"/>
      <point x="88.0" y="740.0" type="line" smooth="yes"/>
      <point x="88.0" y="186.0"/>
      <point x="268.0" y="-18.0"/>
    </contour>
  </outline>
</glyph>
<glyph name="florin" format="2">
  <advance width="562.0"/>
  <unicode hex="0192"/>
  <outline>
    <contour>
      <point x="-6.0" y="-460.0" type="curve" smooth="yes"/>
      <point x="180.0" y="-460.0"/>
      <point x="276.0" y="-364.0"/>
      <point x="276.0" y="-176.0" type="curve" smooth="yes"/>
      <point x="276.0" y="1360.0" type="line" smooth="yes"/>
      <point x="276.0" y="1508.0"/>
      <point x="350.0" y="1570.0"/>
      <point x="486.0" y="1570.0" type="curve" smooth="yes"/>
      <point x="534.0" y="1570.0"/>
      <point x="568.0" y="1564.0"/>
      <point x="610.0" y="1558.0" type="curve"/>
      <point x="610.0" y="1626.0" type="line"/>
      <point x="570.0" y="1634.0"/>
      <point x="524.0" y="1636.0"/>
      <point x="490.0" y="1636.0" type="curve" smooth="yes"/>
      <point x="304.0" y="1636.0"/>
      <point x="208.0" y="1540.0"/>
      <point x="208.0" y="1352.0" type="curve" smooth="yes"/>
      <point x="208.0" y="-184.0" type="line" smooth="yes"/>
      <point x="208.0" y="-332.0"/>
      <point x="134.0" y="-394.0"/>
      <point x="-2.0" y="-394.0" type="curve" smooth="yes"/>
      <point x="-50.0" y="-394.0"/>
      <point x="-84.0" y="-388.0"/>
      <point x="-126.0" y="-382.0" type="curve"/>
      <point x="-126.0" y="-450.0" type="line"/>
      <point x="-86.0" y="-458.0"/>
      <point x="-40.0" y="-460.0"/>
    </contour>
    <contour>
      <point x="8.0" y="1014.0" type="line"/>
      <point x="576.0" y="1014.0" type="line"/>
      <point x="576.0" y="1080.0" type="line"/>
      <point x="8.0" y="1080.0" type="line"/>
    </contour>
  </outline>
</glyph>
<glyph name="Dzcaron" format="2">
  <advance width="1898.0"/>
  <unicode hex="01C5"/>
  <anchor x="1530.0" y="1200.0" name="_top"/>
  <anchor x="516.0" y="0.0" name="bottom"/>
  <anchor x="578.0" y="740.0" name="center"/>
  <anchor x="164.0" y="762.0" name="stroke"/>
  <anchor x="516.0" y="1520.0" name="top"/>
  <outline>
    <contour>
      <point x="414.0" y="-10.0" type="curve" smooth="yes"/>
      <point x="834.0" y="-10.0"/>
      <point x="1058.0" y="206.0"/>
      <point x="1058.0" y="740.0" type="curve" smooth="yes"/>
      <point x="1058.0" y="1258.0"/>
      <point x="852.0" y="1494.0"/>
      <point x="442.0" y="1494.0" type="curve" smooth="yes"/>
      <point x="348.0" y="1494.0"/>
      <point x="250.0" y="1482.0"/>
      <point x="164.0" y="1468.0" type="curve"/>
      <point x="164.0" y="4.0" type="line"/>
      <point x="268.0" y="-6.0"/>
      <point x="338.0" y="-10.0"/>
    </contour>
    <contour>
      <point x="416.0" y="56.0" type="curve" smooth="yes"/>
      <point x="354.0" y="56.0"/>
      <point x="298.0" y="58.0"/>
      <point x="232.0" y="66.0" type="curve"/>
      <point x="232.0" y="1412.0" type="line"/>
      <point x="302.0" y="1422.0"/>
      <point x="374.0" y="1428.0"/>
      <point x="438.0" y="1428.0" type="curve" smooth="yes"/>
      <point x="816.0" y="1428.0"/>
      <point x="986.0" y="1224.0"/>
      <point x="986.0" y="740.0" type="curve" smooth="yes"/>
      <point x="986.0" y="246.0"/>
      <point x="798.0" y="56.0"/>
    </contour>
    <contour>
      <point x="1210.0" y="0.0" type="line"/>
      <point x="1848.0" y="0.0" type="line"/>
      <point x="1848.0" y="64.0" type="line"/>
      <point x="1282.0" y="64.0" type="line"/>
      <point x="1282.0" y="38.0" type="line"/>
      <point x="1838.0" y="1040.0" type="line"/>
      <point x="1838.0" y="1080.0" type="line"/>
      <point x="1220.0" y="1080.0" type="line"/>
      <point x="1220.0" y="1016.0" type="line"/>
      <point x="1766.0" y="1016.0" type="line"/>
      <point x="1766.0" y="1042.0" type="line"/>
      <point x="1210.0" y="40.0" type="line"/>
    </contour>
    <contour>
      <point x="1492.0" y="1296.0" type="line"/>
      <point x="1568.0" y="1296.0" type="line"/>
      <point x="1764.0" y="1568.0" type="line"/>
      <point x="1694.0" y="1568.0" type="line"/>
      <point x="1522.0" y="1326.0" type="line"/>
      <point x="1538.0" y="1326.0" type="line"/>
      <point x="1366.0" y="1568.0" type="line"/>
      <point x="1296.0" y="1568.0" type="line"/>
    </contour>
  </outline>
</glyph>
<glyph name="LJ" format="2">
  <advance width="1286.0"/>
  <unicode hex="01C7"/>
  <anchor x="526.0" y="0.0" name="bottom"/>
  <anchor x="578.0" y="1616.0" name="caronalt"/>
  <anchor x="640.0" y="774.0" name="periodcentered"/>
  <anchor x="198.0" y="774.0" name="slash"/>
  <anchor x="198.0" y="1520.0" name="top"/>
  <outline>
    <contour>
      <point x="164.0" y="0.0" type="line"/>
      <point x="886.0" y="0.0" type="line"/>
      <point x="886.0" y="66.0" type="line"/>
      <point x="232.0" y="66.0" type="line"/>
      <point x="232.0" y="1480.0" type="line"/>
      <point x="164.0" y="1480.0" type="line"/>
    </contour>
    <contour>
      <point x="934.0" y="-340.0" type="line"/>
      <point x="1064.0" y="-136.0"/>
      <point x="1114.0" y="22.0"/>
      <point x="1122.0" y="256.0" type="curve"/>
      <point x="1122.0" y="1480.0" type="line"/>
      <point x="1054.0" y="1480.0" type="line"/>
      <point x="1054.0" y="286.0" type="line" smooth="yes"/>
      <point x="1054.0" y="36.0"/>
      <point x="1004.0" y="-116.0"/>
      <point x="884.0" y="-306.0" type="curve"/>
    </contour>
  </outline>
</glyph>
<glyph name="Lj" format="2">
  <advance width="1246.0"/>
  <unicode hex="01C8"/>
  <anchor x="526.0" y="0.0" name="bottom"/>
  <anchor x="578.0" y="1616.0" name="caronalt"/>
  <anchor x="640.0" y="774.0" name="periodcentered"/>
  <anchor x="198.0" y="774.0" name="slash"/>
  <anchor x="198.0" y="1520.0" name="top"/>
  <outline>
    <contour>
      <point x="164.0" y="0.0" type="line"/>
      <point x="886.0" y="0.0" type="line"/>
      <point x="886.0" y="66.0" type="line"/>
      <point x="232.0" y="66.0" type="line"/>
      <point x="232.0" y="1480.0" type="line"/>
      <point x="164.0" y="1480.0" type="line"/>
    </contour>
    <component base="jdotless" xOffset="890.0"/>
    <component base="dotaccentcomb" xOffset="668.0"/>
  </outline>
</glyph>
<glyph name="NJ" format="2">
  <advance width="1644.0"/>
  <unicode hex="01CA"/>
  <anchor x="624.0" y="0.0" name="bottom"/>
  <anchor x="624.0" y="1520.0" name="top"/>
  <outline>
    <contour>
      <point x="164.0" y="0.0" type="line"/>
      <point x="230.0" y="0.0" type="line"/>
      <point x="230.0" y="1420.0" type="line"/>
      <point x="198.0" y="1420.0" type="line"/>
      <point x="1008.0" y="0.0" type="line"/>
      <point x="1084.0" y="0.0" type="line"/>
      <point x="1084.0" y="1480.0" type="line"/>
      <point x="1018.0" y="1480.0" type="line"/>
      <point x="1018.0" y="60.0" type="line"/>
      <point x="1050.0" y="60.0" type="line"/>
      <point x="240.0" y="1480.0" type="line"/>
      <point x="164.0" y="1480.0" type="line"/>
    </contour>
    <contour>
      <point x="1292.0" y="-340.0" type="line"/>
      <point x="1422.0" y="-136.0"/>
      <point x="1472.0" y="22.0"/>
      <point x="1480.0" y="256.0" type="curve"/>
      <point x="1480.0" y="1480.0" type="line"/>
      <point x="1412.0" y="1480.0" type="line"/>
      <point x="1412.0" y="286.0" type="line" smooth="yes"/>
      <point x="1412.0" y="36.0"/>
      <point x="1362.0" y="-116.0"/>
      <point x="1242.0" y="-306.0" type="curve"/>
    </contour>
  </outline>
</glyph>
<glyph name="oogonek" format="2">
  <advance width="912.0"/>
  <unicode hex="01EB"/>
  <anchor x="456.0" y="0.0" name="bottom"/>
  <anchor x="456.0" y="540.0" name="center"/>
  <anchor x="456.0" y="1200.0" name="top"/>
  <anchor x="570.0" y="1080.0" name="topright"/>
  <outline>
    <contour>
      <point x="508.0" y="-400.0" type="curve" smooth="yes"/>
      <point x="556.0" y="-400.0"/>
      <point x="600.0" y="-388.0"/>
      <point x="640.0" y="-362.0" type="curve"/>
      <point x="622.0" y="-316.0" type="line"/>
      <point x="584.0" y="-338.0"/>
      <point x="548.0" y="-348.0"/>
      <point x="506.0" y="-348.0" type="curve" smooth="yes"/>
      <point x="434.0" y="-348.0"/>
      <point x="386.0" y="-310.0"/>
      <point x="386.0" y="-226.0" type="curve" smooth="yes"/>
      <point x="386.0" y="-148.0"/>
      <point x="438.0" y="-52.0"/>
      <point x="580.0" y="0.0" type="curve" smooth="yes"/>
      <point x="734.0" y="56.0"/>
      <point x="824.0" y="212.0"/>
      <point x="824.0" y="540.0" type="curve" smooth="yes"/>
      <point x="824.0" y="948.0"/>
      <point x="676.0" y="1096.0"/>
      <point x="456.0" y="1096.0" type="curve" smooth="yes"/>
      <point x="232.0" y="1096.0"/>
      <point x="88.0" y="948.0"/>
      <point x="88.0" y="540.0" type="curve" smooth="yes"/>
      <point x="88.0" y="132.0"/>
      <point x="236.0" y="-18.0"/>
      <point x="462.0" y="-18.0" type="curve"/>
      <point x="466.0" y="-4.0" type="line"/>
      <point x="376.0" y="-58.0"/>
      <point x="330.0" y="-144.0"/>
      <point x="330.0" y="-232.0" type="curve" smooth="yes"/>
      <point x="330.0" y="-342.0"/>
      <point x="402.0" y="-400.0"/>
    </contour>
    <contour>
      <point x="456.0" y="48.0" type="curve" smooth="yes"/>
      <point x="276.0" y="48.0"/>
      <point x="160.0" y="160.0"/>
      <point x="160.0" y="544.0" type="curve" smooth="yes"/>
      <point x="160.0" y="920.0"/>
      <point x="276.0" y="1030.0"/>
      <point x="456.0" y="1030.0" type="curve" smooth="yes"/>
      <point x="636.0" y="1030.0"/>
      <point x="752.0" y="920.0"/>
      <point x="752.0" y="536.0" type="curve" smooth="yes"/>
      <point x="752.0" y="160.0"/>
      <point x="636.0" y="48.0"/>
    </contour>
  </outline>
</glyph>
<glyph name="Aringacute" format="2">
  <advance width="1130.0"/>
  <unicode hex="01FA"/>
  <anchor x="570.0" y="1340.0" name="_top"/>
  <anchor x="566.0" y="0.0" name="bottom"/>
  <anchor x="1104.0" y="0.0" name="ogonek"/>
  <anchor x="566.0" y="1520.0" name="top"/>
  <outline>
    <contour>
      <point x="26.0" y="0.0" type="line"/>
      <point x="98.0" y="0.0" type="line"/>
      <point x="576.0" y="1440.0" type="line"/>
      <point x="552.0" y="1440.0" type="line"/>
      <point x="1030.0" y="0.0" type="line"/>
      <point x="1104.0" y="0.0" type="line"/>
      <point x="608.0" y="1480.0" type="line"/>
      <point x="522.0" y="1480.0" type="line"/>
    </contour>
    <contour>
      <point x="246.0" y="528.0" type="line"/>
      <point x="884.0" y="528.0" type="line"/>
      <point x="864.0" y="594.0" type="line"/>
      <point x="266.0" y="594.0" type="line"/>
    </contour>
    <contour>
      <point x="570.0" y="1432.0" type="curve" smooth="yes"/>
      <point x="676.0" y="1432.0"/>
      <point x="754.0" y="1510.0"/>
      <point x="754.0" y="1616.0" type="curve" smooth="yes"/>
      <point x="754.0" y="1722.0"/>
      <point x="676.0" y="1800.0"/>
      <point x="570.0" y="1800.0" type="curve" smooth="yes"/>
      <point x="464.0" y="1800.0"/>
      <point x="386.0" y="1722.0"/>
      <point x="386.0" y="1616.0" type="curve" smooth="yes"/>
      <point x="386.0" y="1510.0"/>
      <point x="464.0" y="1432.0"/>
    </contour>
    <contour>
      <point x="570.0" y="1484.0" type="curve" smooth="yes"/>
      <point x="494.0" y="1484.0"/>
      <point x="440.0" y="1534.0"/>
      <point x="440.0" y="1616.0" type="curve" smooth="yes"/>
      <point x="440.0" y="1698.0"/>
      <point x="494.0" y="1748.0"/>
      <point x="570.0" y="1748.0" type="curve" smooth="yes"/>
      <point x="646.0" y="1748.0"/>
      <point x="700.0" y="1698.0"/>
      <point x="700.0" y="1616.0" type="curve" smooth="yes"/>
      <point x="700.0" y="1534.0"/>
      <point x="646.0" y="1484.0"/>
    </contour>
    <contour>
      <point x="706.0" y="1728.0" type="line"/>
      <point x="892.0" y="1908.0" type="line"/>
      <point x="812.0" y="1908.0" type="line"/>
      <point x="658.0" y="1756.0" type="line"/>
    </contour>
  </outline>
</glyph>
<glyph name="AEacute" format="2">
  <advance width="1546.0"/>
  <unicode hex="01FC"/>
  <anchor x="790.0" y="1520.0" name="_top"/>
  <anchor x="852.0" y="0.0" name="bottom"/>
  <anchor x="790.0" y="1520.0" name="top"/>
  <outline>
    <contour>
      <point x="26.0" y="0.0" type="line"/>
      <point x="98.0" y="0.0" type="line"/>
      <point x="580.0" y="1414.0" type="line"/>
      <point x="798.0" y="1414.0" type="line"/>
      <point x="798.0" y="1480.0" type="line"/>
      <point x="534.0" y="1480.0" type="line"/>
    </contour>
    <contour>
      <point x="248.0" y="528.0" type="line"/>
      <point x="824.0" y="528.0" type="line"/>
      <point x="824.0" y="594.0" type="line"/>
      <point x="268.0" y="594.0" type="line"/>
    </contour>
    <contour>
      <point x="818.0" y="0.0" type="line"/>
      <point x="1512.0" y="0.0" type="line"/>
      <point x="1512.0" y="66.0" type="line"/>
      <point x="884.0" y="66.0" type="line"/>
      <point x="824.0" y="1414.0" type="line"/>
      <point x="1502.0" y="1414.0" type="line"/>
      <point x="1502.0" y="1480.0" type="line"/>
      <point x="754.0" y="1480.0" type="line"/>
    </contour>
    <contour>
      <point x="836.0" y="728.0" type="line"/>
      <point x="1412.0" y="728.0" type="line"/>
      <point x="1412.0" y="794.0" type="line"/>
      <point x="836.0" y="794.0" type="line"/>
    </contour>
    <contour>
      <point x="762.0" y="1616.0" type="line"/>
      <point x="818.0" y="1616.0" type="line"/>
      <point x="962.0" y="1888.0" type="line"/>
      <point x="890.0" y="1888.0" type="line"/>
    </contour>
  </outline>
</glyph>
<glyph name="oslashacute" format="2">
  <advance width="912.0"/>
  <unicode hex="01FF"/>
  <anchor x="456.0" y="540.0" name="_center"/>
  <anchor x="456.0" y="0.0" name="bottom"/>
  <anchor x="456.0" y="540.0" name="center"/>
  <anchor x="578.0" y="0.0" name="ogonek"/>
  <anchor x="456.0" y="1200.0" name="top"/>
  <anchor x="570.0" y="1080.0" name="topright"/>
  <outline>
    <contour>
      <point x="456.0" y="-18.0" type="curve" smooth="yes"/>
      <point x="680.0" y="-18.0"/>
      <point x="824.0" y="132.0"/>
      <point x="824.0" y="540.0" type="curve" smooth="yes"/>
      <point x="824.0" y="948.0"/>
      <point x="676.0" y="1096.0"/>
      <point x="456.0" y="1096.0" type="curve" smooth="yes"/>
      <point x="232.0" y="1096.0"/>
      <point x="88.0" y="948.0"/>
      <point x="88.0" y="540.0" type="curve" smooth="yes"/>
      <point x="88.0" y="132.0"/>
      <point x="236.0" y="-18.0"/>
    </contour>
    <contour>
      <point x="456.0" y="48.0" type="curve" smooth="yes"/>
      <point x="276.0" y="48.0"/>
      <point x="160.0" y="160.0"/>
      <point x="160.0" y="544.0" type="curve" smooth="yes"/>
      <point x="160.0" y="920.0"/>
      <point x="276.0" y="1030.0"/>
      <point x="456.0" y="1030.0" type="curve" smooth="yes"/>
      <point x="636.0" y="1030.0"/>
      <point x="752.0" y="920.0"/>
      <point x="752.0" y="536.0" type="curve" smooth="yes"/>
      <point x="752.0" y="160.0"/>
      <point x="636.0" y="48.0"/>
    </contour>
    <contour>
      <point x="142.0" y="-16.0" type="line"/>
      <point x="228.0" y="120.0" type="line"/>
      <point x="242.0" y="142.0" type="line"/>
      <point x="724.0" y="906.0" type="line"/>
      <point x="738.0" y="928.0" type="line"/>
      <point x="824.0" y="1064.0" type="line"/>
      <point x="770.0" y="1096.0" type="line"/>
      <point x="684.0" y="960.0" type="line"/>
      <point x="670.0" y="938.0" type="line"/>
      <point x="188.0" y="174.0" type="line"/>
      <point x="174.0" y="152.0" type="line"/>
      <point x="88.0" y="16.0" type="line"/>
    </contour>
    <contour>
      <point x="428.0" y="1264.0" type="line"/>
      <point x="484.0" y="1264.0" type="line"/>
      <point x="648.0" y="1616.0" type="line"/>
      <point x="576.0" y="1616.0" type="line"/>
    </contour>
  </outline>
</glyph>
<glyph name="ainvertedbreve" format="2">
  <advance width="852.0"/>
  <unicode hex="0203"/>
  <anchor x="420.0" y="1200.0" name="_top"/>
  <anchor x="424.0" y="0.0" name="bottom"/>
  <anchor x="718.0" y="0.0" name="ogonek"/>
  <anchor x="420.0" y="1200.0" name="top"/>
  <outline>
    <contour>
      <point x="366.0" y="-16.0" type="curve" smooth="yes"/>
      <point x="480.0" y="-16.0"/>
      <point x="578.0" y="30.0"/>
      <point x="644.0" y="122.0" type="curve"/>
      <point x="652.0" y="122.0" type="line"/>
      <point x="658.0" y="0.0" type="line"/>
      <point x="718.0" y="0.0" type="line"/>
      <point x="718.0" y="754.0" type="line" smooth="yes"/>
      <point x="718.0" y="1012.0"/>
      <point x="600.0" y="1096.0"/>
      <point x="390.0" y="1096.0" type="curve" smooth="yes"/>
      <point x="310.0" y="1096.0"/>
      <point x="208.0" y="1080.0"/>
      <point x="136.0" y="1052.0" type="curve"/>
      <point x="136.0" y="984.0" type="line"/>
      <point x="226.0" y="1016.0"/>
      <point x="318.0" y="1030.0"/>
      <point x="388.0" y="1030.0" type="curve" smooth="yes"/>
      <point x="556.0" y="1030.0"/>
      <point x="650.0" y="972.0"/>
      <point x="650.0" y="756.0" type="curve" smooth="yes"/>
      <point x="650.0" y="222.0" type="line"/>
      <point x="572.0" y="90.0"/>
      <point x="464.0" y="50.0"/>
      <point x="372.0" y="50.0" type="curve" smooth="yes"/>
      <point x="234.0" y="50.0"/>
      <point x="156.0" y="120.0"/>
      <point x="156.0" y="274.0" type="curve" smooth="yes"/>
      <point x="156.0" y="414.0"/>
      <point x="234.0" y="492.0"/>
      <point x="408.0" y="510.0" type="curve" smooth="yes"/>
      <point x="696.0" y="542.0" type="line"/>
      <point x="686.0" y="608.0" type="line"/>
      <point x="410.0" y="576.0" type="line" smooth="yes"/>
      <point x="188.0" y="552.0"/>
      <point x="82.0" y="450.0"/>
      <point x="82.0" y="266.0" type="curve" smooth="yes"/>
      <point x="82.0" y="82.0"/>
      <point x="198.0" y="-16.0"/>
    </contour>
    <contour>
      <point x="198.0" y="1292.0" type="curve"/>
      <point x="254.0" y="1292.0" type="line"/>
      <point x="260.0" y="1476.0"/>
      <point x="318.0" y="1546.0"/>
      <point x="418.0" y="1546.0" type="curve" smooth="yes"/>
      <point x="518.0" y="1546.0"/>
      <point x="576.0" y="1476.0"/>
      <point x="586.0" y="1292.0" type="curve"/>
      <point x="642.0" y="1292.0" type="line"/>
      <point x="636.0" y="1508.0"/>
      <point x="548.0" y="1604.0"/>
      <point x="418.0" y="1604.0" type="curve" smooth="yes"/>
      <point x="288.0" y="1604.0"/>
      <point x="204.0" y="1510.0"/>
    </contour>
  </outline>
</glyph>
<glyph name="Edblgrave" format="2">
  <advance width="946.0"/>
  <unicode hex="0204"/>
  <anchor x="556.0" y="1520.0" name="_top"/>
  <anchor x="556.0" y="0.0" name="bottom"/>
  <anchor x="832.0" y="0.0" name="ogonek"/>
  <anchor x="556.0" y="1520.0" name="top"/>
  <anchor x="36.0" y="1480.0" name="topleft"/>
  <outline>
    <contour>
      <point x="164.0" y="0.0" type="line"/>
      <point x="912.0" y="0.0" type="line"/>
      <point x="912.0" y="66.0" type="line"/>
      <point x="232.0" y="66.0" type="line"/>
      <point x="232.0" y="1414.0" type="line"/>
      <point x="902.0" y="1414.0" type="line"/>
      <point x="902.0" y="1480.0" type="line"/>
      <point x="164.0" y="1480.0" type="line"/>
    </contour>
    <contour>
      <point x="224.0" y="728.0" type="line"/>
      <point x="812.0" y="728.0" type="line"/>
      <point x="812.0" y="794.0" type="line"/>
      <point x="224.0" y="794.0" type="line"/>
    </contour>
    <contour>
      <point x="656.0" y="1616.0" type="line"/>
      <point x="710.0" y="1616.0" type="line"/>
      <point x="624.0" y="1888.0" type="line"/>
      <point x="560.0" y="1888.0" type="line"/>
    </contour>
    <contour>
      <point x="402.0" y="1616.0" type="line"/>
      <point x="456.0" y="1616.0" type="line"/>
      <point x="370.0" y="1888.0" type="line"/>
      <point x="306.0" y="1888.0" type="line"/>
    </contour>
  </outline>
</glyph>
<glyph name="Einvertedbreve" format="2">
  <advance width="946.0"/>
  <unicode hex="0206"/>
  <anchor x="556.0" y="1520.0" name="_top"/>
  <anchor x="556.0" y="0.0" name="bottom"/>
  <anchor x="832.0" y="0.0" name="ogonek"/>
  <anchor x="556.0" y="1520.0" name="top"/>
  <anchor x="36.0" y="1480.0" name="topleft"/>
  <outline>
    <contour>
      <point x="164.0" y="0.0" type="line"/>
      <point x="912.0" y="0.0" type="line"/>
      <point x="912.0" y="66.0" type="line"/>
      <point x="232.0" y="66.0" type="line"/>
      <point x="232.0" y="1414.0" type="line"/>
      <point x="902.0" y="1414.0" type="line"/>
      <point x="902.0" y="1480.0" type="line"/>
      <point x="164.0" y="1480.0" type="line"/>
    </contour>
    <contour>
      <point x="224.0" y="728.0" type="line"/>
      <point x="812.0" y="728.0" type="line"/>
      <point x="812.0" y="794.0" type="line"/>
      <point x="224.0" y="794.0" type="line"/>
    </contour>
    <contour>
      <point x="314.0" y="1644.0" type="curve"/>
      <point x="370.0" y="1644.0" type="line"/>
      <point x="380.0" y="1768.0"/>
      <point x="434.0" y="1818.0"/>
      <point x="554.0" y="1818.0" type="curve" smooth="yes"/>
      <point x="674.0" y="1818.0"/>
      <point x="728.0" y="1768.0"/>
      <point x="742.0" y="1644.0" type="curve"/>
      <point x="798.0" y="1644.0" type="line"/>
      <point x="788.0" y="1798.0"/>
      <point x="700.0" y="1876.0"/>
      <point x="554.0" y="1876.0" type="curve" smooth="yes"/>
      <point x="408.0" y="1876.0"/>
      <point x="324.0" y="1800.0"/>
    </contour>
  </outline>
</glyph>
